G04 #@! TF.GenerationSoftware,KiCad,Pcbnew,(5.1.4-0-10_14)*
G04 #@! TF.CreationDate,2019-11-19T17:15:00-08:00*
G04 #@! TF.ProjectId,DS8,4453382e-6b69-4636-9164-5f7063625858,rev?*
G04 #@! TF.SameCoordinates,Original*
G04 #@! TF.FileFunction,Legend,Bot*
G04 #@! TF.FilePolarity,Positive*
%FSLAX46Y46*%
G04 Gerber Fmt 4.6, Leading zero omitted, Abs format (unit mm)*
G04 Created by KiCad (PCBNEW (5.1.4-0-10_14)) date 2019-11-19 17:15:00*
%MOMM*%
%LPD*%
G04 APERTURE LIST*
%ADD10C,0.127000*%
%ADD11C,0.203200*%
%ADD12C,0.254000*%
%ADD13C,0.150000*%
%ADD14C,0.152400*%
%ADD15C,1.451000*%
%ADD16C,1.753000*%
%ADD17C,2.540000*%
%ADD18C,2.032400*%
%ADD19O,1.802000X1.802000*%
G04 APERTURE END LIST*
D10*
X7450000Y94742000D02*
G75*
G03X7450000Y94742000I-2370000J0D01*
G01*
X8826000Y97252000D02*
X1234000Y97252000D01*
X8826000Y97252001D02*
G75*
G02X9180000Y97088000I95046J-258901D01*
G01*
X9180000Y92596000D02*
X9180000Y97088000D01*
X9180000Y92596000D02*
G75*
G02X8726000Y92232000I-409000J45000D01*
G01*
X1234000Y92232000D02*
X8726000Y92232000D01*
X1234000Y92232000D02*
G75*
G02X980000Y92396000I-45000J209000D01*
G01*
X980000Y96888000D02*
X980000Y92396000D01*
X979999Y96887999D02*
G75*
G02X1234000Y97252000I308901J55070D01*
G01*
D11*
X5842000Y50038000D02*
G75*
G02X11938000Y50038000I3048000J3048000D01*
G01*
D10*
X11628000Y54991000D02*
X6152000Y54991000D01*
X12890000Y53086000D02*
G75*
G03X12890000Y53086000I-4000000J0D01*
G01*
X17018000Y53086000D02*
G75*
G03X17018000Y53086000I-8128000J0D01*
G01*
X12290000Y53086000D02*
G75*
G03X12290000Y53086000I-3400000J0D01*
G01*
X1890000Y43301106D02*
X1890000Y48959000D01*
X1890000Y43301106D02*
G75*
G03X2470106Y42721000I580106J0D01*
G01*
X15436894Y42721000D02*
X2470106Y42721000D01*
X15436894Y42721000D02*
G75*
G03X15890000Y43174106I0J453106D01*
G01*
X15890000Y48959000D02*
X15890000Y43174106D01*
X11260000Y25654000D02*
G75*
G03X11260000Y25654000I-2370000J0D01*
G01*
X5144000Y23144000D02*
X12736000Y23144000D01*
X5144000Y23143999D02*
G75*
G02X4790000Y23308000I-95046J258901D01*
G01*
X4790000Y27800000D02*
X4790000Y23308000D01*
X4790000Y27800000D02*
G75*
G02X5244000Y28164000I409000J-45000D01*
G01*
X12736000Y28164000D02*
X5244000Y28164000D01*
X12736000Y28164000D02*
G75*
G02X12990000Y28000000I45000J-209000D01*
G01*
X12990000Y23508000D02*
X12990000Y28000000D01*
X12990001Y23508001D02*
G75*
G02X12736000Y23144000I-308901J-55070D01*
G01*
X59182000Y24117300D02*
G75*
G03X59182000Y24117300I-2286000J0D01*
G01*
X58470800Y24117300D02*
G75*
G03X58470800Y24117300I-1574800J0D01*
G01*
D12*
X52451000Y28625800D02*
X61341000Y28625800D01*
X52451000Y17957800D02*
X52451000Y28625800D01*
X61341000Y17957800D02*
X52451000Y17957800D01*
X61341000Y28625800D02*
X61341000Y17957800D01*
D11*
X53848000Y50038000D02*
G75*
G02X59944000Y50038000I3048000J3048000D01*
G01*
D10*
X59634000Y54991000D02*
X54158000Y54991000D01*
X60896000Y53086000D02*
G75*
G03X60896000Y53086000I-4000000J0D01*
G01*
X65024000Y53086000D02*
G75*
G03X65024000Y53086000I-8128000J0D01*
G01*
X60296000Y53086000D02*
G75*
G03X60296000Y53086000I-3400000J0D01*
G01*
X49896000Y43301106D02*
X49896000Y48959000D01*
X49896000Y43301106D02*
G75*
G03X50476106Y42721000I580106J0D01*
G01*
X63442894Y42721000D02*
X50476106Y42721000D01*
X63442894Y42721000D02*
G75*
G03X63896000Y43174106I0J453106D01*
G01*
X63896000Y48959000D02*
X63896000Y43174106D01*
D11*
X53848000Y98298000D02*
G75*
G02X59944000Y98298000I3048000J3048000D01*
G01*
D10*
X59634000Y103251000D02*
X54158000Y103251000D01*
X60896000Y101346000D02*
G75*
G03X60896000Y101346000I-4000000J0D01*
G01*
X65024000Y101346000D02*
G75*
G03X65024000Y101346000I-8128000J0D01*
G01*
X60296000Y101346000D02*
G75*
G03X60296000Y101346000I-3400000J0D01*
G01*
X49896000Y91561106D02*
X49896000Y97219000D01*
X49896000Y91561106D02*
G75*
G03X50476106Y90981000I580106J0D01*
G01*
X63442894Y90981000D02*
X50476106Y90981000D01*
X63442894Y90981000D02*
G75*
G03X63896000Y91434106I0J453106D01*
G01*
X63896000Y97219000D02*
X63896000Y91434106D01*
D11*
X29718000Y50038000D02*
G75*
G02X35814000Y50038000I3048000J3048000D01*
G01*
D10*
X35504000Y54991000D02*
X30028000Y54991000D01*
X36766000Y53086000D02*
G75*
G03X36766000Y53086000I-4000000J0D01*
G01*
X40894000Y53086000D02*
G75*
G03X40894000Y53086000I-8128000J0D01*
G01*
X36166000Y53086000D02*
G75*
G03X36166000Y53086000I-3400000J0D01*
G01*
X25766000Y43301106D02*
X25766000Y48959000D01*
X25766000Y43301106D02*
G75*
G03X26346106Y42721000I580106J0D01*
G01*
X39312894Y42721000D02*
X26346106Y42721000D01*
X39312894Y42721000D02*
G75*
G03X39766000Y43174106I0J453106D01*
G01*
X39766000Y48959000D02*
X39766000Y43174106D01*
X11176000Y8641300D02*
G75*
G03X11176000Y8641300I-2286000J0D01*
G01*
X10464800Y8641300D02*
G75*
G03X10464800Y8641300I-1574800J0D01*
G01*
D12*
X4445000Y13149800D02*
X13335000Y13149800D01*
X4445000Y2481800D02*
X4445000Y13149800D01*
X13335000Y2481800D02*
X4445000Y2481800D01*
X13335000Y13149800D02*
X13335000Y2481800D01*
D11*
X5842000Y74168000D02*
G75*
G02X11938000Y74168000I3048000J3048000D01*
G01*
D10*
X11628000Y79121000D02*
X6152000Y79121000D01*
X12890000Y77216000D02*
G75*
G03X12890000Y77216000I-4000000J0D01*
G01*
X17018000Y77216000D02*
G75*
G03X17018000Y77216000I-8128000J0D01*
G01*
X12290000Y77216000D02*
G75*
G03X12290000Y77216000I-3400000J0D01*
G01*
X1890000Y67431106D02*
X1890000Y73089000D01*
X1890000Y67431106D02*
G75*
G03X2470106Y66851000I580106J0D01*
G01*
X15436894Y66851000D02*
X2470106Y66851000D01*
X15436894Y66851000D02*
G75*
G03X15890000Y67304106I0J453106D01*
G01*
X15890000Y73089000D02*
X15890000Y67304106D01*
D11*
X29718000Y74168000D02*
G75*
G02X35814000Y74168000I3048000J3048000D01*
G01*
D10*
X35504000Y79121000D02*
X30028000Y79121000D01*
X36766000Y77216000D02*
G75*
G03X36766000Y77216000I-4000000J0D01*
G01*
X40894000Y77216000D02*
G75*
G03X40894000Y77216000I-8128000J0D01*
G01*
X36166000Y77216000D02*
G75*
G03X36166000Y77216000I-3400000J0D01*
G01*
X25766000Y67431106D02*
X25766000Y73089000D01*
X25766000Y67431106D02*
G75*
G03X26346106Y66851000I580106J0D01*
G01*
X39312894Y66851000D02*
X26346106Y66851000D01*
X39312894Y66851000D02*
G75*
G03X39766000Y67304106I0J453106D01*
G01*
X39766000Y73089000D02*
X39766000Y67304106D01*
D11*
X29718000Y98298000D02*
G75*
G02X35814000Y98298000I3048000J3048000D01*
G01*
D10*
X35504000Y103251000D02*
X30028000Y103251000D01*
X36766000Y101346000D02*
G75*
G03X36766000Y101346000I-4000000J0D01*
G01*
X40894000Y101346000D02*
G75*
G03X40894000Y101346000I-8128000J0D01*
G01*
X36166000Y101346000D02*
G75*
G03X36166000Y101346000I-3400000J0D01*
G01*
X25766000Y91561106D02*
X25766000Y97219000D01*
X25766000Y91561106D02*
G75*
G03X26346106Y90981000I580106J0D01*
G01*
X39312894Y90981000D02*
X26346106Y90981000D01*
X39312894Y90981000D02*
G75*
G03X39766000Y91434106I0J453106D01*
G01*
X39766000Y97219000D02*
X39766000Y91434106D01*
D11*
X53848000Y74168000D02*
G75*
G02X59944000Y74168000I3048000J3048000D01*
G01*
D10*
X59634000Y79121000D02*
X54158000Y79121000D01*
X60896000Y77216000D02*
G75*
G03X60896000Y77216000I-4000000J0D01*
G01*
X65024000Y77216000D02*
G75*
G03X65024000Y77216000I-8128000J0D01*
G01*
X60296000Y77216000D02*
G75*
G03X60296000Y77216000I-3400000J0D01*
G01*
X49896000Y67431106D02*
X49896000Y73089000D01*
X49896000Y67431106D02*
G75*
G03X50476106Y66851000I580106J0D01*
G01*
X63442894Y66851000D02*
X50476106Y66851000D01*
X63442894Y66851000D02*
G75*
G03X63896000Y67304106I0J453106D01*
G01*
X63896000Y73089000D02*
X63896000Y67304106D01*
X9639300Y104394000D02*
G75*
G03X9639300Y104394000I-2286000J0D01*
G01*
X8928100Y104394000D02*
G75*
G03X8928100Y104394000I-1574800J0D01*
G01*
D12*
X11861800Y108839000D02*
X11861800Y99949000D01*
X1193800Y108839000D02*
X11861800Y108839000D01*
X1193800Y99949000D02*
X1193800Y108839000D01*
X11861800Y99949000D02*
X1193800Y99949000D01*
D10*
X59182000Y8641300D02*
G75*
G03X59182000Y8641300I-2286000J0D01*
G01*
X58470800Y8641300D02*
G75*
G03X58470800Y8641300I-1574800J0D01*
G01*
D12*
X52451000Y13149800D02*
X61341000Y13149800D01*
X52451000Y2481800D02*
X52451000Y13149800D01*
X61341000Y2481800D02*
X52451000Y2481800D01*
X61341000Y13149800D02*
X61341000Y2481800D01*
D13*
X8717023Y90127619D02*
X8717023Y91127619D01*
X8336071Y91127619D01*
X8240833Y91080000D01*
X8193214Y91032380D01*
X8145595Y90937142D01*
X8145595Y90794285D01*
X8193214Y90699047D01*
X8240833Y90651428D01*
X8336071Y90603809D01*
X8717023Y90603809D01*
X7526547Y91127619D02*
X7336071Y91127619D01*
X7240833Y91080000D01*
X7145595Y90984761D01*
X7097976Y90794285D01*
X7097976Y90460952D01*
X7145595Y90270476D01*
X7240833Y90175238D01*
X7336071Y90127619D01*
X7526547Y90127619D01*
X7621785Y90175238D01*
X7717023Y90270476D01*
X7764642Y90460952D01*
X7764642Y90794285D01*
X7717023Y90984761D01*
X7621785Y91080000D01*
X7526547Y91127619D01*
X6764642Y91127619D02*
X6526547Y90127619D01*
X6336071Y90841904D01*
X6145595Y90127619D01*
X5907500Y91127619D01*
X5526547Y90651428D02*
X5193214Y90651428D01*
X5050357Y90127619D02*
X5526547Y90127619D01*
X5526547Y91127619D01*
X5050357Y91127619D01*
X4050357Y90127619D02*
X4383690Y90603809D01*
X4621785Y90127619D02*
X4621785Y91127619D01*
X4240833Y91127619D01*
X4145595Y91080000D01*
X4097976Y91032380D01*
X4050357Y90937142D01*
X4050357Y90794285D01*
X4097976Y90699047D01*
X4145595Y90651428D01*
X4240833Y90603809D01*
X4621785Y90603809D01*
X3097976Y90127619D02*
X3669404Y90127619D01*
X3383690Y90127619D02*
X3383690Y91127619D01*
X3478928Y90984761D01*
X3574166Y90889523D01*
X3669404Y90841904D01*
D14*
X13095321Y37747452D02*
X12693155Y36540952D01*
X12290988Y37747452D01*
X11716464Y36540952D02*
X11831369Y36598404D01*
X11888821Y36655857D01*
X11946274Y36770761D01*
X11946274Y37115476D01*
X11888821Y37230380D01*
X11831369Y37287833D01*
X11716464Y37345285D01*
X11544107Y37345285D01*
X11429202Y37287833D01*
X11371750Y37230380D01*
X11314298Y37115476D01*
X11314298Y36770761D01*
X11371750Y36655857D01*
X11429202Y36598404D01*
X11544107Y36540952D01*
X11716464Y36540952D01*
X10624869Y36540952D02*
X10739774Y36598404D01*
X10797226Y36713309D01*
X10797226Y37747452D01*
X9648179Y37345285D02*
X9648179Y36540952D01*
X10165250Y37345285D02*
X10165250Y36713309D01*
X10107798Y36598404D01*
X9992893Y36540952D01*
X9820536Y36540952D01*
X9705631Y36598404D01*
X9648179Y36655857D01*
X9073655Y36540952D02*
X9073655Y37345285D01*
X9073655Y37230380D02*
X9016202Y37287833D01*
X8901298Y37345285D01*
X8728940Y37345285D01*
X8614036Y37287833D01*
X8556583Y37172928D01*
X8556583Y36540952D01*
X8556583Y37172928D02*
X8499131Y37287833D01*
X8384226Y37345285D01*
X8211869Y37345285D01*
X8096964Y37287833D01*
X8039512Y37172928D01*
X8039512Y36540952D01*
X7005369Y36598404D02*
X7120274Y36540952D01*
X7350083Y36540952D01*
X7464988Y36598404D01*
X7522440Y36713309D01*
X7522440Y37172928D01*
X7464988Y37287833D01*
X7350083Y37345285D01*
X7120274Y37345285D01*
X7005369Y37287833D01*
X6947917Y37172928D01*
X6947917Y37058023D01*
X7522440Y36943119D01*
X5798869Y36540952D02*
X6488298Y36540952D01*
X6143583Y36540952D02*
X6143583Y37747452D01*
X6258488Y37575095D01*
X6373393Y37460190D01*
X6488298Y37402738D01*
D13*
X12492023Y21055238D02*
X12349166Y21007619D01*
X12111071Y21007619D01*
X12015833Y21055238D01*
X11968214Y21102857D01*
X11920595Y21198095D01*
X11920595Y21293333D01*
X11968214Y21388571D01*
X12015833Y21436190D01*
X12111071Y21483809D01*
X12301547Y21531428D01*
X12396785Y21579047D01*
X12444404Y21626666D01*
X12492023Y21721904D01*
X12492023Y21817142D01*
X12444404Y21912380D01*
X12396785Y21960000D01*
X12301547Y22007619D01*
X12063452Y22007619D01*
X11920595Y21960000D01*
X11492023Y21531428D02*
X11158690Y21531428D01*
X11015833Y21007619D02*
X11492023Y21007619D01*
X11492023Y22007619D01*
X11015833Y22007619D01*
X10111071Y21007619D02*
X10587261Y21007619D01*
X10587261Y22007619D01*
X10015833Y20912380D02*
X9253928Y20912380D01*
X9015833Y21007619D02*
X9015833Y22007619D01*
X8444404Y21007619D01*
X8444404Y22007619D01*
X7777738Y22007619D02*
X7587261Y22007619D01*
X7492023Y21960000D01*
X7396785Y21864761D01*
X7349166Y21674285D01*
X7349166Y21340952D01*
X7396785Y21150476D01*
X7492023Y21055238D01*
X7587261Y21007619D01*
X7777738Y21007619D01*
X7872976Y21055238D01*
X7968214Y21150476D01*
X8015833Y21340952D01*
X8015833Y21674285D01*
X7968214Y21864761D01*
X7872976Y21960000D01*
X7777738Y22007619D01*
X6920595Y21007619D02*
X6920595Y22007619D01*
X6492023Y21055238D02*
X6349166Y21007619D01*
X6111071Y21007619D01*
X6015833Y21055238D01*
X5968214Y21102857D01*
X5920595Y21198095D01*
X5920595Y21293333D01*
X5968214Y21388571D01*
X6015833Y21436190D01*
X6111071Y21483809D01*
X6301547Y21531428D01*
X6396785Y21579047D01*
X6444404Y21626666D01*
X6492023Y21721904D01*
X6492023Y21817142D01*
X6444404Y21912380D01*
X6396785Y21960000D01*
X6301547Y22007619D01*
X6063452Y22007619D01*
X5920595Y21960000D01*
X5492023Y21531428D02*
X5158690Y21531428D01*
X5015833Y21007619D02*
X5492023Y21007619D01*
X5492023Y22007619D01*
X5015833Y22007619D01*
X4063452Y21007619D02*
X4634880Y21007619D01*
X4349166Y21007619D02*
X4349166Y22007619D01*
X4444404Y21864761D01*
X4539642Y21769523D01*
X4634880Y21721904D01*
D14*
X50306047Y27996035D02*
X50306047Y27306606D01*
X51512547Y27651320D02*
X50306047Y27651320D01*
X51512547Y26904440D02*
X50708214Y26904440D01*
X50938023Y26904440D02*
X50823119Y26846987D01*
X50765666Y26789535D01*
X50708214Y26674630D01*
X50708214Y26559725D01*
X51512547Y26157559D02*
X50708214Y26157559D01*
X50306047Y26157559D02*
X50363500Y26215011D01*
X50420952Y26157559D01*
X50363500Y26100106D01*
X50306047Y26157559D01*
X50420952Y26157559D01*
X50708214Y25065963D02*
X51684904Y25065963D01*
X51799809Y25123416D01*
X51857261Y25180868D01*
X51914714Y25295773D01*
X51914714Y25468130D01*
X51857261Y25583035D01*
X51455095Y25065963D02*
X51512547Y25180868D01*
X51512547Y25410678D01*
X51455095Y25525582D01*
X51397642Y25583035D01*
X51282738Y25640487D01*
X50938023Y25640487D01*
X50823119Y25583035D01*
X50765666Y25525582D01*
X50708214Y25410678D01*
X50708214Y25180868D01*
X50765666Y25065963D01*
X50708214Y23974368D02*
X51684904Y23974368D01*
X51799809Y24031820D01*
X51857261Y24089273D01*
X51914714Y24204178D01*
X51914714Y24376535D01*
X51857261Y24491440D01*
X51455095Y23974368D02*
X51512547Y24089273D01*
X51512547Y24319082D01*
X51455095Y24433987D01*
X51397642Y24491440D01*
X51282738Y24548892D01*
X50938023Y24548892D01*
X50823119Y24491440D01*
X50765666Y24433987D01*
X50708214Y24319082D01*
X50708214Y24089273D01*
X50765666Y23974368D01*
X51455095Y22940225D02*
X51512547Y23055130D01*
X51512547Y23284940D01*
X51455095Y23399844D01*
X51340190Y23457297D01*
X50880571Y23457297D01*
X50765666Y23399844D01*
X50708214Y23284940D01*
X50708214Y23055130D01*
X50765666Y22940225D01*
X50880571Y22882773D01*
X50995476Y22882773D01*
X51110380Y23457297D01*
X51512547Y22365701D02*
X50708214Y22365701D01*
X50938023Y22365701D02*
X50823119Y22308249D01*
X50765666Y22250797D01*
X50708214Y22135892D01*
X50708214Y22020987D01*
X51627452Y21906082D02*
X51627452Y20986844D01*
X51512547Y20699582D02*
X50306047Y20699582D01*
X50708214Y20125059D02*
X51512547Y20125059D01*
X50823119Y20125059D02*
X50765666Y20067606D01*
X50708214Y19952701D01*
X50708214Y19780344D01*
X50765666Y19665440D01*
X50880571Y19607987D01*
X51512547Y19607987D01*
X51512547Y18401487D02*
X51512547Y19090916D01*
X51512547Y18746201D02*
X50306047Y18746201D01*
X50478404Y18861106D01*
X50593309Y18976011D01*
X50650761Y19090916D01*
X59905893Y37088404D02*
X59733536Y37030952D01*
X59446274Y37030952D01*
X59331369Y37088404D01*
X59273917Y37145857D01*
X59216464Y37260761D01*
X59216464Y37375666D01*
X59273917Y37490571D01*
X59331369Y37548023D01*
X59446274Y37605476D01*
X59676083Y37662928D01*
X59790988Y37720380D01*
X59848440Y37777833D01*
X59905893Y37892738D01*
X59905893Y38007642D01*
X59848440Y38122547D01*
X59790988Y38180000D01*
X59676083Y38237452D01*
X59388821Y38237452D01*
X59216464Y38180000D01*
X58814298Y38237452D02*
X58527036Y37030952D01*
X58297226Y37892738D01*
X58067417Y37030952D01*
X57780155Y38237452D01*
X57320536Y37662928D02*
X56918369Y37662928D01*
X56746012Y37030952D02*
X57320536Y37030952D01*
X57320536Y38237452D01*
X56746012Y38237452D01*
X56228940Y37662928D02*
X55826774Y37662928D01*
X55654417Y37030952D02*
X56228940Y37030952D01*
X56228940Y38237452D01*
X55654417Y38237452D01*
X55137345Y37030952D02*
X55137345Y38237452D01*
X54677726Y38237452D01*
X54562821Y38180000D01*
X54505369Y38122547D01*
X54447917Y38007642D01*
X54447917Y37835285D01*
X54505369Y37720380D01*
X54562821Y37662928D01*
X54677726Y37605476D01*
X55137345Y37605476D01*
X53298869Y37030952D02*
X53988298Y37030952D01*
X53643583Y37030952D02*
X53643583Y38237452D01*
X53758488Y38065095D01*
X53873393Y37950190D01*
X53988298Y37892738D01*
X48171595Y98593917D02*
X48229047Y98421560D01*
X48229047Y98134298D01*
X48171595Y98019393D01*
X48114142Y97961940D01*
X47999238Y97904488D01*
X47884333Y97904488D01*
X47769428Y97961940D01*
X47711976Y98019393D01*
X47654523Y98134298D01*
X47597071Y98364107D01*
X47539619Y98479012D01*
X47482166Y98536464D01*
X47367261Y98593917D01*
X47252357Y98593917D01*
X47137452Y98536464D01*
X47080000Y98479012D01*
X47022547Y98364107D01*
X47022547Y98076845D01*
X47080000Y97904488D01*
X48171595Y96927798D02*
X48229047Y97042702D01*
X48229047Y97272512D01*
X48171595Y97387417D01*
X48056690Y97444869D01*
X47597071Y97444869D01*
X47482166Y97387417D01*
X47424714Y97272512D01*
X47424714Y97042702D01*
X47482166Y96927798D01*
X47597071Y96870345D01*
X47711976Y96870345D01*
X47826880Y97444869D01*
X47424714Y96353274D02*
X48229047Y96353274D01*
X47539619Y96353274D02*
X47482166Y96295821D01*
X47424714Y96180917D01*
X47424714Y96008560D01*
X47482166Y95893655D01*
X47597071Y95836202D01*
X48229047Y95836202D01*
X48171595Y95319131D02*
X48229047Y95204226D01*
X48229047Y94974417D01*
X48171595Y94859512D01*
X48056690Y94802060D01*
X47999238Y94802060D01*
X47884333Y94859512D01*
X47826880Y94974417D01*
X47826880Y95146774D01*
X47769428Y95261679D01*
X47654523Y95319131D01*
X47597071Y95319131D01*
X47482166Y95261679D01*
X47424714Y95146774D01*
X47424714Y94974417D01*
X47482166Y94859512D01*
X48171595Y93825369D02*
X48229047Y93940274D01*
X48229047Y94170083D01*
X48171595Y94284988D01*
X48056690Y94342440D01*
X47597071Y94342440D01*
X47482166Y94284988D01*
X47424714Y94170083D01*
X47424714Y93940274D01*
X47482166Y93825369D01*
X47597071Y93767917D01*
X47711976Y93767917D01*
X47826880Y94342440D01*
X48229047Y92618869D02*
X48229047Y93308298D01*
X48229047Y92963583D02*
X47022547Y92963583D01*
X47194904Y93078488D01*
X47309809Y93193393D01*
X47367261Y93308298D01*
X35781560Y36470952D02*
X35781560Y37677452D01*
X35321940Y37677452D01*
X35207036Y37620000D01*
X35149583Y37562547D01*
X35092131Y37447642D01*
X35092131Y37275285D01*
X35149583Y37160380D01*
X35207036Y37102928D01*
X35321940Y37045476D01*
X35781560Y37045476D01*
X34575060Y36470952D02*
X34575060Y37677452D01*
X34172893Y37677452D02*
X33483464Y37677452D01*
X33828179Y36470952D02*
X33828179Y37677452D01*
X32391869Y36585857D02*
X32449321Y36528404D01*
X32621679Y36470952D01*
X32736583Y36470952D01*
X32908940Y36528404D01*
X33023845Y36643309D01*
X33081298Y36758214D01*
X33138750Y36988023D01*
X33138750Y37160380D01*
X33081298Y37390190D01*
X33023845Y37505095D01*
X32908940Y37620000D01*
X32736583Y37677452D01*
X32621679Y37677452D01*
X32449321Y37620000D01*
X32391869Y37562547D01*
X31874798Y36470952D02*
X31874798Y37677452D01*
X31874798Y37102928D02*
X31185369Y37102928D01*
X31185369Y36470952D02*
X31185369Y37677452D01*
X29978869Y36470952D02*
X30668298Y36470952D01*
X30323583Y36470952D02*
X30323583Y37677452D01*
X30438488Y37505095D01*
X30553393Y37390190D01*
X30668298Y37332738D01*
X13896047Y9423868D02*
X13896047Y9194059D01*
X13953500Y9079154D01*
X14068404Y8964249D01*
X14298214Y8906797D01*
X14700380Y8906797D01*
X14930190Y8964249D01*
X15045095Y9079154D01*
X15102547Y9194059D01*
X15102547Y9423868D01*
X15045095Y9538773D01*
X14930190Y9653678D01*
X14700380Y9711130D01*
X14298214Y9711130D01*
X14068404Y9653678D01*
X13953500Y9538773D01*
X13896047Y9423868D01*
X13896047Y8389725D02*
X14872738Y8389725D01*
X14987642Y8332273D01*
X15045095Y8274820D01*
X15102547Y8159916D01*
X15102547Y7930106D01*
X15045095Y7815201D01*
X14987642Y7757749D01*
X14872738Y7700297D01*
X13896047Y7700297D01*
X13896047Y7298130D02*
X13896047Y6608701D01*
X15102547Y6953416D02*
X13896047Y6953416D01*
X15102547Y5574559D02*
X15102547Y6263987D01*
X15102547Y5919273D02*
X13896047Y5919273D01*
X14068404Y6034178D01*
X14183309Y6149082D01*
X14240761Y6263987D01*
X17469047Y72150917D02*
X16262547Y72150917D01*
X17124333Y71748750D01*
X16262547Y71346583D01*
X17469047Y71346583D01*
X17469047Y70772060D02*
X16664714Y70772060D01*
X16262547Y70772060D02*
X16320000Y70829512D01*
X16377452Y70772060D01*
X16320000Y70714607D01*
X16262547Y70772060D01*
X16377452Y70772060D01*
X17469047Y70312440D02*
X16664714Y69680464D01*
X16664714Y70312440D02*
X17469047Y69680464D01*
X17469047Y68588869D02*
X17469047Y69278298D01*
X17469047Y68933583D02*
X16262547Y68933583D01*
X16434904Y69048488D01*
X16549809Y69163393D01*
X16607261Y69278298D01*
X24399047Y74395583D02*
X24399047Y74970107D01*
X23192547Y74970107D01*
X23767071Y73591250D02*
X23767071Y73993417D01*
X24399047Y73993417D02*
X23192547Y73993417D01*
X23192547Y73418893D01*
X23192547Y72729464D02*
X23192547Y72499655D01*
X23250000Y72384750D01*
X23364904Y72269845D01*
X23594714Y72212393D01*
X23996880Y72212393D01*
X24226690Y72269845D01*
X24341595Y72384750D01*
X24399047Y72499655D01*
X24399047Y72729464D01*
X24341595Y72844369D01*
X24226690Y72959274D01*
X23996880Y73016726D01*
X23594714Y73016726D01*
X23364904Y72959274D01*
X23250000Y72844369D01*
X23192547Y72729464D01*
X24513952Y71982583D02*
X24513952Y71063345D01*
X24341595Y70833536D02*
X24399047Y70661179D01*
X24399047Y70373917D01*
X24341595Y70259012D01*
X24284142Y70201560D01*
X24169238Y70144107D01*
X24054333Y70144107D01*
X23939428Y70201560D01*
X23881976Y70259012D01*
X23824523Y70373917D01*
X23767071Y70603726D01*
X23709619Y70718631D01*
X23652166Y70776083D01*
X23537261Y70833536D01*
X23422357Y70833536D01*
X23307452Y70776083D01*
X23250000Y70718631D01*
X23192547Y70603726D01*
X23192547Y70316464D01*
X23250000Y70144107D01*
X24399047Y69627036D02*
X23192547Y69627036D01*
X23192547Y69167417D01*
X23250000Y69052512D01*
X23307452Y68995060D01*
X23422357Y68937607D01*
X23594714Y68937607D01*
X23709619Y68995060D01*
X23767071Y69052512D01*
X23824523Y69167417D01*
X23824523Y69627036D01*
X23767071Y68420536D02*
X23767071Y68018369D01*
X24399047Y67846012D02*
X24399047Y68420536D01*
X23192547Y68420536D01*
X23192547Y67846012D01*
X23767071Y67328940D02*
X23767071Y66926774D01*
X24399047Y66754417D02*
X24399047Y67328940D01*
X23192547Y67328940D01*
X23192547Y66754417D01*
X24399047Y66237345D02*
X23192547Y66237345D01*
X23192547Y65950083D01*
X23250000Y65777726D01*
X23364904Y65662821D01*
X23479809Y65605369D01*
X23709619Y65547917D01*
X23881976Y65547917D01*
X24111785Y65605369D01*
X24226690Y65662821D01*
X24341595Y65777726D01*
X24399047Y65950083D01*
X24399047Y66237345D01*
X24399047Y64398869D02*
X24399047Y65088298D01*
X24399047Y64743583D02*
X23192547Y64743583D01*
X23364904Y64858488D01*
X23479809Y64973393D01*
X23537261Y65088298D01*
X23609047Y99747869D02*
X23609047Y100322393D01*
X22402547Y100322393D01*
X22977071Y98943536D02*
X22977071Y99345702D01*
X23609047Y99345702D02*
X22402547Y99345702D01*
X22402547Y98771179D01*
X22402547Y98081750D02*
X22402547Y97851940D01*
X22460000Y97737036D01*
X22574904Y97622131D01*
X22804714Y97564679D01*
X23206880Y97564679D01*
X23436690Y97622131D01*
X23551595Y97737036D01*
X23609047Y97851940D01*
X23609047Y98081750D01*
X23551595Y98196655D01*
X23436690Y98311560D01*
X23206880Y98369012D01*
X22804714Y98369012D01*
X22574904Y98311560D01*
X22460000Y98196655D01*
X22402547Y98081750D01*
X23723952Y97334869D02*
X23723952Y96415631D01*
X23609047Y95553845D02*
X23609047Y96128369D01*
X22402547Y96128369D01*
X22402547Y95324036D02*
X23609047Y94921869D01*
X22402547Y94519702D01*
X23609047Y93543012D02*
X23609047Y94117536D01*
X22402547Y94117536D01*
X23609047Y92508869D02*
X23609047Y93198298D01*
X23609047Y92853583D02*
X22402547Y92853583D01*
X22574904Y92968488D01*
X22689809Y93083393D01*
X22747261Y93198298D01*
X48879047Y71923726D02*
X47672547Y71923726D01*
X47672547Y71636464D01*
X47730000Y71464107D01*
X47844904Y71349202D01*
X47959809Y71291750D01*
X48189619Y71234298D01*
X48361976Y71234298D01*
X48591785Y71291750D01*
X48706690Y71349202D01*
X48821595Y71464107D01*
X48879047Y71636464D01*
X48879047Y71923726D01*
X48247071Y70717226D02*
X48247071Y70315060D01*
X48879047Y70142702D02*
X48879047Y70717226D01*
X47672547Y70717226D01*
X47672547Y70142702D01*
X48764142Y68936202D02*
X48821595Y68993655D01*
X48879047Y69166012D01*
X48879047Y69280917D01*
X48821595Y69453274D01*
X48706690Y69568179D01*
X48591785Y69625631D01*
X48361976Y69683083D01*
X48189619Y69683083D01*
X47959809Y69625631D01*
X47844904Y69568179D01*
X47730000Y69453274D01*
X47672547Y69280917D01*
X47672547Y69166012D01*
X47730000Y68993655D01*
X47787452Y68936202D01*
X48534333Y68476583D02*
X48534333Y67902060D01*
X48879047Y68591488D02*
X47672547Y68189321D01*
X48879047Y67787155D01*
X48304523Y67155179D02*
X48879047Y67155179D01*
X47672547Y67557345D02*
X48304523Y67155179D01*
X47672547Y66753012D01*
X48879047Y65718869D02*
X48879047Y66408298D01*
X48879047Y66063583D02*
X47672547Y66063583D01*
X47844904Y66178488D01*
X47959809Y66293393D01*
X48017261Y66408298D01*
X10285512Y98327452D02*
X10285512Y99533952D01*
X9998250Y99533952D01*
X9825893Y99476500D01*
X9710988Y99361595D01*
X9653536Y99246690D01*
X9596083Y99016880D01*
X9596083Y98844523D01*
X9653536Y98614714D01*
X9710988Y98499809D01*
X9825893Y98384904D01*
X9998250Y98327452D01*
X10285512Y98327452D01*
X8389583Y98442357D02*
X8447036Y98384904D01*
X8619393Y98327452D01*
X8734298Y98327452D01*
X8906655Y98384904D01*
X9021560Y98499809D01*
X9079012Y98614714D01*
X9136464Y98844523D01*
X9136464Y99016880D01*
X9079012Y99246690D01*
X9021560Y99361595D01*
X8906655Y99476500D01*
X8734298Y99533952D01*
X8619393Y99533952D01*
X8447036Y99476500D01*
X8389583Y99419047D01*
X7527798Y99533952D02*
X7527798Y98672166D01*
X7585250Y98499809D01*
X7700155Y98384904D01*
X7872512Y98327452D01*
X7987417Y98327452D01*
X6436202Y98327452D02*
X6436202Y98959428D01*
X6493655Y99074333D01*
X6608560Y99131785D01*
X6838369Y99131785D01*
X6953274Y99074333D01*
X6436202Y98384904D02*
X6551107Y98327452D01*
X6838369Y98327452D01*
X6953274Y98384904D01*
X7010726Y98499809D01*
X7010726Y98614714D01*
X6953274Y98729619D01*
X6838369Y98787071D01*
X6551107Y98787071D01*
X6436202Y98844523D01*
X5344607Y98384904D02*
X5459512Y98327452D01*
X5689321Y98327452D01*
X5804226Y98384904D01*
X5861679Y98442357D01*
X5919131Y98557261D01*
X5919131Y98901976D01*
X5861679Y99016880D01*
X5804226Y99074333D01*
X5689321Y99131785D01*
X5459512Y99131785D01*
X5344607Y99074333D01*
X4827536Y98327452D02*
X4827536Y99533952D01*
X4712631Y98787071D02*
X4367917Y98327452D01*
X4367917Y99131785D02*
X4827536Y98672166D01*
X3218869Y98327452D02*
X3908298Y98327452D01*
X3563583Y98327452D02*
X3563583Y99533952D01*
X3678488Y99361595D01*
X3793393Y99246690D01*
X3908298Y99189238D01*
X51237642Y9274249D02*
X51295095Y9331701D01*
X51352547Y9504059D01*
X51352547Y9618963D01*
X51295095Y9791320D01*
X51180190Y9906225D01*
X51065285Y9963678D01*
X50835476Y10021130D01*
X50663119Y10021130D01*
X50433309Y9963678D01*
X50318404Y9906225D01*
X50203500Y9791320D01*
X50146047Y9618963D01*
X50146047Y9504059D01*
X50203500Y9331701D01*
X50260952Y9274249D01*
X50146047Y8929535D02*
X51352547Y8527368D01*
X50146047Y8125201D01*
X51467452Y8010297D02*
X51467452Y7091059D01*
X51352547Y6803797D02*
X50146047Y6803797D01*
X50548214Y6229273D02*
X51352547Y6229273D01*
X50663119Y6229273D02*
X50605666Y6171820D01*
X50548214Y6056916D01*
X50548214Y5884559D01*
X50605666Y5769654D01*
X50720571Y5712201D01*
X51352547Y5712201D01*
X51352547Y4505701D02*
X51352547Y5195130D01*
X51352547Y4850416D02*
X50146047Y4850416D01*
X50318404Y4965320D01*
X50433309Y5080225D01*
X50490761Y5195130D01*
%LPC*%
D15*
X48930000Y29830000D03*
X43430000Y27500000D03*
X19780000Y89870000D03*
D16*
X7620000Y94742000D03*
X5080000Y94742000D03*
X2540000Y94742000D03*
D17*
X3890000Y40132000D03*
X8890000Y40132000D03*
X13890000Y40132000D03*
D16*
X6350000Y25654000D03*
X8890000Y25654000D03*
X11430000Y25654000D03*
D18*
X56896000Y27482800D03*
X56896000Y29895800D03*
X56896000Y18923000D03*
D17*
X51896000Y40132000D03*
X56896000Y40132000D03*
X61896000Y40132000D03*
X51896000Y88392000D03*
X56896000Y88392000D03*
X61896000Y88392000D03*
X27766000Y40132000D03*
X32766000Y40132000D03*
X37766000Y40132000D03*
D19*
X17272000Y105664000D03*
X19812000Y105664000D03*
X17272000Y103124000D03*
X19812000Y103124000D03*
X17272000Y100584000D03*
X19812000Y100584000D03*
X17272000Y98044000D03*
X19812000Y98044000D03*
X17272000Y95504000D03*
X19812000Y95504000D03*
D18*
X8890000Y12006800D03*
X8890000Y14419800D03*
X8890000Y3447000D03*
D17*
X3890000Y64262000D03*
X8890000Y64262000D03*
X13890000Y64262000D03*
X27766000Y64262000D03*
X32766000Y64262000D03*
X37766000Y64262000D03*
X27766000Y88392000D03*
X32766000Y88392000D03*
X37766000Y88392000D03*
X51896000Y64262000D03*
X56896000Y64262000D03*
X61896000Y64262000D03*
D18*
X10718800Y104394000D03*
X13131800Y104394000D03*
X2159000Y104394000D03*
X56896000Y12006800D03*
X56896000Y14419800D03*
X56896000Y3447000D03*
M02*
