G04 #@! TF.GenerationSoftware,KiCad,Pcbnew,(5.1.4-0-10_14)*
G04 #@! TF.CreationDate,2019-11-19T17:15:00-08:00*
G04 #@! TF.ProjectId,DS8,4453382e-6b69-4636-9164-5f7063625858,rev?*
G04 #@! TF.SameCoordinates,Original*
G04 #@! TF.FileFunction,Paste,Top*
G04 #@! TF.FilePolarity,Positive*
%FSLAX46Y46*%
G04 Gerber Fmt 4.6, Leading zero omitted, Abs format (unit mm)*
G04 Created by KiCad (PCBNEW (5.1.4-0-10_14)) date 2019-11-19 17:15:00*
%MOMM*%
%LPD*%
G04 APERTURE LIST*
%ADD10R,2.540000X2.540000*%
%ADD11R,0.400000X0.650000*%
%ADD12R,1.500000X3.300000*%
%ADD13R,1.500000X1.200000*%
%ADD14R,1.450000X0.450000*%
%ADD15R,0.450000X1.450000*%
%ADD16R,1.500000X0.600000*%
%ADD17R,1.000000X1.000000*%
%ADD18R,1.200000X0.900000*%
%ADD19R,0.500000X0.500000*%
%ADD20R,0.700000X1.300000*%
%ADD21R,3.000000X1.600000*%
%ADD22R,1.300000X0.700000*%
G04 APERTURE END LIST*
D10*
X13930000Y70440000D03*
X17450000Y70450000D03*
X5040000Y76090000D03*
X8480000Y76090000D03*
X36270000Y83460000D03*
X32730000Y83460000D03*
X54730000Y105860000D03*
X58310000Y105880000D03*
D11*
X21020000Y25790000D03*
X22320000Y25790000D03*
X21670000Y27690000D03*
X21670000Y25790000D03*
X22320000Y27690000D03*
X21020000Y27690000D03*
X37360000Y52570000D03*
X36060000Y52570000D03*
X36710000Y50670000D03*
X36710000Y52570000D03*
X36060000Y50670000D03*
X37360000Y50670000D03*
D12*
X16128000Y89788000D03*
D13*
X9728000Y87588000D03*
X9728000Y89788000D03*
X9728000Y92088000D03*
D14*
X22296000Y32827000D03*
X22296000Y32177000D03*
X22296000Y31527000D03*
X22296000Y30877000D03*
X16396000Y30877000D03*
X16396000Y31527000D03*
X16396000Y32177000D03*
X16396000Y32827000D03*
D15*
X32485000Y79410000D03*
X33135000Y79410000D03*
X33785000Y79410000D03*
X34435000Y79410000D03*
X34435000Y73510000D03*
X33785000Y73510000D03*
X33135000Y73510000D03*
X32485000Y73510000D03*
D14*
X36182000Y56683000D03*
X36182000Y56033000D03*
X36182000Y55383000D03*
X36182000Y54733000D03*
X30282000Y54733000D03*
X30282000Y55383000D03*
X30282000Y56033000D03*
X30282000Y56683000D03*
X36124000Y48483000D03*
X36124000Y47833000D03*
X36124000Y47183000D03*
X36124000Y46533000D03*
X30224000Y46533000D03*
X30224000Y47183000D03*
X30224000Y47833000D03*
X30224000Y48483000D03*
D15*
X57633000Y100162000D03*
X58283000Y100162000D03*
X58933000Y100162000D03*
X59583000Y100162000D03*
X59583000Y94262000D03*
X58933000Y94262000D03*
X58283000Y94262000D03*
X57633000Y94262000D03*
D16*
X15910000Y56515000D03*
X15910000Y55245000D03*
X15910000Y53975000D03*
X15910000Y52705000D03*
X15910000Y51435000D03*
X15910000Y50165000D03*
X15910000Y48895000D03*
X15910000Y47625000D03*
X10510000Y47625000D03*
X10510000Y48895000D03*
X10510000Y50165000D03*
X10510000Y51435000D03*
X10510000Y52705000D03*
X10510000Y53975000D03*
X10510000Y55245000D03*
X10510000Y56515000D03*
D17*
X39660000Y54680000D03*
X37960000Y54680000D03*
X37960000Y56230000D03*
X37960000Y57930000D03*
X32678000Y34798000D03*
X34378000Y34798000D03*
X37810000Y36450000D03*
X37810000Y34750000D03*
X32790000Y43080000D03*
X31090000Y43080000D03*
X27460000Y35070000D03*
X27460000Y36770000D03*
X30050000Y44830000D03*
X28350000Y44830000D03*
X31590000Y44820000D03*
X33290000Y44820000D03*
X28390000Y48910000D03*
X28390000Y47210000D03*
X34860000Y44750000D03*
X34860000Y43050000D03*
X42760000Y83450000D03*
X42760000Y81750000D03*
X9220000Y59760000D03*
X7520000Y59760000D03*
X27080000Y51300000D03*
X25380000Y51300000D03*
X36420000Y44770000D03*
X36420000Y43070000D03*
X19496000Y29154000D03*
X21196000Y29154000D03*
X17894000Y27630000D03*
X16194000Y27630000D03*
X16194000Y29154000D03*
X17894000Y29154000D03*
X40150000Y46800000D03*
X40150000Y45100000D03*
X28430000Y56740000D03*
X28430000Y58440000D03*
X28430000Y53500000D03*
X28430000Y55200000D03*
X52440000Y7850000D03*
X50740000Y7850000D03*
X12878000Y31134000D03*
X14578000Y31134000D03*
X4240000Y59760000D03*
X5940000Y59760000D03*
X19512000Y34646000D03*
X21212000Y34646000D03*
X30060000Y58430000D03*
X31760000Y58430000D03*
X12980000Y32752000D03*
X12980000Y34452000D03*
X57260000Y43620000D03*
X55560000Y43620000D03*
X31860000Y53010000D03*
X31860000Y51310000D03*
X54290000Y94750000D03*
X54290000Y93050000D03*
X6820000Y54310000D03*
X8520000Y54310000D03*
X3080000Y11550000D03*
X3080000Y9850000D03*
X35500000Y71670000D03*
X33800000Y71670000D03*
X5430000Y52740000D03*
X7130000Y52740000D03*
X55850000Y94760000D03*
X55850000Y93060000D03*
X30760000Y73310000D03*
X30760000Y75010000D03*
X58610000Y69140000D03*
X58610000Y70840000D03*
X52700000Y98610000D03*
X51000000Y98610000D03*
X33800000Y70110000D03*
X32100000Y70110000D03*
X8670000Y52730000D03*
X8670000Y51030000D03*
X12260000Y45420000D03*
X13960000Y45420000D03*
X32250000Y71690000D03*
X30550000Y71690000D03*
D18*
X5842000Y100710000D03*
X5842000Y97410000D03*
D19*
X52930000Y96770000D03*
X50730000Y96770000D03*
X61670000Y95860000D03*
X61670000Y98060000D03*
D17*
X55880000Y102040000D03*
X55880000Y100340000D03*
X40080000Y48640000D03*
X38380000Y48640000D03*
X24190000Y31020000D03*
X24190000Y32720000D03*
X30760000Y77960000D03*
X30760000Y79660000D03*
X39560000Y56180000D03*
X39560000Y57880000D03*
D20*
X8050000Y89800000D03*
X6150000Y89800000D03*
D17*
X6210000Y87580000D03*
X7910000Y87580000D03*
X17940000Y48560000D03*
X17940000Y50260000D03*
D21*
X13122000Y99568000D03*
X8722000Y99568000D03*
D17*
X19470000Y25870000D03*
X19470000Y27570000D03*
D20*
X28570000Y51320000D03*
X30470000Y51320000D03*
D17*
X38570000Y45110000D03*
X38570000Y46810000D03*
X14620000Y29150000D03*
X12920000Y29150000D03*
X16210000Y34646000D03*
X17910000Y34646000D03*
X6360000Y21070000D03*
X6360000Y22770000D03*
X11370000Y21010000D03*
X11370000Y22710000D03*
X14550000Y32742000D03*
X14550000Y34442000D03*
D22*
X7690000Y56340000D03*
X7690000Y58240000D03*
D17*
X36170000Y73270000D03*
X36170000Y74970000D03*
D20*
X52060000Y36430000D03*
X53960000Y36430000D03*
D22*
X2980000Y13510000D03*
X2980000Y15410000D03*
X60340000Y70990000D03*
X60340000Y69090000D03*
M02*
