%FSLAX45Y45*%
G04 Gerber Fmt 4.5, Leading zero omitted, Abs format (unit mm)*
G04 Created by KiCad (PCBNEW (5.1.4-0-10_14)) date 2019-11-19 17:15:02*
%MOMM*%
%LPD*%
G04 APERTURE LIST*
%ADD10C,0.050000*%
%ADD11C,0.200000*%
%ADD12C,0.300000*%
G04 APERTURE END LIST*
D10*
X0Y11000000D02*
X6553200Y11000000D01*
X6553200Y0D02*
X6553200Y11000000D01*
X6553200Y0D02*
X0Y0D01*
X0Y11000000D02*
X0Y0D01*
D11*
X526000Y5446000D02*
X566000Y5406000D01*
X566000Y5446000D02*
X526000Y5406000D01*
X601000Y8634000D02*
X641000Y8594000D01*
X641000Y8634000D02*
X601000Y8594000D01*
X1132000Y3141000D02*
X1172000Y3101000D01*
X1172000Y3141000D02*
X1132000Y3101000D01*
X1149000Y8999000D02*
X1189000Y8959000D01*
X1189000Y8999000D02*
X1149000Y8959000D01*
X1206000Y4682000D02*
X1246000Y4642000D01*
X1246000Y4682000D02*
X1206000Y4642000D01*
X1483000Y5967000D02*
X1523000Y5927000D01*
X1523000Y5967000D02*
X1483000Y5927000D01*
X1599000Y2652000D02*
X1639000Y2612000D01*
X1639000Y2652000D02*
X1599000Y2612000D01*
X1804000Y2616000D02*
X1844000Y2576000D01*
X1844000Y2616000D02*
X1804000Y2576000D01*
X1823000Y3239000D02*
X1863000Y3199000D01*
X1863000Y3239000D02*
X1823000Y3199000D01*
X1834000Y3699000D02*
X1874000Y3659000D01*
X1874000Y3699000D02*
X1834000Y3659000D01*
X2104000Y6228999D02*
X2144000Y6188999D01*
X2144000Y6228999D02*
X2104000Y6188999D01*
X2173000Y5190000D02*
X2213000Y5150000D01*
X2213000Y5190000D02*
X2173000Y5150000D01*
X2210000Y2932000D02*
X2250000Y2892000D01*
X2250000Y2932000D02*
X2210000Y2892000D01*
X2263000Y5381000D02*
X2303000Y5341000D01*
X2303000Y5381000D02*
X2263000Y5341000D01*
X2305000Y2591000D02*
X2345000Y2551000D01*
X2345000Y2591000D02*
X2305000Y2551000D01*
X2365000Y3850000D02*
X2405000Y3810000D01*
X2405000Y3850000D02*
X2365000Y3810000D01*
X2380000Y5819000D02*
X2420000Y5779000D01*
X2420000Y5819000D02*
X2380000Y5779000D01*
X2396000Y3443000D02*
X2436000Y3403000D01*
X2436000Y3443000D02*
X2396000Y3403000D01*
X2479000Y5647000D02*
X2519000Y5607000D01*
X2519000Y5647000D02*
X2479000Y5607000D01*
X2500000Y4853000D02*
X2540000Y4813000D01*
X2540000Y4853000D02*
X2500000Y4813000D01*
X2508000Y5007000D02*
X2548000Y4967000D01*
X2548000Y5007000D02*
X2508000Y4967000D01*
X2527000Y3112000D02*
X2567000Y3072000D01*
X2567000Y3112000D02*
X2527000Y3072000D01*
X2688000Y5370000D02*
X2728000Y5330000D01*
X2728000Y5370000D02*
X2688000Y5330000D01*
X2730766Y4883234D02*
X2770766Y4843234D01*
X2770766Y4883234D02*
X2730766Y4843234D01*
X2903000Y7979000D02*
X2943000Y7939000D01*
X2943000Y7979000D02*
X2903000Y7939000D01*
X2999000Y4241000D02*
X3039000Y4201000D01*
X3039000Y4241000D02*
X2999000Y4201000D01*
X3011000Y5391000D02*
X3051000Y5351000D01*
X3051000Y5391000D02*
X3011000Y5351000D01*
X3137000Y4738000D02*
X3177000Y4698000D01*
X3177000Y4738000D02*
X3137000Y4698000D01*
X3191000Y6909000D02*
X3231000Y6869000D01*
X3231000Y6909000D02*
X3191000Y6869000D01*
X3241000Y4679000D02*
X3281000Y4639000D01*
X3281000Y4679000D02*
X3241000Y4639000D01*
X3319000Y5030000D02*
X3359000Y4990000D01*
X3359000Y5030000D02*
X3319000Y4990000D01*
X3325000Y7719000D02*
X3365000Y7679000D01*
X3365000Y7719000D02*
X3325000Y7679000D01*
X3342000Y7517000D02*
X3382000Y7477000D01*
X3382000Y7517000D02*
X3342000Y7477000D01*
X3445000Y5616000D02*
X3485000Y5576000D01*
X3485000Y5616000D02*
X3445000Y5576000D01*
X3596800Y3499800D02*
X3636800Y3459800D01*
X3636800Y3499800D02*
X3596800Y3459800D01*
X3674000Y7199000D02*
X3714000Y7159000D01*
X3714000Y7199000D02*
X3674000Y7159000D01*
X3745000Y4317000D02*
X3785000Y4277000D01*
X3785000Y4317000D02*
X3745000Y4277000D01*
X3832000Y4989000D02*
X3872000Y4949000D01*
X3872000Y4989000D02*
X3832000Y4949000D01*
X3871000Y5338000D02*
X3911000Y5298000D01*
X3911000Y5338000D02*
X3871000Y5298000D01*
X3950000Y5933000D02*
X3990000Y5893000D01*
X3990000Y5933000D02*
X3950000Y5893000D01*
X4011000Y5005000D02*
X4051000Y4965000D01*
X4051000Y5005000D02*
X4011000Y4965000D01*
X4345000Y6809000D02*
X4385000Y6769000D01*
X4385000Y6809000D02*
X4345000Y6769000D01*
X4482000Y6178000D02*
X4522000Y6138000D01*
X4522000Y6178000D02*
X4482000Y6138000D01*
X4482000Y6020000D02*
X4522000Y5980000D01*
X4522000Y6020000D02*
X4482000Y5980000D01*
X4482000Y4586000D02*
X4522000Y4546000D01*
X4522000Y4586000D02*
X4482000Y4546000D01*
X4917000Y4578000D02*
X4957000Y4538000D01*
X4957000Y4578000D02*
X4917000Y4538000D01*
X5423000Y10064000D02*
X5463000Y10024000D01*
X5463000Y10064000D02*
X5423000Y10024000D01*
X5450000Y9605000D02*
X5490000Y9565000D01*
X5490000Y9605000D02*
X5450000Y9565000D01*
X5538000Y3659000D02*
X5578000Y3619000D01*
X5578000Y3659000D02*
X5538000Y3619000D01*
X5690000Y10224000D02*
X5730000Y10184000D01*
X5730000Y10224000D02*
X5690000Y10184000D01*
X5954000Y9299000D02*
X5994000Y9259000D01*
X5994000Y9299000D02*
X5954000Y9259000D01*
X1357630Y10439400D02*
G75*
G03X1357630Y10439400I-44450J0D01*
G01*
X679450Y2565400D02*
G75*
G03X679450Y2565400I-44450J0D01*
G01*
X933450Y2565400D02*
G75*
G03X933450Y2565400I-44450J0D01*
G01*
X1187450Y2565400D02*
G75*
G03X1187450Y2565400I-44450J0D01*
G01*
X298450Y9474200D02*
G75*
G03X298450Y9474200I-44450J0D01*
G01*
X552450Y9474200D02*
G75*
G03X552450Y9474200I-44450J0D01*
G01*
X806450Y9474200D02*
G75*
G03X806450Y9474200I-44450J0D01*
G01*
X4937450Y2983000D02*
G75*
G03X4937450Y2983000I-44450J0D01*
G01*
X2022450Y8987000D02*
G75*
G03X2022450Y8987000I-44450J0D01*
G01*
X5734050Y1441980D02*
G75*
G03X5734050Y1441980I-44450J0D01*
G01*
X5734050Y2989580D02*
G75*
G03X5734050Y2989580I-44450J0D01*
G01*
X4387450Y2750000D02*
G75*
G03X4387450Y2750000I-44450J0D01*
G01*
X933450Y1441980D02*
G75*
G03X933450Y1441980I-44450J0D01*
G01*
X1727200Y10616400D02*
X1727200Y10516400D01*
X1677200Y10566400D02*
X1777200Y10566400D01*
X1727200Y10362400D02*
X1727200Y10262400D01*
X1677200Y10312400D02*
X1777200Y10312400D01*
X1727200Y10108400D02*
X1727200Y10008400D01*
X1677200Y10058400D02*
X1777200Y10058400D01*
X1727200Y9854400D02*
X1727200Y9754400D01*
X1677200Y9804400D02*
X1777200Y9804400D01*
X1727200Y9600400D02*
X1727200Y9500400D01*
X1677200Y9550400D02*
X1777200Y9550400D01*
X1981200Y10616400D02*
X1981200Y10516400D01*
X1931200Y10566400D02*
X2031200Y10566400D01*
X1981200Y10362400D02*
X1981200Y10262400D01*
X1931200Y10312400D02*
X2031200Y10312400D01*
X1981200Y10108400D02*
X1981200Y10008400D01*
X1931200Y10058400D02*
X2031200Y10058400D01*
X1981200Y9854400D02*
X1981200Y9754400D01*
X1931200Y9804400D02*
X2031200Y9804400D01*
X1981200Y9600400D02*
X1981200Y9500400D01*
X1931200Y9550400D02*
X2031200Y9550400D01*
X256311Y10398989D02*
X256311Y10479812D01*
X175488Y10479812D01*
X175488Y10398989D01*
X256311Y10398989D01*
X1112292Y10398989D02*
X1112292Y10479812D01*
X1031468Y10479812D01*
X1031468Y10398989D01*
X1112292Y10398989D01*
X5730011Y1160269D02*
X5730011Y1241092D01*
X5649188Y1241092D01*
X5649188Y1160269D01*
X5730011Y1160269D01*
X5730011Y304289D02*
X5730011Y385111D01*
X5649188Y385111D01*
X5649188Y304289D01*
X5730011Y304289D01*
X929411Y1160269D02*
X929411Y1241092D01*
X848588Y1241092D01*
X848588Y1160269D01*
X929411Y1160269D01*
X929411Y304289D02*
X929411Y385111D01*
X848588Y385111D01*
X848588Y304289D01*
X929411Y304289D01*
X5730011Y2707869D02*
X5730011Y2788692D01*
X5649188Y2788692D01*
X5649188Y2707869D01*
X5730011Y2707869D01*
X5730011Y1851888D02*
X5730011Y1932711D01*
X5649188Y1932711D01*
X5649188Y1851888D01*
X5730011Y1851888D01*
X5689600Y3953200D02*
X5749600Y4013200D01*
X5689600Y4073200D01*
X5629600Y4013200D01*
X5689600Y3953200D01*
X6189600Y3953200D02*
X6249600Y4013200D01*
X6189600Y4073200D01*
X6129600Y4013200D01*
X6189600Y3953200D01*
X389000Y6366200D02*
X449000Y6426200D01*
X389000Y6486200D01*
X329000Y6426200D01*
X389000Y6366200D01*
X889000Y6366200D02*
X949000Y6426200D01*
X889000Y6486200D01*
X829000Y6426200D01*
X889000Y6366200D01*
X1389000Y6366200D02*
X1449000Y6426200D01*
X1389000Y6486200D01*
X1329000Y6426200D01*
X1389000Y6366200D01*
X2776600Y3953200D02*
X2836600Y4013200D01*
X2776600Y4073200D01*
X2716600Y4013200D01*
X2776600Y3953200D01*
X3276600Y3953200D02*
X3336600Y4013200D01*
X3276600Y4073200D01*
X3216600Y4013200D01*
X3276600Y3953200D01*
X5189600Y8779200D02*
X5249600Y8839200D01*
X5189600Y8899200D01*
X5129600Y8839200D01*
X5189600Y8779200D01*
X5689600Y8779200D02*
X5749600Y8839200D01*
X5689600Y8899200D01*
X5629600Y8839200D01*
X5689600Y8779200D01*
X6189600Y8779200D02*
X6249600Y8839200D01*
X6189600Y8899200D01*
X6129600Y8839200D01*
X6189600Y8779200D01*
X5189600Y6366200D02*
X5249600Y6426200D01*
X5189600Y6486200D01*
X5129600Y6426200D01*
X5189600Y6366200D01*
X5689600Y6366200D02*
X5749600Y6426200D01*
X5689600Y6486200D01*
X5629600Y6426200D01*
X5689600Y6366200D01*
X6189600Y6366200D02*
X6249600Y6426200D01*
X6189600Y6486200D01*
X6129600Y6426200D01*
X6189600Y6366200D01*
X2776600Y8779200D02*
X2836600Y8839200D01*
X2776600Y8899200D01*
X2716600Y8839200D01*
X2776600Y8779200D01*
X3276600Y8779200D02*
X3336600Y8839200D01*
X3276600Y8899200D01*
X3216600Y8839200D01*
X3276600Y8779200D01*
X3776600Y8779200D02*
X3836600Y8839200D01*
X3776600Y8899200D01*
X3716600Y8839200D01*
X3776600Y8779200D01*
X5189600Y3953200D02*
X5249600Y4013200D01*
X5189600Y4073200D01*
X5129600Y4013200D01*
X5189600Y3953200D01*
X389000Y3953200D02*
X449000Y4013200D01*
X389000Y4073200D01*
X329000Y4013200D01*
X389000Y3953200D01*
X889000Y3953200D02*
X949000Y4013200D01*
X889000Y4073200D01*
X829000Y4013200D01*
X889000Y3953200D01*
X1389000Y3953200D02*
X1449000Y4013200D01*
X1389000Y4073200D01*
X1329000Y4013200D01*
X1389000Y3953200D01*
X3776600Y3953200D02*
X3836600Y4013200D01*
X3776600Y4073200D01*
X3716600Y4013200D01*
X3776600Y3953200D01*
X2776600Y6366200D02*
X2836600Y6426200D01*
X2776600Y6486200D01*
X2716600Y6426200D01*
X2776600Y6366200D01*
X3276600Y6366200D02*
X3336600Y6426200D01*
X3276600Y6486200D01*
X3216600Y6426200D01*
X3276600Y6366200D01*
X3776600Y6366200D02*
X3836600Y6426200D01*
X3776600Y6486200D01*
X3716600Y6426200D01*
X3776600Y6366200D01*
D12*
X283928Y-468214D02*
X283928Y-168214D01*
X355357Y-168214D01*
X398214Y-182500D01*
X426786Y-211071D01*
X441071Y-239643D01*
X455357Y-296786D01*
X455357Y-339643D01*
X441071Y-396786D01*
X426786Y-425357D01*
X398214Y-453929D01*
X355357Y-468214D01*
X283928Y-468214D01*
X583928Y-468214D02*
X583928Y-268214D01*
X583928Y-325357D02*
X598214Y-296786D01*
X612500Y-282500D01*
X641071Y-268214D01*
X669643Y-268214D01*
X769643Y-468214D02*
X769643Y-268214D01*
X769643Y-168214D02*
X755357Y-182500D01*
X769643Y-196786D01*
X783928Y-182500D01*
X769643Y-168214D01*
X769643Y-196786D01*
X955357Y-468214D02*
X926786Y-453929D01*
X912500Y-425357D01*
X912500Y-168214D01*
X1112500Y-468214D02*
X1083928Y-453929D01*
X1069643Y-425357D01*
X1069643Y-168214D01*
X1455357Y-468214D02*
X1455357Y-168214D01*
X1555357Y-382500D01*
X1655357Y-168214D01*
X1655357Y-468214D01*
X1926786Y-468214D02*
X1926786Y-311072D01*
X1912500Y-282500D01*
X1883928Y-268214D01*
X1826786Y-268214D01*
X1798214Y-282500D01*
X1926786Y-453929D02*
X1898214Y-468214D01*
X1826786Y-468214D01*
X1798214Y-453929D01*
X1783928Y-425357D01*
X1783928Y-396786D01*
X1798214Y-368214D01*
X1826786Y-353929D01*
X1898214Y-353929D01*
X1926786Y-339643D01*
X2069643Y-268214D02*
X2069643Y-568214D01*
X2069643Y-282500D02*
X2098214Y-268214D01*
X2155357Y-268214D01*
X2183928Y-282500D01*
X2198214Y-296786D01*
X2212500Y-325357D01*
X2212500Y-411071D01*
X2198214Y-439643D01*
X2183928Y-453929D01*
X2155357Y-468214D01*
X2098214Y-468214D01*
X2069643Y-453929D01*
X2341071Y-439643D02*
X2355357Y-453929D01*
X2341071Y-468214D01*
X2326786Y-453929D01*
X2341071Y-439643D01*
X2341071Y-468214D01*
X2341071Y-282500D02*
X2355357Y-296786D01*
X2341071Y-311072D01*
X2326786Y-296786D01*
X2341071Y-282500D01*
X2341071Y-311072D01*
X-42500Y-942500D02*
X-2500Y-982500D01*
X-2500Y-942500D02*
X-42500Y-982500D01*
X341071Y-798214D02*
X369643Y-798214D01*
X398214Y-812500D01*
X412500Y-826786D01*
X426786Y-855357D01*
X441071Y-912500D01*
X441071Y-983929D01*
X426786Y-1041071D01*
X412500Y-1069643D01*
X398214Y-1083929D01*
X369643Y-1098214D01*
X341071Y-1098214D01*
X312500Y-1083929D01*
X298214Y-1069643D01*
X283928Y-1041071D01*
X269643Y-983929D01*
X269643Y-912500D01*
X283928Y-855357D01*
X298214Y-826786D01*
X312500Y-812500D01*
X341071Y-798214D01*
X569643Y-1069643D02*
X583928Y-1083929D01*
X569643Y-1098214D01*
X555357Y-1083929D01*
X569643Y-1069643D01*
X569643Y-1098214D01*
X841071Y-898214D02*
X841071Y-1098214D01*
X769643Y-783929D02*
X698214Y-998214D01*
X883928Y-998214D01*
X1055357Y-798214D02*
X1083928Y-798214D01*
X1112500Y-812500D01*
X1126786Y-826786D01*
X1141071Y-855357D01*
X1155357Y-912500D01*
X1155357Y-983929D01*
X1141071Y-1041071D01*
X1126786Y-1069643D01*
X1112500Y-1083929D01*
X1083928Y-1098214D01*
X1055357Y-1098214D01*
X1026786Y-1083929D01*
X1012500Y-1069643D01*
X998214Y-1041071D01*
X983928Y-983929D01*
X983928Y-912500D01*
X998214Y-855357D01*
X1012500Y-826786D01*
X1026786Y-812500D01*
X1055357Y-798214D01*
X1283928Y-1098214D02*
X1283928Y-898214D01*
X1283928Y-926786D02*
X1298214Y-912500D01*
X1326786Y-898214D01*
X1369643Y-898214D01*
X1398214Y-912500D01*
X1412500Y-941071D01*
X1412500Y-1098214D01*
X1412500Y-941071D02*
X1426786Y-912500D01*
X1455357Y-898214D01*
X1498214Y-898214D01*
X1526786Y-912500D01*
X1541071Y-941071D01*
X1541071Y-1098214D01*
X1683928Y-1098214D02*
X1683928Y-898214D01*
X1683928Y-926786D02*
X1698214Y-912500D01*
X1726786Y-898214D01*
X1769643Y-898214D01*
X1798214Y-912500D01*
X1812500Y-941071D01*
X1812500Y-1098214D01*
X1812500Y-941071D02*
X1826786Y-912500D01*
X1855357Y-898214D01*
X1898214Y-898214D01*
X1926786Y-912500D01*
X1941071Y-941071D01*
X1941071Y-1098214D01*
X2526786Y-783929D02*
X2269643Y-1169643D01*
X2912500Y-798214D02*
X2941071Y-798214D01*
X2969643Y-812500D01*
X2983928Y-826786D01*
X2998214Y-855357D01*
X3012500Y-912500D01*
X3012500Y-983929D01*
X2998214Y-1041071D01*
X2983928Y-1069643D01*
X2969643Y-1083929D01*
X2941071Y-1098214D01*
X2912500Y-1098214D01*
X2883928Y-1083929D01*
X2869643Y-1069643D01*
X2855357Y-1041071D01*
X2841071Y-983929D01*
X2841071Y-912500D01*
X2855357Y-855357D01*
X2869643Y-826786D01*
X2883928Y-812500D01*
X2912500Y-798214D01*
X3141071Y-1069643D02*
X3155357Y-1083929D01*
X3141071Y-1098214D01*
X3126786Y-1083929D01*
X3141071Y-1069643D01*
X3141071Y-1098214D01*
X3341071Y-798214D02*
X3369643Y-798214D01*
X3398214Y-812500D01*
X3412500Y-826786D01*
X3426786Y-855357D01*
X3441071Y-912500D01*
X3441071Y-983929D01*
X3426786Y-1041071D01*
X3412500Y-1069643D01*
X3398214Y-1083929D01*
X3369643Y-1098214D01*
X3341071Y-1098214D01*
X3312500Y-1083929D01*
X3298214Y-1069643D01*
X3283928Y-1041071D01*
X3269643Y-983929D01*
X3269643Y-912500D01*
X3283928Y-855357D01*
X3298214Y-826786D01*
X3312500Y-812500D01*
X3341071Y-798214D01*
X3726786Y-1098214D02*
X3555357Y-1098214D01*
X3641071Y-1098214D02*
X3641071Y-798214D01*
X3612500Y-841071D01*
X3583928Y-869643D01*
X3555357Y-883929D01*
X3983928Y-798214D02*
X3926786Y-798214D01*
X3898214Y-812500D01*
X3883928Y-826786D01*
X3855357Y-869643D01*
X3841071Y-926786D01*
X3841071Y-1041071D01*
X3855357Y-1069643D01*
X3869643Y-1083929D01*
X3898214Y-1098214D01*
X3955357Y-1098214D01*
X3983928Y-1083929D01*
X3998214Y-1069643D01*
X4012500Y-1041071D01*
X4012500Y-969643D01*
X3998214Y-941071D01*
X3983928Y-926786D01*
X3955357Y-912500D01*
X3898214Y-912500D01*
X3869643Y-926786D01*
X3855357Y-941071D01*
X3841071Y-969643D01*
X4126786Y-798214D02*
X4126786Y-855357D01*
X4241071Y-798214D02*
X4241071Y-855357D01*
X4683928Y-1212500D02*
X4669643Y-1198214D01*
X4641071Y-1155357D01*
X4626786Y-1126786D01*
X4612500Y-1083929D01*
X4598214Y-1012500D01*
X4598214Y-955357D01*
X4612500Y-883929D01*
X4626786Y-841071D01*
X4641071Y-812500D01*
X4669643Y-769643D01*
X4683928Y-755357D01*
X4941071Y-798214D02*
X4798214Y-798214D01*
X4783928Y-941071D01*
X4798214Y-926786D01*
X4826786Y-912500D01*
X4898214Y-912500D01*
X4926786Y-926786D01*
X4941071Y-941071D01*
X4955357Y-969643D01*
X4955357Y-1041071D01*
X4941071Y-1069643D01*
X4926786Y-1083929D01*
X4898214Y-1098214D01*
X4826786Y-1098214D01*
X4798214Y-1083929D01*
X4783928Y-1069643D01*
X5241071Y-1098214D02*
X5069643Y-1098214D01*
X5155357Y-1098214D02*
X5155357Y-798214D01*
X5126786Y-841071D01*
X5098214Y-869643D01*
X5069643Y-883929D01*
X5598214Y-1098214D02*
X5598214Y-798214D01*
X5726786Y-1098214D02*
X5726786Y-941071D01*
X5712500Y-912500D01*
X5683928Y-898214D01*
X5641071Y-898214D01*
X5612500Y-912500D01*
X5598214Y-926786D01*
X5912500Y-1098214D02*
X5883928Y-1083929D01*
X5869643Y-1069643D01*
X5855357Y-1041071D01*
X5855357Y-955357D01*
X5869643Y-926786D01*
X5883928Y-912500D01*
X5912500Y-898214D01*
X5955357Y-898214D01*
X5983928Y-912500D01*
X5998214Y-926786D01*
X6012500Y-955357D01*
X6012500Y-1041071D01*
X5998214Y-1069643D01*
X5983928Y-1083929D01*
X5955357Y-1098214D01*
X5912500Y-1098214D01*
X6183928Y-1098214D02*
X6155357Y-1083929D01*
X6141071Y-1055357D01*
X6141071Y-798214D01*
X6412500Y-1083929D02*
X6383928Y-1098214D01*
X6326786Y-1098214D01*
X6298214Y-1083929D01*
X6283928Y-1055357D01*
X6283928Y-941071D01*
X6298214Y-912500D01*
X6326786Y-898214D01*
X6383928Y-898214D01*
X6412500Y-912500D01*
X6426786Y-941071D01*
X6426786Y-969643D01*
X6283928Y-998214D01*
X6541071Y-1083929D02*
X6569643Y-1098214D01*
X6626786Y-1098214D01*
X6655357Y-1083929D01*
X6669643Y-1055357D01*
X6669643Y-1041071D01*
X6655357Y-1012500D01*
X6626786Y-998214D01*
X6583928Y-998214D01*
X6555357Y-983929D01*
X6541071Y-955357D01*
X6541071Y-941071D01*
X6555357Y-912500D01*
X6583928Y-898214D01*
X6626786Y-898214D01*
X6655357Y-912500D01*
X6769643Y-1212500D02*
X6783928Y-1198214D01*
X6812500Y-1155357D01*
X6826786Y-1126786D01*
X6841071Y-1083929D01*
X6855357Y-1012500D01*
X6855357Y-955357D01*
X6841071Y-883929D01*
X6826786Y-841071D01*
X6812500Y-812500D01*
X6783928Y-769643D01*
X6769643Y-755357D01*
X-2500Y-1358500D02*
G75*
G03X-2500Y-1358500I-44450J0D01*
G01*
X341071Y-1194214D02*
X369643Y-1194214D01*
X398214Y-1208500D01*
X412500Y-1222786D01*
X426786Y-1251357D01*
X441071Y-1308500D01*
X441071Y-1379929D01*
X426786Y-1437071D01*
X412500Y-1465643D01*
X398214Y-1479929D01*
X369643Y-1494214D01*
X341071Y-1494214D01*
X312500Y-1479929D01*
X298214Y-1465643D01*
X283928Y-1437071D01*
X269643Y-1379929D01*
X269643Y-1308500D01*
X283928Y-1251357D01*
X298214Y-1222786D01*
X312500Y-1208500D01*
X341071Y-1194214D01*
X569643Y-1465643D02*
X583928Y-1479929D01*
X569643Y-1494214D01*
X555357Y-1479929D01*
X569643Y-1465643D01*
X569643Y-1494214D01*
X755357Y-1322786D02*
X726786Y-1308500D01*
X712500Y-1294214D01*
X698214Y-1265643D01*
X698214Y-1251357D01*
X712500Y-1222786D01*
X726786Y-1208500D01*
X755357Y-1194214D01*
X812500Y-1194214D01*
X841071Y-1208500D01*
X855357Y-1222786D01*
X869643Y-1251357D01*
X869643Y-1265643D01*
X855357Y-1294214D01*
X841071Y-1308500D01*
X812500Y-1322786D01*
X755357Y-1322786D01*
X726786Y-1337072D01*
X712500Y-1351357D01*
X698214Y-1379929D01*
X698214Y-1437071D01*
X712500Y-1465643D01*
X726786Y-1479929D01*
X755357Y-1494214D01*
X812500Y-1494214D01*
X841071Y-1479929D01*
X855357Y-1465643D01*
X869643Y-1437071D01*
X869643Y-1379929D01*
X855357Y-1351357D01*
X841071Y-1337072D01*
X812500Y-1322786D01*
X1012500Y-1494214D02*
X1069643Y-1494214D01*
X1098214Y-1479929D01*
X1112500Y-1465643D01*
X1141071Y-1422786D01*
X1155357Y-1365643D01*
X1155357Y-1251357D01*
X1141071Y-1222786D01*
X1126786Y-1208500D01*
X1098214Y-1194214D01*
X1041071Y-1194214D01*
X1012500Y-1208500D01*
X998214Y-1222786D01*
X983928Y-1251357D01*
X983928Y-1322786D01*
X998214Y-1351357D01*
X1012500Y-1365643D01*
X1041071Y-1379929D01*
X1098214Y-1379929D01*
X1126786Y-1365643D01*
X1141071Y-1351357D01*
X1155357Y-1322786D01*
X1283928Y-1494214D02*
X1283928Y-1294214D01*
X1283928Y-1322786D02*
X1298214Y-1308500D01*
X1326786Y-1294214D01*
X1369643Y-1294214D01*
X1398214Y-1308500D01*
X1412500Y-1337072D01*
X1412500Y-1494214D01*
X1412500Y-1337072D02*
X1426786Y-1308500D01*
X1455357Y-1294214D01*
X1498214Y-1294214D01*
X1526786Y-1308500D01*
X1541071Y-1337072D01*
X1541071Y-1494214D01*
X1683928Y-1494214D02*
X1683928Y-1294214D01*
X1683928Y-1322786D02*
X1698214Y-1308500D01*
X1726786Y-1294214D01*
X1769643Y-1294214D01*
X1798214Y-1308500D01*
X1812500Y-1337072D01*
X1812500Y-1494214D01*
X1812500Y-1337072D02*
X1826786Y-1308500D01*
X1855357Y-1294214D01*
X1898214Y-1294214D01*
X1926786Y-1308500D01*
X1941071Y-1337072D01*
X1941071Y-1494214D01*
X2526786Y-1179929D02*
X2269643Y-1565643D01*
X2912500Y-1194214D02*
X2941071Y-1194214D01*
X2969643Y-1208500D01*
X2983928Y-1222786D01*
X2998214Y-1251357D01*
X3012500Y-1308500D01*
X3012500Y-1379929D01*
X2998214Y-1437071D01*
X2983928Y-1465643D01*
X2969643Y-1479929D01*
X2941071Y-1494214D01*
X2912500Y-1494214D01*
X2883928Y-1479929D01*
X2869643Y-1465643D01*
X2855357Y-1437071D01*
X2841071Y-1379929D01*
X2841071Y-1308500D01*
X2855357Y-1251357D01*
X2869643Y-1222786D01*
X2883928Y-1208500D01*
X2912500Y-1194214D01*
X3141071Y-1465643D02*
X3155357Y-1479929D01*
X3141071Y-1494214D01*
X3126786Y-1479929D01*
X3141071Y-1465643D01*
X3141071Y-1494214D01*
X3341071Y-1194214D02*
X3369643Y-1194214D01*
X3398214Y-1208500D01*
X3412500Y-1222786D01*
X3426786Y-1251357D01*
X3441071Y-1308500D01*
X3441071Y-1379929D01*
X3426786Y-1437071D01*
X3412500Y-1465643D01*
X3398214Y-1479929D01*
X3369643Y-1494214D01*
X3341071Y-1494214D01*
X3312500Y-1479929D01*
X3298214Y-1465643D01*
X3283928Y-1437071D01*
X3269643Y-1379929D01*
X3269643Y-1308500D01*
X3283928Y-1251357D01*
X3298214Y-1222786D01*
X3312500Y-1208500D01*
X3341071Y-1194214D01*
X3541071Y-1194214D02*
X3726786Y-1194214D01*
X3626786Y-1308500D01*
X3669643Y-1308500D01*
X3698214Y-1322786D01*
X3712500Y-1337072D01*
X3726786Y-1365643D01*
X3726786Y-1437071D01*
X3712500Y-1465643D01*
X3698214Y-1479929D01*
X3669643Y-1494214D01*
X3583928Y-1494214D01*
X3555357Y-1479929D01*
X3541071Y-1465643D01*
X3998214Y-1194214D02*
X3855357Y-1194214D01*
X3841071Y-1337072D01*
X3855357Y-1322786D01*
X3883928Y-1308500D01*
X3955357Y-1308500D01*
X3983928Y-1322786D01*
X3998214Y-1337072D01*
X4012500Y-1365643D01*
X4012500Y-1437071D01*
X3998214Y-1465643D01*
X3983928Y-1479929D01*
X3955357Y-1494214D01*
X3883928Y-1494214D01*
X3855357Y-1479929D01*
X3841071Y-1465643D01*
X4126786Y-1194214D02*
X4126786Y-1251357D01*
X4241071Y-1194214D02*
X4241071Y-1251357D01*
X4683928Y-1608500D02*
X4669643Y-1594214D01*
X4641071Y-1551357D01*
X4626786Y-1522786D01*
X4612500Y-1479929D01*
X4598214Y-1408500D01*
X4598214Y-1351357D01*
X4612500Y-1279929D01*
X4626786Y-1237072D01*
X4641071Y-1208500D01*
X4669643Y-1165643D01*
X4683928Y-1151357D01*
X4955357Y-1494214D02*
X4783928Y-1494214D01*
X4869643Y-1494214D02*
X4869643Y-1194214D01*
X4841071Y-1237072D01*
X4812500Y-1265643D01*
X4783928Y-1279929D01*
X5055357Y-1194214D02*
X5241071Y-1194214D01*
X5141071Y-1308500D01*
X5183928Y-1308500D01*
X5212500Y-1322786D01*
X5226786Y-1337072D01*
X5241071Y-1365643D01*
X5241071Y-1437071D01*
X5226786Y-1465643D01*
X5212500Y-1479929D01*
X5183928Y-1494214D01*
X5098214Y-1494214D01*
X5069643Y-1479929D01*
X5055357Y-1465643D01*
X5598214Y-1494214D02*
X5598214Y-1194214D01*
X5726786Y-1494214D02*
X5726786Y-1337072D01*
X5712500Y-1308500D01*
X5683928Y-1294214D01*
X5641071Y-1294214D01*
X5612500Y-1308500D01*
X5598214Y-1322786D01*
X5912500Y-1494214D02*
X5883928Y-1479929D01*
X5869643Y-1465643D01*
X5855357Y-1437071D01*
X5855357Y-1351357D01*
X5869643Y-1322786D01*
X5883928Y-1308500D01*
X5912500Y-1294214D01*
X5955357Y-1294214D01*
X5983928Y-1308500D01*
X5998214Y-1322786D01*
X6012500Y-1351357D01*
X6012500Y-1437071D01*
X5998214Y-1465643D01*
X5983928Y-1479929D01*
X5955357Y-1494214D01*
X5912500Y-1494214D01*
X6183928Y-1494214D02*
X6155357Y-1479929D01*
X6141071Y-1451357D01*
X6141071Y-1194214D01*
X6412500Y-1479929D02*
X6383928Y-1494214D01*
X6326786Y-1494214D01*
X6298214Y-1479929D01*
X6283928Y-1451357D01*
X6283928Y-1337072D01*
X6298214Y-1308500D01*
X6326786Y-1294214D01*
X6383928Y-1294214D01*
X6412500Y-1308500D01*
X6426786Y-1337072D01*
X6426786Y-1365643D01*
X6283928Y-1394214D01*
X6541071Y-1479929D02*
X6569643Y-1494214D01*
X6626786Y-1494214D01*
X6655357Y-1479929D01*
X6669643Y-1451357D01*
X6669643Y-1437071D01*
X6655357Y-1408500D01*
X6626786Y-1394214D01*
X6583928Y-1394214D01*
X6555357Y-1379929D01*
X6541071Y-1351357D01*
X6541071Y-1337072D01*
X6555357Y-1308500D01*
X6583928Y-1294214D01*
X6626786Y-1294214D01*
X6655357Y-1308500D01*
X6769643Y-1608500D02*
X6783928Y-1594214D01*
X6812500Y-1551357D01*
X6826786Y-1522786D01*
X6841071Y-1479929D01*
X6855357Y-1408500D01*
X6855357Y-1351357D01*
X6841071Y-1279929D01*
X6826786Y-1237072D01*
X6812500Y-1208500D01*
X6783928Y-1165643D01*
X6769643Y-1151357D01*
X-52500Y-1704500D02*
X-52500Y-1804500D01*
X-102500Y-1754500D02*
X-2500Y-1754500D01*
X441071Y-1890214D02*
X269643Y-1890214D01*
X355357Y-1890214D02*
X355357Y-1590214D01*
X326786Y-1633071D01*
X298214Y-1661643D01*
X269643Y-1675929D01*
X569643Y-1861643D02*
X583928Y-1875929D01*
X569643Y-1890214D01*
X555357Y-1875929D01*
X569643Y-1861643D01*
X569643Y-1890214D01*
X769643Y-1590214D02*
X798214Y-1590214D01*
X826786Y-1604500D01*
X841071Y-1618786D01*
X855357Y-1647357D01*
X869643Y-1704500D01*
X869643Y-1775929D01*
X855357Y-1833071D01*
X841071Y-1861643D01*
X826786Y-1875929D01*
X798214Y-1890214D01*
X769643Y-1890214D01*
X741071Y-1875929D01*
X726786Y-1861643D01*
X712500Y-1833071D01*
X698214Y-1775929D01*
X698214Y-1704500D01*
X712500Y-1647357D01*
X726786Y-1618786D01*
X741071Y-1604500D01*
X769643Y-1590214D01*
X1055357Y-1590214D02*
X1083928Y-1590214D01*
X1112500Y-1604500D01*
X1126786Y-1618786D01*
X1141071Y-1647357D01*
X1155357Y-1704500D01*
X1155357Y-1775929D01*
X1141071Y-1833071D01*
X1126786Y-1861643D01*
X1112500Y-1875929D01*
X1083928Y-1890214D01*
X1055357Y-1890214D01*
X1026786Y-1875929D01*
X1012500Y-1861643D01*
X998214Y-1833071D01*
X983928Y-1775929D01*
X983928Y-1704500D01*
X998214Y-1647357D01*
X1012500Y-1618786D01*
X1026786Y-1604500D01*
X1055357Y-1590214D01*
X1283928Y-1890214D02*
X1283928Y-1690214D01*
X1283928Y-1718786D02*
X1298214Y-1704500D01*
X1326786Y-1690214D01*
X1369643Y-1690214D01*
X1398214Y-1704500D01*
X1412500Y-1733071D01*
X1412500Y-1890214D01*
X1412500Y-1733071D02*
X1426786Y-1704500D01*
X1455357Y-1690214D01*
X1498214Y-1690214D01*
X1526786Y-1704500D01*
X1541071Y-1733071D01*
X1541071Y-1890214D01*
X1683928Y-1890214D02*
X1683928Y-1690214D01*
X1683928Y-1718786D02*
X1698214Y-1704500D01*
X1726786Y-1690214D01*
X1769643Y-1690214D01*
X1798214Y-1704500D01*
X1812500Y-1733071D01*
X1812500Y-1890214D01*
X1812500Y-1733071D02*
X1826786Y-1704500D01*
X1855357Y-1690214D01*
X1898214Y-1690214D01*
X1926786Y-1704500D01*
X1941071Y-1733071D01*
X1941071Y-1890214D01*
X2526786Y-1575929D02*
X2269643Y-1961643D01*
X2912500Y-1590214D02*
X2941071Y-1590214D01*
X2969643Y-1604500D01*
X2983928Y-1618786D01*
X2998214Y-1647357D01*
X3012500Y-1704500D01*
X3012500Y-1775929D01*
X2998214Y-1833071D01*
X2983928Y-1861643D01*
X2969643Y-1875929D01*
X2941071Y-1890214D01*
X2912500Y-1890214D01*
X2883928Y-1875929D01*
X2869643Y-1861643D01*
X2855357Y-1833071D01*
X2841071Y-1775929D01*
X2841071Y-1704500D01*
X2855357Y-1647357D01*
X2869643Y-1618786D01*
X2883928Y-1604500D01*
X2912500Y-1590214D01*
X3141071Y-1861643D02*
X3155357Y-1875929D01*
X3141071Y-1890214D01*
X3126786Y-1875929D01*
X3141071Y-1861643D01*
X3141071Y-1890214D01*
X3341071Y-1590214D02*
X3369643Y-1590214D01*
X3398214Y-1604500D01*
X3412500Y-1618786D01*
X3426786Y-1647357D01*
X3441071Y-1704500D01*
X3441071Y-1775929D01*
X3426786Y-1833071D01*
X3412500Y-1861643D01*
X3398214Y-1875929D01*
X3369643Y-1890214D01*
X3341071Y-1890214D01*
X3312500Y-1875929D01*
X3298214Y-1861643D01*
X3283928Y-1833071D01*
X3269643Y-1775929D01*
X3269643Y-1704500D01*
X3283928Y-1647357D01*
X3298214Y-1618786D01*
X3312500Y-1604500D01*
X3341071Y-1590214D01*
X3541071Y-1590214D02*
X3726786Y-1590214D01*
X3626786Y-1704500D01*
X3669643Y-1704500D01*
X3698214Y-1718786D01*
X3712500Y-1733071D01*
X3726786Y-1761643D01*
X3726786Y-1833071D01*
X3712500Y-1861643D01*
X3698214Y-1875929D01*
X3669643Y-1890214D01*
X3583928Y-1890214D01*
X3555357Y-1875929D01*
X3541071Y-1861643D01*
X3869643Y-1890214D02*
X3926786Y-1890214D01*
X3955357Y-1875929D01*
X3969643Y-1861643D01*
X3998214Y-1818786D01*
X4012500Y-1761643D01*
X4012500Y-1647357D01*
X3998214Y-1618786D01*
X3983928Y-1604500D01*
X3955357Y-1590214D01*
X3898214Y-1590214D01*
X3869643Y-1604500D01*
X3855357Y-1618786D01*
X3841071Y-1647357D01*
X3841071Y-1718786D01*
X3855357Y-1747357D01*
X3869643Y-1761643D01*
X3898214Y-1775929D01*
X3955357Y-1775929D01*
X3983928Y-1761643D01*
X3998214Y-1747357D01*
X4012500Y-1718786D01*
X4126786Y-1590214D02*
X4126786Y-1647357D01*
X4241071Y-1590214D02*
X4241071Y-1647357D01*
X4683928Y-2004500D02*
X4669643Y-1990214D01*
X4641071Y-1947357D01*
X4626786Y-1918786D01*
X4612500Y-1875929D01*
X4598214Y-1804500D01*
X4598214Y-1747357D01*
X4612500Y-1675929D01*
X4626786Y-1633071D01*
X4641071Y-1604500D01*
X4669643Y-1561643D01*
X4683928Y-1547357D01*
X4955357Y-1890214D02*
X4783928Y-1890214D01*
X4869643Y-1890214D02*
X4869643Y-1590214D01*
X4841071Y-1633071D01*
X4812500Y-1661643D01*
X4783928Y-1675929D01*
X5141071Y-1590214D02*
X5169643Y-1590214D01*
X5198214Y-1604500D01*
X5212500Y-1618786D01*
X5226786Y-1647357D01*
X5241071Y-1704500D01*
X5241071Y-1775929D01*
X5226786Y-1833071D01*
X5212500Y-1861643D01*
X5198214Y-1875929D01*
X5169643Y-1890214D01*
X5141071Y-1890214D01*
X5112500Y-1875929D01*
X5098214Y-1861643D01*
X5083928Y-1833071D01*
X5069643Y-1775929D01*
X5069643Y-1704500D01*
X5083928Y-1647357D01*
X5098214Y-1618786D01*
X5112500Y-1604500D01*
X5141071Y-1590214D01*
X5598214Y-1890214D02*
X5598214Y-1590214D01*
X5726786Y-1890214D02*
X5726786Y-1733071D01*
X5712500Y-1704500D01*
X5683928Y-1690214D01*
X5641071Y-1690214D01*
X5612500Y-1704500D01*
X5598214Y-1718786D01*
X5912500Y-1890214D02*
X5883928Y-1875929D01*
X5869643Y-1861643D01*
X5855357Y-1833071D01*
X5855357Y-1747357D01*
X5869643Y-1718786D01*
X5883928Y-1704500D01*
X5912500Y-1690214D01*
X5955357Y-1690214D01*
X5983928Y-1704500D01*
X5998214Y-1718786D01*
X6012500Y-1747357D01*
X6012500Y-1833071D01*
X5998214Y-1861643D01*
X5983928Y-1875929D01*
X5955357Y-1890214D01*
X5912500Y-1890214D01*
X6183928Y-1890214D02*
X6155357Y-1875929D01*
X6141071Y-1847357D01*
X6141071Y-1590214D01*
X6412500Y-1875929D02*
X6383928Y-1890214D01*
X6326786Y-1890214D01*
X6298214Y-1875929D01*
X6283928Y-1847357D01*
X6283928Y-1733071D01*
X6298214Y-1704500D01*
X6326786Y-1690214D01*
X6383928Y-1690214D01*
X6412500Y-1704500D01*
X6426786Y-1733071D01*
X6426786Y-1761643D01*
X6283928Y-1790214D01*
X6541071Y-1875929D02*
X6569643Y-1890214D01*
X6626786Y-1890214D01*
X6655357Y-1875929D01*
X6669643Y-1847357D01*
X6669643Y-1833071D01*
X6655357Y-1804500D01*
X6626786Y-1790214D01*
X6583928Y-1790214D01*
X6555357Y-1775929D01*
X6541071Y-1747357D01*
X6541071Y-1733071D01*
X6555357Y-1704500D01*
X6583928Y-1690214D01*
X6626786Y-1690214D01*
X6655357Y-1704500D01*
X6769643Y-2004500D02*
X6783928Y-1990214D01*
X6812500Y-1947357D01*
X6826786Y-1918786D01*
X6841071Y-1875929D01*
X6855357Y-1804500D01*
X6855357Y-1747357D01*
X6841071Y-1675929D01*
X6826786Y-1633071D01*
X6812500Y-1604500D01*
X6783928Y-1561643D01*
X6769643Y-1547357D01*
X-19239Y-2190912D02*
X-19239Y-2110089D01*
X-100062Y-2110089D01*
X-100062Y-2190912D01*
X-19239Y-2190912D01*
X441071Y-2286214D02*
X269643Y-2286214D01*
X355357Y-2286214D02*
X355357Y-1986214D01*
X326786Y-2029071D01*
X298214Y-2057643D01*
X269643Y-2071929D01*
X569643Y-2257643D02*
X583928Y-2271929D01*
X569643Y-2286214D01*
X555357Y-2271929D01*
X569643Y-2257643D01*
X569643Y-2286214D01*
X869643Y-2286214D02*
X698214Y-2286214D01*
X783928Y-2286214D02*
X783928Y-1986214D01*
X755357Y-2029071D01*
X726786Y-2057643D01*
X698214Y-2071929D01*
X1126786Y-2086214D02*
X1126786Y-2286214D01*
X1055357Y-1971929D02*
X983928Y-2186214D01*
X1169643Y-2186214D01*
X1283928Y-2286214D02*
X1283928Y-2086214D01*
X1283928Y-2114786D02*
X1298214Y-2100500D01*
X1326786Y-2086214D01*
X1369643Y-2086214D01*
X1398214Y-2100500D01*
X1412500Y-2129072D01*
X1412500Y-2286214D01*
X1412500Y-2129072D02*
X1426786Y-2100500D01*
X1455357Y-2086214D01*
X1498214Y-2086214D01*
X1526786Y-2100500D01*
X1541071Y-2129072D01*
X1541071Y-2286214D01*
X1683928Y-2286214D02*
X1683928Y-2086214D01*
X1683928Y-2114786D02*
X1698214Y-2100500D01*
X1726786Y-2086214D01*
X1769643Y-2086214D01*
X1798214Y-2100500D01*
X1812500Y-2129072D01*
X1812500Y-2286214D01*
X1812500Y-2129072D02*
X1826786Y-2100500D01*
X1855357Y-2086214D01*
X1898214Y-2086214D01*
X1926786Y-2100500D01*
X1941071Y-2129072D01*
X1941071Y-2286214D01*
X2526786Y-1971929D02*
X2269643Y-2357643D01*
X2912500Y-1986214D02*
X2941071Y-1986214D01*
X2969643Y-2000500D01*
X2983928Y-2014786D01*
X2998214Y-2043357D01*
X3012500Y-2100500D01*
X3012500Y-2171929D01*
X2998214Y-2229072D01*
X2983928Y-2257643D01*
X2969643Y-2271929D01*
X2941071Y-2286214D01*
X2912500Y-2286214D01*
X2883928Y-2271929D01*
X2869643Y-2257643D01*
X2855357Y-2229072D01*
X2841071Y-2171929D01*
X2841071Y-2100500D01*
X2855357Y-2043357D01*
X2869643Y-2014786D01*
X2883928Y-2000500D01*
X2912500Y-1986214D01*
X3141071Y-2257643D02*
X3155357Y-2271929D01*
X3141071Y-2286214D01*
X3126786Y-2271929D01*
X3141071Y-2257643D01*
X3141071Y-2286214D01*
X3341071Y-1986214D02*
X3369643Y-1986214D01*
X3398214Y-2000500D01*
X3412500Y-2014786D01*
X3426786Y-2043357D01*
X3441071Y-2100500D01*
X3441071Y-2171929D01*
X3426786Y-2229072D01*
X3412500Y-2257643D01*
X3398214Y-2271929D01*
X3369643Y-2286214D01*
X3341071Y-2286214D01*
X3312500Y-2271929D01*
X3298214Y-2257643D01*
X3283928Y-2229072D01*
X3269643Y-2171929D01*
X3269643Y-2100500D01*
X3283928Y-2043357D01*
X3298214Y-2014786D01*
X3312500Y-2000500D01*
X3341071Y-1986214D01*
X3698214Y-2086214D02*
X3698214Y-2286214D01*
X3626786Y-1971929D02*
X3555357Y-2186214D01*
X3741071Y-2186214D01*
X3998214Y-1986214D02*
X3855357Y-1986214D01*
X3841071Y-2129072D01*
X3855357Y-2114786D01*
X3883928Y-2100500D01*
X3955357Y-2100500D01*
X3983928Y-2114786D01*
X3998214Y-2129072D01*
X4012500Y-2157643D01*
X4012500Y-2229072D01*
X3998214Y-2257643D01*
X3983928Y-2271929D01*
X3955357Y-2286214D01*
X3883928Y-2286214D01*
X3855357Y-2271929D01*
X3841071Y-2257643D01*
X4126786Y-1986214D02*
X4126786Y-2043357D01*
X4241071Y-1986214D02*
X4241071Y-2043357D01*
X4683928Y-2400500D02*
X4669643Y-2386214D01*
X4641071Y-2343357D01*
X4626786Y-2314786D01*
X4612500Y-2271929D01*
X4598214Y-2200500D01*
X4598214Y-2143357D01*
X4612500Y-2071929D01*
X4626786Y-2029071D01*
X4641071Y-2000500D01*
X4669643Y-1957643D01*
X4683928Y-1943357D01*
X4841071Y-2114786D02*
X4812500Y-2100500D01*
X4798214Y-2086214D01*
X4783928Y-2057643D01*
X4783928Y-2043357D01*
X4798214Y-2014786D01*
X4812500Y-2000500D01*
X4841071Y-1986214D01*
X4898214Y-1986214D01*
X4926786Y-2000500D01*
X4941071Y-2014786D01*
X4955357Y-2043357D01*
X4955357Y-2057643D01*
X4941071Y-2086214D01*
X4926786Y-2100500D01*
X4898214Y-2114786D01*
X4841071Y-2114786D01*
X4812500Y-2129072D01*
X4798214Y-2143357D01*
X4783928Y-2171929D01*
X4783928Y-2229072D01*
X4798214Y-2257643D01*
X4812500Y-2271929D01*
X4841071Y-2286214D01*
X4898214Y-2286214D01*
X4926786Y-2271929D01*
X4941071Y-2257643D01*
X4955357Y-2229072D01*
X4955357Y-2171929D01*
X4941071Y-2143357D01*
X4926786Y-2129072D01*
X4898214Y-2114786D01*
X5312500Y-2286214D02*
X5312500Y-1986214D01*
X5441071Y-2286214D02*
X5441071Y-2129072D01*
X5426786Y-2100500D01*
X5398214Y-2086214D01*
X5355357Y-2086214D01*
X5326786Y-2100500D01*
X5312500Y-2114786D01*
X5626786Y-2286214D02*
X5598214Y-2271929D01*
X5583928Y-2257643D01*
X5569643Y-2229072D01*
X5569643Y-2143357D01*
X5583928Y-2114786D01*
X5598214Y-2100500D01*
X5626786Y-2086214D01*
X5669643Y-2086214D01*
X5698214Y-2100500D01*
X5712500Y-2114786D01*
X5726786Y-2143357D01*
X5726786Y-2229072D01*
X5712500Y-2257643D01*
X5698214Y-2271929D01*
X5669643Y-2286214D01*
X5626786Y-2286214D01*
X5898214Y-2286214D02*
X5869643Y-2271929D01*
X5855357Y-2243357D01*
X5855357Y-1986214D01*
X6126786Y-2271929D02*
X6098214Y-2286214D01*
X6041071Y-2286214D01*
X6012500Y-2271929D01*
X5998214Y-2243357D01*
X5998214Y-2129072D01*
X6012500Y-2100500D01*
X6041071Y-2086214D01*
X6098214Y-2086214D01*
X6126786Y-2100500D01*
X6141071Y-2129072D01*
X6141071Y-2157643D01*
X5998214Y-2186214D01*
X6255357Y-2271929D02*
X6283928Y-2286214D01*
X6341071Y-2286214D01*
X6369643Y-2271929D01*
X6383928Y-2243357D01*
X6383928Y-2229072D01*
X6369643Y-2200500D01*
X6341071Y-2186214D01*
X6298214Y-2186214D01*
X6269643Y-2171929D01*
X6255357Y-2143357D01*
X6255357Y-2129072D01*
X6269643Y-2100500D01*
X6298214Y-2086214D01*
X6341071Y-2086214D01*
X6369643Y-2100500D01*
X6483928Y-2400500D02*
X6498214Y-2386214D01*
X6526786Y-2343357D01*
X6541071Y-2314786D01*
X6555357Y-2271929D01*
X6569643Y-2200500D01*
X6569643Y-2143357D01*
X6555357Y-2071929D01*
X6541071Y-2029071D01*
X6526786Y-2000500D01*
X6498214Y-1957643D01*
X6483928Y-1943357D01*
X-62500Y-2606500D02*
X-2500Y-2546500D01*
X-62500Y-2486500D01*
X-122500Y-2546500D01*
X-62500Y-2606500D01*
X441071Y-2682214D02*
X269643Y-2682214D01*
X355357Y-2682214D02*
X355357Y-2382214D01*
X326786Y-2425072D01*
X298214Y-2453643D01*
X269643Y-2467929D01*
X569643Y-2653643D02*
X583928Y-2667929D01*
X569643Y-2682214D01*
X555357Y-2667929D01*
X569643Y-2653643D01*
X569643Y-2682214D01*
X698214Y-2410786D02*
X712500Y-2396500D01*
X741071Y-2382214D01*
X812500Y-2382214D01*
X841071Y-2396500D01*
X855357Y-2410786D01*
X869643Y-2439357D01*
X869643Y-2467929D01*
X855357Y-2510786D01*
X683928Y-2682214D01*
X869643Y-2682214D01*
X1055357Y-2382214D02*
X1083928Y-2382214D01*
X1112500Y-2396500D01*
X1126786Y-2410786D01*
X1141071Y-2439357D01*
X1155357Y-2496500D01*
X1155357Y-2567929D01*
X1141071Y-2625072D01*
X1126786Y-2653643D01*
X1112500Y-2667929D01*
X1083928Y-2682214D01*
X1055357Y-2682214D01*
X1026786Y-2667929D01*
X1012500Y-2653643D01*
X998214Y-2625072D01*
X983928Y-2567929D01*
X983928Y-2496500D01*
X998214Y-2439357D01*
X1012500Y-2410786D01*
X1026786Y-2396500D01*
X1055357Y-2382214D01*
X1283928Y-2682214D02*
X1283928Y-2482214D01*
X1283928Y-2510786D02*
X1298214Y-2496500D01*
X1326786Y-2482214D01*
X1369643Y-2482214D01*
X1398214Y-2496500D01*
X1412500Y-2525072D01*
X1412500Y-2682214D01*
X1412500Y-2525072D02*
X1426786Y-2496500D01*
X1455357Y-2482214D01*
X1498214Y-2482214D01*
X1526786Y-2496500D01*
X1541071Y-2525072D01*
X1541071Y-2682214D01*
X1683928Y-2682214D02*
X1683928Y-2482214D01*
X1683928Y-2510786D02*
X1698214Y-2496500D01*
X1726786Y-2482214D01*
X1769643Y-2482214D01*
X1798214Y-2496500D01*
X1812500Y-2525072D01*
X1812500Y-2682214D01*
X1812500Y-2525072D02*
X1826786Y-2496500D01*
X1855357Y-2482214D01*
X1898214Y-2482214D01*
X1926786Y-2496500D01*
X1941071Y-2525072D01*
X1941071Y-2682214D01*
X2526786Y-2367929D02*
X2269643Y-2753643D01*
X2912500Y-2382214D02*
X2941071Y-2382214D01*
X2969643Y-2396500D01*
X2983928Y-2410786D01*
X2998214Y-2439357D01*
X3012500Y-2496500D01*
X3012500Y-2567929D01*
X2998214Y-2625072D01*
X2983928Y-2653643D01*
X2969643Y-2667929D01*
X2941071Y-2682214D01*
X2912500Y-2682214D01*
X2883928Y-2667929D01*
X2869643Y-2653643D01*
X2855357Y-2625072D01*
X2841071Y-2567929D01*
X2841071Y-2496500D01*
X2855357Y-2439357D01*
X2869643Y-2410786D01*
X2883928Y-2396500D01*
X2912500Y-2382214D01*
X3141071Y-2653643D02*
X3155357Y-2667929D01*
X3141071Y-2682214D01*
X3126786Y-2667929D01*
X3141071Y-2653643D01*
X3141071Y-2682214D01*
X3341071Y-2382214D02*
X3369643Y-2382214D01*
X3398214Y-2396500D01*
X3412500Y-2410786D01*
X3426786Y-2439357D01*
X3441071Y-2496500D01*
X3441071Y-2567929D01*
X3426786Y-2625072D01*
X3412500Y-2653643D01*
X3398214Y-2667929D01*
X3369643Y-2682214D01*
X3341071Y-2682214D01*
X3312500Y-2667929D01*
X3298214Y-2653643D01*
X3283928Y-2625072D01*
X3269643Y-2567929D01*
X3269643Y-2496500D01*
X3283928Y-2439357D01*
X3298214Y-2410786D01*
X3312500Y-2396500D01*
X3341071Y-2382214D01*
X3698214Y-2482214D02*
X3698214Y-2682214D01*
X3626786Y-2367929D02*
X3555357Y-2582214D01*
X3741071Y-2582214D01*
X3826786Y-2382214D02*
X4026786Y-2382214D01*
X3898214Y-2682214D01*
X4126786Y-2382214D02*
X4126786Y-2439357D01*
X4241071Y-2382214D02*
X4241071Y-2439357D01*
X4683928Y-2796500D02*
X4669643Y-2782214D01*
X4641071Y-2739357D01*
X4626786Y-2710786D01*
X4612500Y-2667929D01*
X4598214Y-2596500D01*
X4598214Y-2539357D01*
X4612500Y-2467929D01*
X4626786Y-2425072D01*
X4641071Y-2396500D01*
X4669643Y-2353643D01*
X4683928Y-2339357D01*
X4783928Y-2410786D02*
X4798214Y-2396500D01*
X4826786Y-2382214D01*
X4898214Y-2382214D01*
X4926786Y-2396500D01*
X4941071Y-2410786D01*
X4955357Y-2439357D01*
X4955357Y-2467929D01*
X4941071Y-2510786D01*
X4769643Y-2682214D01*
X4955357Y-2682214D01*
X5212500Y-2482214D02*
X5212500Y-2682214D01*
X5141071Y-2367929D02*
X5069643Y-2582214D01*
X5255357Y-2582214D01*
X5598214Y-2682214D02*
X5598214Y-2382214D01*
X5726786Y-2682214D02*
X5726786Y-2525072D01*
X5712500Y-2496500D01*
X5683928Y-2482214D01*
X5641071Y-2482214D01*
X5612500Y-2496500D01*
X5598214Y-2510786D01*
X5912500Y-2682214D02*
X5883928Y-2667929D01*
X5869643Y-2653643D01*
X5855357Y-2625072D01*
X5855357Y-2539357D01*
X5869643Y-2510786D01*
X5883928Y-2496500D01*
X5912500Y-2482214D01*
X5955357Y-2482214D01*
X5983928Y-2496500D01*
X5998214Y-2510786D01*
X6012500Y-2539357D01*
X6012500Y-2625072D01*
X5998214Y-2653643D01*
X5983928Y-2667929D01*
X5955357Y-2682214D01*
X5912500Y-2682214D01*
X6183928Y-2682214D02*
X6155357Y-2667929D01*
X6141071Y-2639357D01*
X6141071Y-2382214D01*
X6412500Y-2667929D02*
X6383928Y-2682214D01*
X6326786Y-2682214D01*
X6298214Y-2667929D01*
X6283928Y-2639357D01*
X6283928Y-2525072D01*
X6298214Y-2496500D01*
X6326786Y-2482214D01*
X6383928Y-2482214D01*
X6412500Y-2496500D01*
X6426786Y-2525072D01*
X6426786Y-2553643D01*
X6283928Y-2582214D01*
X6541071Y-2667929D02*
X6569643Y-2682214D01*
X6626786Y-2682214D01*
X6655357Y-2667929D01*
X6669643Y-2639357D01*
X6669643Y-2625072D01*
X6655357Y-2596500D01*
X6626786Y-2582214D01*
X6583928Y-2582214D01*
X6555357Y-2567929D01*
X6541071Y-2539357D01*
X6541071Y-2525072D01*
X6555357Y-2496500D01*
X6583928Y-2482214D01*
X6626786Y-2482214D01*
X6655357Y-2496500D01*
X6769643Y-2796500D02*
X6783928Y-2782214D01*
X6812500Y-2739357D01*
X6826786Y-2710786D01*
X6841071Y-2667929D01*
X6855357Y-2596500D01*
X6855357Y-2539357D01*
X6841071Y-2467929D01*
X6826786Y-2425072D01*
X6812500Y-2396500D01*
X6783928Y-2353643D01*
X6769643Y-2339357D01*
M02*
