G04 #@! TF.GenerationSoftware,KiCad,Pcbnew,(5.1.4-0-10_14)*
G04 #@! TF.CreationDate,2019-11-18T15:59:10-08:00*
G04 #@! TF.ProjectId,DS8,4453382e-6b69-4636-9164-5f7063625858,rev?*
G04 #@! TF.SameCoordinates,Original*
G04 #@! TF.FileFunction,Copper,L1,Top*
G04 #@! TF.FilePolarity,Positive*
%FSLAX46Y46*%
G04 Gerber Fmt 4.6, Leading zero omitted, Abs format (unit mm)*
G04 Created by KiCad (PCBNEW (5.1.4-0-10_14)) date 2019-11-18 15:59:10*
%MOMM*%
%LPD*%
G04 APERTURE LIST*
%ADD10C,1.651000*%
%ADD11R,2.540000X2.540000*%
%ADD12R,0.400000X0.650000*%
%ADD13C,2.286000*%
%ADD14R,1.500000X3.300000*%
%ADD15R,1.500000X1.200000*%
%ADD16R,1.450000X0.450000*%
%ADD17R,0.450000X1.450000*%
%ADD18R,1.500000X0.600000*%
%ADD19C,1.930400*%
%ADD20R,1.000000X1.000000*%
%ADD21O,1.700000X1.700000*%
%ADD22R,1.200000X0.900000*%
%ADD23R,0.500000X0.500000*%
%ADD24R,0.700000X1.300000*%
%ADD25R,3.000000X1.600000*%
%ADD26R,1.300000X0.700000*%
%ADD27C,0.800000*%
%ADD28C,0.250000*%
%ADD29C,0.300000*%
G04 APERTURE END LIST*
D10*
X48930000Y29830000D03*
X43430000Y27500000D03*
D11*
X13930000Y70440000D03*
X17450000Y70450000D03*
X5040000Y76090000D03*
X8480000Y76090000D03*
X36270000Y83460000D03*
X32730000Y83460000D03*
X54730000Y105860000D03*
X58310000Y105880000D03*
D10*
X19780000Y89870000D03*
D12*
X21020000Y25790000D03*
X22320000Y25790000D03*
X21670000Y27690000D03*
X21670000Y25790000D03*
X22320000Y27690000D03*
X21020000Y27690000D03*
X37360000Y52570000D03*
X36060000Y52570000D03*
X36710000Y50670000D03*
X36710000Y52570000D03*
X36060000Y50670000D03*
X37360000Y50670000D03*
D10*
X7620000Y94742000D03*
X5080000Y94742000D03*
X2540000Y94742000D03*
D13*
X3890000Y40132000D03*
X8890000Y40132000D03*
X13890000Y40132000D03*
D10*
X6350000Y25654000D03*
X8890000Y25654000D03*
X11430000Y25654000D03*
D14*
X16128000Y89788000D03*
D15*
X9728000Y87588000D03*
X9728000Y89788000D03*
X9728000Y92088000D03*
D16*
X22296000Y32827000D03*
X22296000Y32177000D03*
X22296000Y31527000D03*
X22296000Y30877000D03*
X16396000Y30877000D03*
X16396000Y31527000D03*
X16396000Y32177000D03*
X16396000Y32827000D03*
D17*
X32485000Y79410000D03*
X33135000Y79410000D03*
X33785000Y79410000D03*
X34435000Y79410000D03*
X34435000Y73510000D03*
X33785000Y73510000D03*
X33135000Y73510000D03*
X32485000Y73510000D03*
D16*
X36182000Y56683000D03*
X36182000Y56033000D03*
X36182000Y55383000D03*
X36182000Y54733000D03*
X30282000Y54733000D03*
X30282000Y55383000D03*
X30282000Y56033000D03*
X30282000Y56683000D03*
X36124000Y48483000D03*
X36124000Y47833000D03*
X36124000Y47183000D03*
X36124000Y46533000D03*
X30224000Y46533000D03*
X30224000Y47183000D03*
X30224000Y47833000D03*
X30224000Y48483000D03*
D17*
X57633000Y100162000D03*
X58283000Y100162000D03*
X58933000Y100162000D03*
X59583000Y100162000D03*
X59583000Y94262000D03*
X58933000Y94262000D03*
X58283000Y94262000D03*
X57633000Y94262000D03*
D18*
X15910000Y56515000D03*
X15910000Y55245000D03*
X15910000Y53975000D03*
X15910000Y52705000D03*
X15910000Y51435000D03*
X15910000Y50165000D03*
X15910000Y48895000D03*
X15910000Y47625000D03*
X10510000Y47625000D03*
X10510000Y48895000D03*
X10510000Y50165000D03*
X10510000Y51435000D03*
X10510000Y52705000D03*
X10510000Y53975000D03*
X10510000Y55245000D03*
X10510000Y56515000D03*
D19*
X56896000Y27482800D03*
X56896000Y29895800D03*
X56896000Y18923000D03*
D13*
X51896000Y40132000D03*
X56896000Y40132000D03*
X61896000Y40132000D03*
X51896000Y88392000D03*
X56896000Y88392000D03*
X61896000Y88392000D03*
D20*
X39660000Y54680000D03*
X37960000Y54680000D03*
X37960000Y56230000D03*
X37960000Y57930000D03*
X32678000Y34798000D03*
X34378000Y34798000D03*
X37810000Y36450000D03*
X37810000Y34750000D03*
X32790000Y43080000D03*
X31090000Y43080000D03*
X27460000Y35070000D03*
X27460000Y36770000D03*
X30050000Y44830000D03*
X28350000Y44830000D03*
X31590000Y44820000D03*
X33290000Y44820000D03*
X28390000Y48910000D03*
X28390000Y47210000D03*
X34860000Y44750000D03*
X34860000Y43050000D03*
X42760000Y83450000D03*
X42760000Y81750000D03*
X9220000Y59760000D03*
X7520000Y59760000D03*
X27080000Y51300000D03*
X25380000Y51300000D03*
X36420000Y44770000D03*
X36420000Y43070000D03*
X19496000Y29154000D03*
X21196000Y29154000D03*
X17894000Y27630000D03*
X16194000Y27630000D03*
X16194000Y29154000D03*
X17894000Y29154000D03*
X40150000Y46800000D03*
X40150000Y45100000D03*
X28430000Y56740000D03*
X28430000Y58440000D03*
X28430000Y53500000D03*
X28430000Y55200000D03*
X52440000Y7850000D03*
X50740000Y7850000D03*
X12878000Y31134000D03*
X14578000Y31134000D03*
X4240000Y59760000D03*
X5940000Y59760000D03*
X19512000Y34646000D03*
X21212000Y34646000D03*
X30060000Y58430000D03*
X31760000Y58430000D03*
X12980000Y32752000D03*
X12980000Y34452000D03*
X57260000Y43620000D03*
X55560000Y43620000D03*
X31860000Y53010000D03*
X31860000Y51310000D03*
X54290000Y94750000D03*
X54290000Y93050000D03*
X6820000Y54310000D03*
X8520000Y54310000D03*
X3080000Y11550000D03*
X3080000Y9850000D03*
X35500000Y71670000D03*
X33800000Y71670000D03*
X5430000Y52740000D03*
X7130000Y52740000D03*
X55850000Y94760000D03*
X55850000Y93060000D03*
X30760000Y73310000D03*
X30760000Y75010000D03*
X58610000Y69140000D03*
X58610000Y70840000D03*
X52700000Y98610000D03*
X51000000Y98610000D03*
X33800000Y70110000D03*
X32100000Y70110000D03*
X8670000Y52730000D03*
X8670000Y51030000D03*
X12260000Y45420000D03*
X13960000Y45420000D03*
X32250000Y71690000D03*
X30550000Y71690000D03*
D13*
X27766000Y40132000D03*
X32766000Y40132000D03*
X37766000Y40132000D03*
D21*
X17272000Y105664000D03*
X19812000Y105664000D03*
X17272000Y103124000D03*
X19812000Y103124000D03*
X17272000Y100584000D03*
X19812000Y100584000D03*
X17272000Y98044000D03*
X19812000Y98044000D03*
X17272000Y95504000D03*
X19812000Y95504000D03*
D19*
X8890000Y12006800D03*
X8890000Y14419800D03*
X8890000Y3447000D03*
D13*
X3890000Y64262000D03*
X8890000Y64262000D03*
X13890000Y64262000D03*
X27766000Y64262000D03*
X32766000Y64262000D03*
X37766000Y64262000D03*
X27766000Y88392000D03*
X32766000Y88392000D03*
X37766000Y88392000D03*
X51896000Y64262000D03*
X56896000Y64262000D03*
X61896000Y64262000D03*
D19*
X10718800Y104394000D03*
X13131800Y104394000D03*
X2159000Y104394000D03*
D22*
X5842000Y100710000D03*
X5842000Y97410000D03*
D23*
X52930000Y96770000D03*
X50730000Y96770000D03*
X61670000Y95860000D03*
X61670000Y98060000D03*
D19*
X56896000Y12006800D03*
X56896000Y14419800D03*
X56896000Y3447000D03*
D20*
X55880000Y102040000D03*
X55880000Y100340000D03*
X40080000Y48640000D03*
X38380000Y48640000D03*
X24190000Y31020000D03*
X24190000Y32720000D03*
X30760000Y77960000D03*
X30760000Y79660000D03*
X39560000Y56180000D03*
X39560000Y57880000D03*
D24*
X8050000Y89800000D03*
X6150000Y89800000D03*
D20*
X6210000Y87580000D03*
X7910000Y87580000D03*
X17940000Y48560000D03*
X17940000Y50260000D03*
D25*
X13122000Y99568000D03*
X8722000Y99568000D03*
D20*
X19470000Y25870000D03*
X19470000Y27570000D03*
D24*
X28570000Y51320000D03*
X30470000Y51320000D03*
D20*
X38570000Y45110000D03*
X38570000Y46810000D03*
X14620000Y29150000D03*
X12920000Y29150000D03*
X16210000Y34646000D03*
X17910000Y34646000D03*
X6360000Y21070000D03*
X6360000Y22770000D03*
X11370000Y21010000D03*
X11370000Y22710000D03*
X14550000Y32742000D03*
X14550000Y34442000D03*
D26*
X7690000Y56340000D03*
X7690000Y58240000D03*
D20*
X36170000Y73270000D03*
X36170000Y74970000D03*
D24*
X52060000Y36430000D03*
X53960000Y36430000D03*
D26*
X2980000Y13510000D03*
X2980000Y15410000D03*
X60340000Y70990000D03*
X60340000Y69090000D03*
D27*
X36168000Y34798000D03*
X30310000Y53710000D03*
X38910000Y53180000D03*
X40310000Y49850000D03*
X55580000Y36390000D03*
X57100000Y102040000D03*
X59740000Y92790000D03*
X54700000Y95850000D03*
X36940000Y71790000D03*
X33450000Y76990000D03*
X18430000Y32190000D03*
X33390000Y50100000D03*
X25470000Y30920000D03*
X18540000Y36790000D03*
X12260000Y46620000D03*
X6210000Y86140000D03*
X32610000Y46590000D03*
X25200000Y48330000D03*
X33620000Y74970000D03*
X16190000Y26320000D03*
X23250000Y25709998D03*
X18240000Y25960000D03*
X22300000Y29120000D03*
X11690000Y89790000D03*
X29230000Y79590000D03*
X54430000Y100440000D03*
X24160000Y34230000D03*
X32110000Y68890000D03*
X38520000Y49690000D03*
X39700000Y59130000D03*
X22830000Y53610000D03*
X21240000Y62089988D03*
X15030000Y59470000D03*
X11520000Y31210000D03*
X5460000Y54260000D03*
X21930000Y51700000D03*
X27080000Y53500000D03*
X34650000Y55960000D03*
X30190000Y42210000D03*
X31570000Y47180000D03*
X49370000Y45580000D03*
X45020000Y45660000D03*
X45020000Y60000000D03*
X43650000Y67890000D03*
X45020000Y61580000D03*
X37650000Y42970000D03*
X27507660Y48632340D03*
X24000000Y57990000D03*
X23850000Y38300000D03*
X24990000Y56270000D03*
X25280000Y49870000D03*
D28*
X60190000Y70840000D02*
X60340000Y70990000D01*
X58610000Y70840000D02*
X60190000Y70840000D01*
X61670000Y98560000D02*
X61670000Y98060000D01*
X60068000Y100162000D02*
X61670000Y98560000D01*
X59583000Y100162000D02*
X60068000Y100162000D01*
X62170000Y98060000D02*
X61670000Y98060000D01*
X59620000Y90440000D02*
X63170000Y93990000D01*
X63170000Y97060000D02*
X62170000Y98060000D01*
X60340000Y70990000D02*
X59620000Y71710000D01*
X63170000Y93990000D02*
X63170000Y97060000D01*
X59620000Y71710000D02*
X59620000Y90440000D01*
D29*
X39530000Y54810000D02*
X39660000Y54680000D01*
X39530000Y56230000D02*
X39530000Y54810000D01*
X24047000Y30877000D02*
X24190000Y31020000D01*
X22296000Y30877000D02*
X24047000Y30877000D01*
X12260000Y46170000D02*
X12260000Y45420000D01*
X12260000Y48865000D02*
X12260000Y46170000D01*
X10960000Y50165000D02*
X12260000Y48865000D01*
X10510000Y50165000D02*
X10960000Y50165000D01*
X30224000Y45004000D02*
X30050000Y44830000D01*
X30224000Y46533000D02*
X30224000Y45004000D01*
X30060000Y44820000D02*
X30050000Y44830000D01*
X31590000Y44820000D02*
X30060000Y44820000D01*
X16256000Y99568000D02*
X17272000Y100584000D01*
X13122000Y99568000D02*
X16256000Y99568000D01*
X17272000Y100584000D02*
X19812000Y100584000D01*
X19812000Y103124000D02*
X17272000Y103124000D01*
X18474081Y98044000D02*
X19812000Y98044000D01*
X17272000Y98044000D02*
X18474081Y98044000D01*
X17272000Y99381919D02*
X17272000Y98044000D01*
X17272000Y100584000D02*
X17272000Y99381919D01*
X17272000Y101921919D02*
X17272000Y100584000D01*
X17272000Y103124000D02*
X17272000Y101921919D01*
X19812000Y103124000D02*
X19812000Y100584000D01*
X19812000Y98044000D02*
X19812000Y100584000D01*
X14401800Y103124000D02*
X17272000Y103124000D01*
X13131800Y104394000D02*
X14401800Y103124000D01*
X9728000Y92088000D02*
X9728000Y93388000D01*
X13122000Y96782000D02*
X13122000Y99568000D01*
X9728000Y93388000D02*
X13122000Y96782000D01*
X6150000Y89800000D02*
X6150000Y91050000D01*
X7188000Y92088000D02*
X9728000Y92088000D01*
X6150000Y91050000D02*
X7188000Y92088000D01*
X6150000Y87640000D02*
X6210000Y87580000D01*
X6150000Y89800000D02*
X6150000Y87640000D01*
X36216000Y34750000D02*
X36168000Y34798000D01*
X37810000Y34750000D02*
X36216000Y34750000D01*
X34378000Y34798000D02*
X36168000Y34798000D01*
X30282000Y54733000D02*
X30282000Y53738000D01*
X30282000Y53738000D02*
X30310000Y53710000D01*
X39660000Y53930000D02*
X39660000Y54680000D01*
X37360000Y52570000D02*
X38300000Y52570000D01*
X38910000Y53180000D02*
X39660000Y53930000D01*
X38300000Y52570000D02*
X38910000Y53180000D01*
X40080000Y48640000D02*
X40080000Y49620000D01*
X40080000Y49620000D02*
X40310000Y49850000D01*
X53960000Y36430000D02*
X55540000Y36430000D01*
X55540000Y36430000D02*
X55580000Y36390000D01*
X55880000Y102040000D02*
X57100000Y102040000D01*
X59583000Y94262000D02*
X59583000Y92947000D01*
X59583000Y92947000D02*
X59740000Y92790000D01*
X54290000Y94750000D02*
X54290000Y95440000D01*
X54290000Y95440000D02*
X54700000Y95850000D01*
X35930000Y73510000D02*
X36170000Y73270000D01*
X34435000Y73510000D02*
X35930000Y73510000D01*
X36170000Y73270000D02*
X36170000Y72560000D01*
X36170000Y72560000D02*
X36940000Y71790000D01*
X36820000Y71670000D02*
X36940000Y71790000D01*
X35500000Y71670000D02*
X36820000Y71670000D01*
X30760000Y77960000D02*
X32480000Y77960000D01*
X32480000Y77960000D02*
X33450000Y76990000D01*
X17371000Y30877000D02*
X18430000Y31936000D01*
X18430000Y31936000D02*
X18430000Y32190000D01*
X16396000Y30877000D02*
X17371000Y30877000D01*
X60640000Y69090000D02*
X60340000Y69090000D01*
X61896000Y67834000D02*
X60640000Y69090000D01*
X61896000Y64262000D02*
X61896000Y67834000D01*
X30760000Y77960000D02*
X28500000Y77960000D01*
X28500000Y77960000D02*
X23370000Y83090000D01*
X23370000Y94486000D02*
X19812000Y98044000D01*
X23370000Y83090000D02*
X23370000Y94486000D01*
X27088000Y99070000D02*
X37766000Y88392000D01*
X20838000Y99070000D02*
X27088000Y99070000D01*
X19812000Y98044000D02*
X20838000Y99070000D01*
X31590000Y45570000D02*
X32610000Y46590000D01*
X31590000Y44820000D02*
X31590000Y45570000D01*
X32610000Y49320000D02*
X33390000Y50100000D01*
X32610000Y46590000D02*
X32610000Y49320000D01*
X24290000Y30920000D02*
X24190000Y31020000D01*
X25470000Y30920000D02*
X24290000Y30920000D01*
X22320000Y27815000D02*
X25425000Y30920000D01*
X25425000Y30920000D02*
X25470000Y30920000D01*
X22320000Y27690000D02*
X22320000Y27815000D01*
X11310000Y21070000D02*
X11370000Y21010000D01*
X6360000Y21070000D02*
X11310000Y21070000D01*
X10620000Y21010000D02*
X11370000Y21010000D01*
X8890000Y19280000D02*
X10620000Y21010000D01*
X8890000Y14419800D02*
X8890000Y19280000D01*
X21670000Y25215000D02*
X21670000Y25790000D01*
X17465000Y21010000D02*
X21670000Y25215000D01*
X11370000Y21010000D02*
X17465000Y21010000D01*
X17232000Y36790000D02*
X18540000Y36790000D01*
X13890000Y40132000D02*
X17232000Y36790000D01*
X17940000Y48560000D02*
X17940000Y46850000D01*
X17940000Y46850000D02*
X14880000Y43790000D01*
X12260000Y44670000D02*
X12260000Y45420000D01*
X13140000Y43790000D02*
X12260000Y44670000D01*
X14880000Y43790000D02*
X13140000Y43790000D01*
X6210000Y86140000D02*
X6210000Y87580000D01*
X56830200Y29830000D02*
X56896000Y29895800D01*
X48930000Y29830000D02*
X56830200Y29830000D01*
X55580000Y31211800D02*
X56896000Y29895800D01*
X55580000Y36390000D02*
X55580000Y31211800D01*
X18170000Y48330000D02*
X17940000Y48560000D01*
X25200000Y48330000D02*
X18170000Y48330000D01*
X22320000Y26830000D02*
X22320000Y27690000D01*
X21670000Y26180000D02*
X22320000Y26830000D01*
X21670000Y25790000D02*
X21670000Y26180000D01*
D28*
X3080000Y13410000D02*
X2980000Y13510000D01*
X3080000Y11550000D02*
X3080000Y13410000D01*
X7747001Y38989001D02*
X8890000Y40132000D01*
X2980000Y15410000D02*
X2980000Y34222000D01*
X2980000Y34222000D02*
X7747001Y38989001D01*
X52060000Y39968000D02*
X51896000Y40132000D01*
X52060000Y36430000D02*
X52060000Y39968000D01*
X50730000Y91750000D02*
X52619999Y89860001D01*
X50753001Y41274999D02*
X51896000Y40132000D01*
X50730000Y96770000D02*
X50730000Y91750000D01*
X52619999Y89860001D02*
X51191359Y89860001D01*
X51191359Y89860001D02*
X47340000Y86008642D01*
X47340000Y86008642D02*
X47340000Y44688000D01*
X47340000Y44688000D02*
X50753001Y41274999D01*
X36170000Y75720000D02*
X36170000Y74970000D01*
X36170000Y78150000D02*
X36170000Y75720000D01*
X34910000Y79410000D02*
X36170000Y78150000D01*
X34435000Y79410000D02*
X34910000Y79410000D01*
X35420000Y74970000D02*
X36170000Y74970000D01*
X33620000Y74970000D02*
X35420000Y74970000D01*
X33135000Y73510000D02*
X33135000Y74485000D01*
X33135000Y74485000D02*
X33620000Y74970000D01*
X10505000Y53970000D02*
X10510000Y53975000D01*
X8520000Y54310000D02*
X8860000Y53970000D01*
X8860000Y53970000D02*
X10505000Y53970000D01*
X8520000Y55060000D02*
X8520000Y54310000D01*
X8520000Y55810000D02*
X8520000Y55060000D01*
X7990000Y56340000D02*
X8520000Y55810000D01*
X7690000Y56340000D02*
X7990000Y56340000D01*
X7520000Y59760000D02*
X5940000Y59760000D01*
X7520000Y58410000D02*
X7690000Y58240000D01*
X7520000Y59760000D02*
X7520000Y58410000D01*
X14570000Y32962000D02*
X14580000Y32952000D01*
X15115000Y32177000D02*
X16396000Y32177000D01*
X14550000Y32742000D02*
X15115000Y32177000D01*
X14540000Y32752000D02*
X14550000Y32742000D01*
X12980000Y32752000D02*
X14540000Y32752000D01*
X8890000Y31200000D02*
X8890000Y25654000D01*
X12980000Y32752000D02*
X10442000Y32752000D01*
X10442000Y32752000D02*
X8890000Y31200000D01*
X14540000Y34452000D02*
X14550000Y34442000D01*
X12980000Y34452000D02*
X14540000Y34452000D01*
X16006000Y34442000D02*
X16210000Y34646000D01*
X14550000Y34442000D02*
X16006000Y34442000D01*
X16210000Y33013000D02*
X16396000Y32827000D01*
X16210000Y34646000D02*
X16210000Y33013000D01*
X11430000Y22770000D02*
X11370000Y22710000D01*
X11430000Y25654000D02*
X11430000Y22770000D01*
X6360000Y25644000D02*
X6350000Y25654000D01*
X6360000Y22770000D02*
X6360000Y25644000D01*
X17910000Y34646000D02*
X19512000Y34646000D01*
X16190000Y29150000D02*
X16194000Y29154000D01*
X14620000Y29150000D02*
X16190000Y29150000D01*
X16194000Y29154000D02*
X16194000Y27630000D01*
X16190000Y27626000D02*
X16194000Y27630000D01*
X16190000Y26320000D02*
X16190000Y27626000D01*
X22320000Y25790000D02*
X23169998Y25790000D01*
X23169998Y25790000D02*
X23250000Y25709998D01*
X14971000Y31527000D02*
X16396000Y31527000D01*
X14578000Y31134000D02*
X14971000Y31527000D01*
X14578000Y30908000D02*
X14578000Y31134000D01*
X12920000Y29150000D02*
X12920000Y29250000D01*
X12920000Y29250000D02*
X14578000Y30908000D01*
X37170000Y44770000D02*
X37450000Y45050000D01*
X36420000Y44770000D02*
X37170000Y44770000D01*
X37450000Y46832000D02*
X37099000Y47183000D01*
X37099000Y47183000D02*
X36124000Y47183000D01*
X37450000Y45050000D02*
X37450000Y46832000D01*
X40140000Y45110000D02*
X40150000Y45100000D01*
X38570000Y45110000D02*
X40140000Y45110000D01*
X37510000Y45110000D02*
X38570000Y45110000D01*
X37450000Y45050000D02*
X37510000Y45110000D01*
X31850000Y51320000D02*
X31860000Y51310000D01*
X30470000Y51320000D02*
X31850000Y51320000D01*
X37547000Y47833000D02*
X36124000Y47833000D01*
X38570000Y46810000D02*
X37547000Y47833000D01*
X35149000Y47833000D02*
X36124000Y47833000D01*
X31860000Y51310000D02*
X34020000Y51310000D01*
X34020000Y51310000D02*
X34630000Y50700000D01*
X34630000Y48352000D02*
X35149000Y47833000D01*
X34630000Y50700000D02*
X34630000Y48352000D01*
X28550000Y51300000D02*
X28570000Y51320000D01*
X27080000Y51300000D02*
X28550000Y51300000D01*
X20920000Y25890000D02*
X21020000Y25790000D01*
X19470000Y25890000D02*
X20920000Y25890000D01*
X19470000Y25890000D02*
X18310000Y25890000D01*
X18310000Y25890000D02*
X18240000Y25960000D01*
X21230000Y29120000D02*
X21196000Y29154000D01*
X22300000Y29120000D02*
X21230000Y29120000D01*
X21365000Y26810000D02*
X21670000Y27115000D01*
X19430000Y27630000D02*
X20250000Y26810000D01*
X17894000Y27630000D02*
X19430000Y27630000D01*
X20250000Y26810000D02*
X21365000Y26810000D01*
X21670000Y27115000D02*
X21670000Y27690000D01*
X6692000Y100710000D02*
X5842000Y100710000D01*
X6880000Y100710000D02*
X6692000Y100710000D01*
X8022000Y99568000D02*
X6880000Y100710000D01*
X8722000Y99568000D02*
X8022000Y99568000D01*
X9716000Y89800000D02*
X9728000Y89788000D01*
X8050000Y89800000D02*
X9716000Y89800000D01*
X9728000Y89788000D02*
X11688000Y89788000D01*
X11688000Y89788000D02*
X11690000Y89790000D01*
X30690000Y79590000D02*
X30760000Y79660000D01*
X29230000Y79590000D02*
X30690000Y79590000D01*
X31010000Y79410000D02*
X30760000Y79660000D01*
X32485000Y79410000D02*
X31010000Y79410000D01*
X55780000Y100440000D02*
X55880000Y100340000D01*
X54430000Y100440000D02*
X55780000Y100440000D01*
X57455000Y100340000D02*
X57633000Y100162000D01*
X55880000Y100340000D02*
X57455000Y100340000D01*
X24160000Y32750000D02*
X24190000Y32720000D01*
X24160000Y34230000D02*
X24160000Y32750000D01*
X24083000Y32827000D02*
X22296000Y32827000D01*
X24190000Y32720000D02*
X24083000Y32827000D01*
X17894000Y29154000D02*
X19496000Y29154000D01*
X17845000Y50165000D02*
X17940000Y50260000D01*
X15910000Y50165000D02*
X17845000Y50165000D01*
X32100000Y70110000D02*
X32100000Y68900000D01*
X32100000Y68900000D02*
X32110000Y68890000D01*
X38223000Y48483000D02*
X38380000Y48640000D01*
X36124000Y48483000D02*
X38223000Y48483000D01*
X38380000Y48640000D02*
X38380000Y49550000D01*
X38380000Y49550000D02*
X38520000Y49690000D01*
X39700000Y58920000D02*
X39700000Y59130000D01*
X39530000Y57930000D02*
X37960000Y57930000D01*
X39530000Y58960000D02*
X39700000Y59130000D01*
X39530000Y57930000D02*
X39530000Y58960000D01*
X37210000Y57930000D02*
X37960000Y57930000D01*
X36182000Y57158000D02*
X36954000Y57930000D01*
X36954000Y57930000D02*
X37210000Y57930000D01*
X36182000Y56683000D02*
X36182000Y57158000D01*
X19450000Y50260000D02*
X22400001Y53210001D01*
X22400001Y53210001D02*
X22430001Y53210001D01*
X22430001Y53210001D02*
X22830000Y53610000D01*
X17940000Y50260000D02*
X19450000Y50260000D01*
X27370000Y34230000D02*
X24725685Y34230000D01*
X24725685Y34230000D02*
X24160000Y34230000D01*
X27460000Y34320000D02*
X27370000Y34230000D01*
X27460000Y35070000D02*
X27460000Y34320000D01*
X20115002Y31621002D02*
X21321000Y32827000D01*
X19496000Y29154000D02*
X19496000Y29904000D01*
X19496000Y29904000D02*
X20115002Y30523002D01*
X20115002Y30523002D02*
X20115002Y31621002D01*
X21321000Y32827000D02*
X22296000Y32827000D01*
X9720000Y87580000D02*
X9728000Y87588000D01*
X7910000Y87580000D02*
X9720000Y87580000D01*
X56093000Y3447000D02*
X56896000Y3447000D01*
X52440000Y7100000D02*
X56093000Y3447000D01*
X52440000Y7850000D02*
X52440000Y7100000D01*
X57515000Y94380000D02*
X57633000Y94262000D01*
X55850000Y94760000D02*
X56230000Y94380000D01*
X56230000Y94380000D02*
X57515000Y94380000D01*
X58010000Y95860000D02*
X61670000Y95860000D01*
X57633000Y94262000D02*
X57633000Y95483000D01*
X57633000Y95483000D02*
X58010000Y95860000D01*
X53210000Y105860000D02*
X54730000Y105860000D01*
X52700000Y105350000D02*
X53210000Y105860000D01*
X52700000Y98610000D02*
X52700000Y105350000D01*
X52920000Y96780000D02*
X52930000Y96770000D01*
X52700000Y98610000D02*
X52920000Y98390000D01*
X52920000Y98390000D02*
X52920000Y96780000D01*
X5842000Y95504000D02*
X5080000Y94742000D01*
X5842000Y97410000D02*
X5842000Y95504000D01*
X16422001Y106513999D02*
X17272000Y105664000D01*
X12838799Y106513999D02*
X16422001Y106513999D01*
X10718800Y104394000D02*
X12838799Y106513999D01*
X18609919Y105664000D02*
X17272000Y105664000D01*
X19812000Y105664000D02*
X18609919Y105664000D01*
X51896000Y64262000D02*
X56896000Y64262000D01*
X57860000Y69140000D02*
X58610000Y69140000D01*
X56896000Y68176000D02*
X57860000Y69140000D01*
X56896000Y64262000D02*
X56896000Y68176000D01*
X42750000Y83460000D02*
X42760000Y83450000D01*
X36270000Y83460000D02*
X42750000Y83460000D01*
X27766000Y65878446D02*
X27766000Y64262000D01*
X27766000Y72766000D02*
X27766000Y65878446D01*
X30010000Y75010000D02*
X27766000Y72766000D01*
X30760000Y75010000D02*
X30010000Y75010000D01*
X30550000Y73100000D02*
X30760000Y73310000D01*
X30550000Y71690000D02*
X30550000Y73100000D01*
X32285000Y73310000D02*
X32485000Y73510000D01*
X30760000Y73310000D02*
X32285000Y73310000D01*
X30550000Y70940000D02*
X30780000Y70710000D01*
X30550000Y71690000D02*
X30550000Y70940000D01*
X36149554Y64262000D02*
X37766000Y64262000D01*
X35664998Y64262000D02*
X36149554Y64262000D01*
X30780000Y69146998D02*
X35664998Y64262000D01*
X30780000Y70710000D02*
X30780000Y69146998D01*
X4240000Y63912000D02*
X3890000Y64262000D01*
X4240000Y59760000D02*
X4240000Y63912000D01*
X5040000Y65412000D02*
X3890000Y64262000D01*
X5040000Y76090000D02*
X5040000Y65412000D01*
X12290000Y59760000D02*
X9220000Y59760000D01*
X13890000Y64262000D02*
X13890000Y61360000D01*
X13890000Y61360000D02*
X12290000Y59760000D01*
X13930000Y64302000D02*
X13890000Y64262000D01*
X13930000Y70440000D02*
X13930000Y64302000D01*
X8733000Y3447000D02*
X8890000Y3447000D01*
X3080000Y9100000D02*
X8733000Y3447000D01*
X3080000Y9850000D02*
X3080000Y9100000D01*
X27460000Y39826000D02*
X27766000Y40132000D01*
X27460000Y36770000D02*
X27460000Y39826000D01*
X32790000Y40156000D02*
X32766000Y40132000D01*
X32790000Y43080000D02*
X32790000Y40156000D01*
X37810000Y40088000D02*
X37766000Y40132000D01*
X37810000Y36450000D02*
X37810000Y40088000D01*
X31760000Y58430000D02*
X31760000Y56610000D01*
X31760000Y56610000D02*
X34470000Y53900000D01*
X36710000Y53145000D02*
X36710000Y52570000D01*
X35955000Y53900000D02*
X36710000Y53145000D01*
X34470000Y53900000D02*
X35955000Y53900000D01*
X41290000Y50180000D02*
X40800000Y50670000D01*
X41290000Y47190000D02*
X41290000Y50180000D01*
X40900000Y46800000D02*
X41290000Y47190000D01*
X39110000Y50670000D02*
X37360000Y50670000D01*
X40800000Y50670000D02*
X39110000Y50670000D01*
X40150000Y46800000D02*
X40900000Y46800000D01*
X33785000Y71685000D02*
X33800000Y71670000D01*
X33785000Y73510000D02*
X33785000Y71685000D01*
X33780000Y71690000D02*
X33800000Y71670000D01*
X32250000Y71690000D02*
X33780000Y71690000D01*
X33800000Y70110000D02*
X33800000Y71670000D01*
X10475000Y52740000D02*
X10510000Y52705000D01*
X8660000Y52740000D02*
X8670000Y52730000D01*
X7130000Y52740000D02*
X8660000Y52740000D01*
X10485000Y52730000D02*
X10510000Y52705000D01*
X8670000Y52730000D02*
X10485000Y52730000D01*
X13960000Y46170000D02*
X13960000Y45420000D01*
X13960000Y49705000D02*
X13960000Y46170000D01*
X10960000Y52705000D02*
X13960000Y49705000D01*
X10510000Y52705000D02*
X10960000Y52705000D01*
X10510000Y56515000D02*
X12075000Y56515000D01*
X12075000Y56515000D02*
X14630001Y59070001D01*
X14630001Y59070001D02*
X15030000Y59470000D01*
X21805685Y62089988D02*
X21240000Y62089988D01*
X43039988Y62089988D02*
X21805685Y62089988D01*
X45460000Y64510000D02*
X43039988Y62089988D01*
X45460000Y93820000D02*
X45460000Y64510000D01*
X51000000Y98610000D02*
X50250000Y98610000D01*
X50250000Y98610000D02*
X45460000Y93820000D01*
X55840000Y93050000D02*
X55850000Y93060000D01*
X54290000Y93050000D02*
X55840000Y93050000D01*
X56600000Y93060000D02*
X55850000Y93060000D01*
X58056000Y93060000D02*
X56600000Y93060000D01*
X58283000Y93287000D02*
X58056000Y93060000D01*
X58283000Y94262000D02*
X58283000Y93287000D01*
X36182000Y56033000D02*
X36182000Y55383000D01*
X6840000Y54290000D02*
X6820000Y54310000D01*
X12878000Y31134000D02*
X11596000Y31134000D01*
X11596000Y31134000D02*
X11520000Y31210000D01*
X5430000Y52740000D02*
X5430000Y54230000D01*
X5510000Y54310000D02*
X5460000Y54260000D01*
X5430000Y54230000D02*
X5460000Y54260000D01*
X6820000Y54310000D02*
X5510000Y54310000D01*
X22495685Y51700000D02*
X24295685Y53500000D01*
X21930000Y51700000D02*
X22495685Y51700000D01*
X28430000Y53500000D02*
X27080000Y53500000D01*
X24295685Y53500000D02*
X27080000Y53500000D01*
X36109000Y55960000D02*
X36182000Y56033000D01*
X34650000Y55960000D02*
X36109000Y55960000D01*
X31257000Y56033000D02*
X30282000Y56033000D01*
X31860000Y55430000D02*
X31257000Y56033000D01*
X31860000Y53010000D02*
X31860000Y55430000D01*
X56896000Y43256000D02*
X57260000Y43620000D01*
X56896000Y40132000D02*
X56896000Y43256000D01*
X50740000Y7850000D02*
X42830000Y7850000D01*
X42830000Y7850000D02*
X32678000Y18002000D01*
X32678000Y24908000D02*
X32678000Y19352000D01*
X32678000Y18002000D02*
X32678000Y19352000D01*
X31060000Y43080000D02*
X31090000Y43080000D01*
X30190000Y42210000D02*
X31060000Y43080000D01*
X30190000Y38036000D02*
X30190000Y42210000D01*
X32678000Y34798000D02*
X32678000Y35548000D01*
X32678000Y35548000D02*
X30190000Y38036000D01*
X30227000Y47180000D02*
X30224000Y47183000D01*
X31570000Y47180000D02*
X30227000Y47180000D01*
X55560000Y43620000D02*
X51330000Y43620000D01*
X51330000Y43620000D02*
X49370000Y45580000D01*
X45020000Y45660000D02*
X45020000Y37460000D01*
X45020000Y37460000D02*
X38670000Y31110000D01*
X34340000Y31110000D02*
X32678000Y32772000D01*
X38670000Y31110000D02*
X34340000Y31110000D01*
X32678000Y19352000D02*
X32678000Y32772000D01*
X32678000Y32772000D02*
X32678000Y34798000D01*
X45020000Y45660000D02*
X45020000Y60000000D01*
X42760000Y68780000D02*
X42760000Y81750000D01*
X43650000Y67890000D02*
X42760000Y68780000D01*
X30050000Y58440000D02*
X30060000Y58430000D01*
X28430000Y58440000D02*
X30050000Y58440000D01*
X30060000Y56905000D02*
X30282000Y56683000D01*
X30060000Y58430000D02*
X30060000Y56905000D01*
X28430000Y56740000D02*
X28430000Y55200000D01*
X28613000Y55383000D02*
X30282000Y55383000D01*
X28430000Y55200000D02*
X28613000Y55383000D01*
X30167000Y48540000D02*
X30224000Y48483000D01*
X28390000Y48910000D02*
X28760000Y48540000D01*
X28760000Y48540000D02*
X30167000Y48540000D01*
X36400000Y43050000D02*
X36420000Y43070000D01*
X34860000Y43050000D02*
X36400000Y43050000D01*
X34860000Y43050000D02*
X37570000Y43050000D01*
X37570000Y43050000D02*
X37650000Y42970000D01*
X28390000Y48910000D02*
X27640000Y48910000D01*
X27507660Y48777660D02*
X27507660Y48632340D01*
X27640000Y48910000D02*
X27507660Y48777660D01*
X34790000Y44820000D02*
X34860000Y44750000D01*
X33290000Y44820000D02*
X34790000Y44820000D01*
X34860000Y44750000D02*
X34860000Y46450000D01*
X34943000Y46533000D02*
X36124000Y46533000D01*
X34860000Y46450000D02*
X34943000Y46533000D01*
X29013000Y47833000D02*
X30224000Y47833000D01*
X28390000Y47210000D02*
X29013000Y47833000D01*
X28390000Y44870000D02*
X28350000Y44830000D01*
X28390000Y47210000D02*
X28390000Y44870000D01*
X37960000Y56230000D02*
X37960000Y54680000D01*
X37907000Y54733000D02*
X37960000Y54680000D01*
X36182000Y54733000D02*
X37907000Y54733000D01*
X49390000Y85886000D02*
X51896000Y88392000D01*
X49390000Y59320000D02*
X49390000Y85886000D01*
X59550000Y49160000D02*
X49390000Y59320000D01*
X56896000Y18923000D02*
X59550000Y21577000D01*
X59550000Y21577000D02*
X59550000Y49160000D01*
X56896000Y90736000D02*
X56896000Y88392000D01*
X58933000Y94262000D02*
X58933000Y92773000D01*
X58933000Y92773000D02*
X56896000Y90736000D01*
X22296000Y32177000D02*
X22296000Y31527000D01*
X9075000Y51435000D02*
X8670000Y51030000D01*
X10510000Y51435000D02*
X9075000Y51435000D01*
X3890000Y44780000D02*
X3890000Y40132000D01*
X8670000Y51030000D02*
X8670000Y49560000D01*
X8670000Y49560000D02*
X3890000Y44780000D01*
X2159000Y95123000D02*
X2540000Y94742000D01*
X2159000Y104394000D02*
X2159000Y95123000D01*
X19780000Y95472000D02*
X19812000Y95504000D01*
X19780000Y89870000D02*
X19780000Y95472000D01*
X58283000Y100162000D02*
X58933000Y100162000D01*
X58283000Y105853000D02*
X58310000Y105880000D01*
X58283000Y100162000D02*
X58283000Y105853000D01*
X32766000Y83496000D02*
X32730000Y83460000D01*
X32766000Y88392000D02*
X32766000Y83496000D01*
X27766000Y88392000D02*
X27766000Y84064000D01*
X27766000Y84064000D02*
X30340000Y81490000D01*
X33135000Y80385000D02*
X33135000Y79410000D01*
X32030000Y81490000D02*
X33135000Y80385000D01*
X30340000Y81490000D02*
X32030000Y81490000D01*
X33785000Y79410000D02*
X33135000Y79410000D01*
X21212000Y35662000D02*
X21212000Y34646000D01*
X23850000Y38300000D02*
X21212000Y35662000D01*
X20180000Y61810000D02*
X24000000Y57990000D01*
X20180000Y73330000D02*
X20180000Y61810000D01*
X17940000Y75570000D02*
X20180000Y73330000D01*
X10520000Y75570000D02*
X17940000Y75570000D01*
X8480000Y76090000D02*
X10000000Y76090000D01*
X10000000Y76090000D02*
X10520000Y75570000D01*
X25280000Y51200000D02*
X25380000Y51300000D01*
X25280000Y49870000D02*
X25280000Y51200000D01*
X17450000Y59920000D02*
X21030000Y56340000D01*
X17450000Y70450000D02*
X17450000Y59920000D01*
X21030000Y56340000D02*
X24920000Y56340000D01*
X24920000Y56340000D02*
X24990000Y56270000D01*
X56878800Y27500000D02*
X56896000Y27482800D01*
X43430000Y27500000D02*
X56878800Y27500000D01*
M02*
