G04 #@! TF.GenerationSoftware,KiCad,Pcbnew,(5.1.4-0-10_14)*
G04 #@! TF.CreationDate,2019-11-18T15:59:10-08:00*
G04 #@! TF.ProjectId,DS8,4453382e-6b69-4636-9164-5f7063625858,rev?*
G04 #@! TF.SameCoordinates,Original*
G04 #@! TF.FileFunction,Legend,Top*
G04 #@! TF.FilePolarity,Positive*
%FSLAX46Y46*%
G04 Gerber Fmt 4.6, Leading zero omitted, Abs format (unit mm)*
G04 Created by KiCad (PCBNEW (5.1.4-0-10_14)) date 2019-11-18 15:59:10*
%MOMM*%
%LPD*%
G04 APERTURE LIST*
%ADD10C,0.120000*%
%ADD11C,0.150000*%
%ADD12C,0.152400*%
%ADD13C,0.127000*%
%ADD14C,1.000000*%
%ADD15C,0.100000*%
%ADD16C,0.203200*%
%ADD17C,1.451000*%
%ADD18R,2.642000X2.642000*%
%ADD19R,0.502000X0.752000*%
%ADD20C,1.753000*%
%ADD21C,2.540000*%
%ADD22R,1.602000X3.402000*%
%ADD23R,1.602000X1.302000*%
%ADD24R,1.552000X0.552000*%
%ADD25R,0.552000X1.552000*%
%ADD26R,1.602000X0.702000*%
%ADD27C,2.032400*%
%ADD28R,1.102000X1.102000*%
%ADD29O,1.802000X1.802000*%
%ADD30R,1.302000X1.002000*%
%ADD31R,0.602000X0.602000*%
%ADD32R,0.802000X1.402000*%
%ADD33R,3.102000X1.702000*%
%ADD34R,1.402000X0.802000*%
G04 APERTURE END LIST*
D10*
X29400000Y43470000D02*
X30950000Y44090000D01*
D11*
X50200000Y29830000D02*
G75*
G03X50200000Y29830000I-1270000J0D01*
G01*
X44700000Y27500000D02*
G75*
G03X44700000Y27500000I-1270000J0D01*
G01*
X21050000Y89870000D02*
G75*
G03X21050000Y89870000I-1270000J0D01*
G01*
D12*
X21176990Y26549500D02*
G75*
G03X21176990Y26549500I-141990J0D01*
G01*
X20527000Y26232000D02*
X22813000Y26232000D01*
X20527000Y27248000D02*
X22813000Y27248000D01*
X20908000Y25216000D02*
X21162000Y24962000D01*
X20908000Y25216000D02*
X20654000Y24962000D01*
X20908000Y24581000D02*
X20908000Y25216000D01*
D10*
X20510000Y27248000D02*
X20510000Y26232000D01*
X22830000Y26232000D02*
X22830000Y27248000D01*
D12*
X37486990Y51810500D02*
G75*
G03X37486990Y51810500I-141990J0D01*
G01*
X37853000Y52128000D02*
X35567000Y52128000D01*
X37853000Y51112000D02*
X35567000Y51112000D01*
X37472000Y53144000D02*
X37218000Y53398000D01*
X37472000Y53144000D02*
X37726000Y53398000D01*
X37472000Y53779000D02*
X37472000Y53144000D01*
D10*
X37870000Y51112000D02*
X37870000Y52128000D01*
X35550000Y52128000D02*
X35550000Y51112000D01*
D13*
X14728000Y93088000D02*
X11128000Y93088000D01*
X14728000Y86488000D02*
X14728000Y93088000D01*
X11128000Y86488000D02*
X14728000Y86488000D01*
X11128000Y93088000D02*
X11128000Y86488000D01*
D11*
X17021000Y33277000D02*
X15671000Y33277000D01*
X17021000Y30227000D02*
X21671000Y30227000D01*
X17021000Y33477000D02*
X21671000Y33477000D01*
X17021000Y30227000D02*
X17021000Y30427000D01*
X21671000Y30227000D02*
X21671000Y30427000D01*
X21671000Y33477000D02*
X21671000Y33277000D01*
X17021000Y33477000D02*
X17021000Y33277000D01*
X17874605Y32995000D02*
G75*
G03X17874605Y32995000I-179605J0D01*
G01*
X32035000Y74135000D02*
X32035000Y72785000D01*
X35085000Y74135000D02*
X35085000Y78785000D01*
X31835000Y74135000D02*
X31835000Y78785000D01*
X35085000Y74135000D02*
X34885000Y74135000D01*
X35085000Y78785000D02*
X34885000Y78785000D01*
X31835000Y78785000D02*
X32035000Y78785000D01*
X31835000Y74135000D02*
X32035000Y74135000D01*
X32496605Y74809000D02*
G75*
G03X32496605Y74809000I-179605J0D01*
G01*
X30907000Y57133000D02*
X29557000Y57133000D01*
X30907000Y54083000D02*
X35557000Y54083000D01*
X30907000Y57333000D02*
X35557000Y57333000D01*
X30907000Y54083000D02*
X30907000Y54283000D01*
X35557000Y54083000D02*
X35557000Y54283000D01*
X35557000Y57333000D02*
X35557000Y57133000D01*
X30907000Y57333000D02*
X30907000Y57133000D01*
X31760605Y56851000D02*
G75*
G03X31760605Y56851000I-179605J0D01*
G01*
X30849000Y48933000D02*
X29499000Y48933000D01*
X30849000Y45883000D02*
X35499000Y45883000D01*
X30849000Y49133000D02*
X35499000Y49133000D01*
X30849000Y45883000D02*
X30849000Y46083000D01*
X35499000Y45883000D02*
X35499000Y46083000D01*
X35499000Y49133000D02*
X35499000Y48933000D01*
X30849000Y49133000D02*
X30849000Y48933000D01*
X31702605Y48651000D02*
G75*
G03X31702605Y48651000I-179605J0D01*
G01*
X57183000Y94887000D02*
X57183000Y93537000D01*
X60233000Y94887000D02*
X60233000Y99537000D01*
X56983000Y94887000D02*
X56983000Y99537000D01*
X60233000Y94887000D02*
X60033000Y94887000D01*
X60233000Y99537000D02*
X60033000Y99537000D01*
X56983000Y99537000D02*
X57183000Y99537000D01*
X56983000Y94887000D02*
X57183000Y94887000D01*
X57644605Y95561000D02*
G75*
G03X57644605Y95561000I-179605J0D01*
G01*
X11135000Y57040000D02*
X9760000Y57040000D01*
X11135000Y46995000D02*
X15285000Y46995000D01*
X11135000Y57145000D02*
X15285000Y57145000D01*
X11135000Y46995000D02*
X11135000Y47100000D01*
X15285000Y46995000D02*
X15285000Y47100000D01*
X15285000Y57145000D02*
X15285000Y57040000D01*
X11135000Y57145000D02*
X11135000Y57040000D01*
X12321000Y56515000D02*
G75*
G03X12321000Y56515000I-254000J0D01*
G01*
X8892000Y56810000D02*
X9273000Y56556000D01*
X9273000Y56556000D02*
X8892000Y56302000D01*
X8892000Y56302000D02*
X8892000Y56810000D01*
X37960000Y55380000D02*
X39660000Y55380000D01*
X39660000Y53980000D02*
X37960000Y53980000D01*
X38660000Y57930000D02*
X38660000Y56230000D01*
X37260000Y56230000D02*
X37260000Y57930000D01*
X34378000Y34098000D02*
X32678000Y34098000D01*
X32678000Y35498000D02*
X34378000Y35498000D01*
X37110000Y34750000D02*
X37110000Y36450000D01*
X38510000Y36450000D02*
X38510000Y34750000D01*
X31090000Y43780000D02*
X32790000Y43780000D01*
X32790000Y42380000D02*
X31090000Y42380000D01*
X28160000Y36770000D02*
X28160000Y35070000D01*
X26760000Y35070000D02*
X26760000Y36770000D01*
X28350000Y45530000D02*
X30050000Y45530000D01*
X30050000Y44130000D02*
X28350000Y44130000D01*
X33290000Y44120000D02*
X31590000Y44120000D01*
X31590000Y45520000D02*
X33290000Y45520000D01*
X27690000Y47210000D02*
X27690000Y48910000D01*
X29090000Y48910000D02*
X29090000Y47210000D01*
X34160000Y43050000D02*
X34160000Y44750000D01*
X35560000Y44750000D02*
X35560000Y43050000D01*
X42060000Y81750000D02*
X42060000Y83450000D01*
X43460000Y83450000D02*
X43460000Y81750000D01*
X7520000Y60460000D02*
X9220000Y60460000D01*
X9220000Y59060000D02*
X7520000Y59060000D01*
X25380000Y52000000D02*
X27080000Y52000000D01*
X27080000Y50600000D02*
X25380000Y50600000D01*
X35720000Y43070000D02*
X35720000Y44770000D01*
X37120000Y44770000D02*
X37120000Y43070000D01*
X21196000Y28454000D02*
X19496000Y28454000D01*
X19496000Y29854000D02*
X21196000Y29854000D01*
X16194000Y28330000D02*
X17894000Y28330000D01*
X17894000Y26930000D02*
X16194000Y26930000D01*
X17894000Y28454000D02*
X16194000Y28454000D01*
X16194000Y29854000D02*
X17894000Y29854000D01*
X39450000Y45100000D02*
X39450000Y46800000D01*
X40850000Y46800000D02*
X40850000Y45100000D01*
X29130000Y58440000D02*
X29130000Y56740000D01*
X27730000Y56740000D02*
X27730000Y58440000D01*
X29130000Y55200000D02*
X29130000Y53500000D01*
X27730000Y53500000D02*
X27730000Y55200000D01*
X50740000Y8550000D02*
X52440000Y8550000D01*
X52440000Y7150000D02*
X50740000Y7150000D01*
X14578000Y30434000D02*
X12878000Y30434000D01*
X12878000Y31834000D02*
X14578000Y31834000D01*
X5940000Y59060000D02*
X4240000Y59060000D01*
X4240000Y60460000D02*
X5940000Y60460000D01*
X21212000Y33946000D02*
X19512000Y33946000D01*
X19512000Y35346000D02*
X21212000Y35346000D01*
X31760000Y57730000D02*
X30060000Y57730000D01*
X30060000Y59130000D02*
X31760000Y59130000D01*
X13680000Y34452000D02*
X13680000Y32752000D01*
X12280000Y32752000D02*
X12280000Y34452000D01*
X55560000Y44320000D02*
X57260000Y44320000D01*
X57260000Y42920000D02*
X55560000Y42920000D01*
X31160000Y51310000D02*
X31160000Y53010000D01*
X32560000Y53010000D02*
X32560000Y51310000D01*
X53590000Y93050000D02*
X53590000Y94750000D01*
X54990000Y94750000D02*
X54990000Y93050000D01*
X8520000Y53610000D02*
X6820000Y53610000D01*
X6820000Y55010000D02*
X8520000Y55010000D01*
X2380000Y9850000D02*
X2380000Y11550000D01*
X3780000Y11550000D02*
X3780000Y9850000D01*
X33800000Y72370000D02*
X35500000Y72370000D01*
X35500000Y70970000D02*
X33800000Y70970000D01*
X7130000Y52040000D02*
X5430000Y52040000D01*
X5430000Y53440000D02*
X7130000Y53440000D01*
X55150000Y93060000D02*
X55150000Y94760000D01*
X56550000Y94760000D02*
X56550000Y93060000D01*
X31460000Y75010000D02*
X31460000Y73310000D01*
X30060000Y73310000D02*
X30060000Y75010000D01*
X59310000Y70840000D02*
X59310000Y69140000D01*
X57910000Y69140000D02*
X57910000Y70840000D01*
X51000000Y99310000D02*
X52700000Y99310000D01*
X52700000Y97910000D02*
X51000000Y97910000D01*
X32100000Y70810000D02*
X33800000Y70810000D01*
X33800000Y69410000D02*
X32100000Y69410000D01*
X7970000Y51030000D02*
X7970000Y52730000D01*
X9370000Y52730000D02*
X9370000Y51030000D01*
X13960000Y44720000D02*
X12260000Y44720000D01*
X12260000Y46120000D02*
X13960000Y46120000D01*
X30550000Y72390000D02*
X32250000Y72390000D01*
X32250000Y70990000D02*
X30550000Y70990000D01*
D14*
X15792000Y93234000D02*
X21332000Y93234000D01*
D10*
X15882000Y107054000D02*
X15882000Y94114000D01*
X15882000Y94114000D02*
X21202000Y94114000D01*
X21202000Y94114000D02*
X21202000Y107054000D01*
X21202000Y107054000D02*
X15882000Y107054000D01*
X6842000Y101310000D02*
X4842000Y101310000D01*
D15*
X5842000Y98810000D02*
X5842000Y98310000D01*
X5442000Y98810000D02*
X5842000Y99410000D01*
X6242000Y98810000D02*
X5442000Y98810000D01*
X5842000Y99410000D02*
X6242000Y98810000D01*
X5842000Y99410000D02*
X5292000Y99410000D01*
X5842000Y99410000D02*
X6392000Y99410000D01*
X5842000Y99810000D02*
X5842000Y99410000D01*
D10*
X4842000Y101310000D02*
X4842000Y97410000D01*
X6842000Y101310000D02*
X6842000Y97410000D01*
X50330000Y97620000D02*
X52880000Y97620000D01*
X50330000Y95920000D02*
X52880000Y95920000D01*
X50330000Y97620000D02*
X50330000Y95920000D01*
X62520000Y98460000D02*
X62520000Y95910000D01*
X60820000Y98460000D02*
X60820000Y95910000D01*
X62520000Y98460000D02*
X60820000Y98460000D01*
D11*
X55130000Y101040000D02*
X56630000Y101040000D01*
X56630000Y101340000D02*
X55130000Y101340000D01*
X39080000Y49390000D02*
X39080000Y47890000D01*
X39380000Y47890000D02*
X39380000Y49390000D01*
X24940000Y32020000D02*
X23440000Y32020000D01*
X23440000Y31720000D02*
X24940000Y31720000D01*
X31510000Y78960000D02*
X30010000Y78960000D01*
X30010000Y78660000D02*
X31510000Y78660000D01*
X40310000Y57180000D02*
X38810000Y57180000D01*
X38810000Y56880000D02*
X40310000Y56880000D01*
D12*
X6846000Y89241200D02*
X6846000Y90358800D01*
X7354000Y89241200D02*
X7354000Y90358800D01*
D11*
X7210000Y86830000D02*
X7210000Y88330000D01*
X6910000Y88330000D02*
X6910000Y86830000D01*
X18690000Y49560000D02*
X17190000Y49560000D01*
X17190000Y49260000D02*
X18690000Y49260000D01*
D10*
X13056257Y100698243D02*
G75*
G03X8772000Y100668000I-2134257J-1130243D01*
G01*
X8787743Y98437757D02*
G75*
G03X13072000Y98468000I2134257J1130243D01*
G01*
X9012000Y96918000D02*
X13592000Y96918000D01*
X8252000Y97688000D02*
X9012000Y96918000D01*
X9012000Y102218000D02*
X8252000Y101448000D01*
X13592000Y102218000D02*
X9012000Y102218000D01*
X8252000Y101448000D02*
X8252000Y100668000D01*
X8252000Y97688000D02*
X8252000Y98468000D01*
X13592000Y96918000D02*
X13592000Y98468000D01*
X13592000Y102218000D02*
X13592000Y100668000D01*
D11*
X20220000Y26870000D02*
X18720000Y26870000D01*
X18720000Y26570000D02*
X20220000Y26570000D01*
D12*
X29774000Y51878800D02*
X29774000Y50761200D01*
X29266000Y51878800D02*
X29266000Y50761200D01*
D11*
X39320000Y46110000D02*
X37820000Y46110000D01*
X37820000Y45810000D02*
X39320000Y45810000D01*
X13620000Y29900000D02*
X13620000Y28400000D01*
X13920000Y28400000D02*
X13920000Y29900000D01*
X17210000Y33896000D02*
X17210000Y35396000D01*
X16910000Y35396000D02*
X16910000Y33896000D01*
X7110000Y22070000D02*
X5610000Y22070000D01*
X5610000Y21770000D02*
X7110000Y21770000D01*
X12120000Y22010000D02*
X10620000Y22010000D01*
X10620000Y21710000D02*
X12120000Y21710000D01*
X15300000Y33742000D02*
X13800000Y33742000D01*
X13800000Y33442000D02*
X15300000Y33442000D01*
D12*
X7131200Y57544000D02*
X8248800Y57544000D01*
X7131200Y57036000D02*
X8248800Y57036000D01*
D11*
X36920000Y74270000D02*
X35420000Y74270000D01*
X35420000Y73970000D02*
X36920000Y73970000D01*
D12*
X53264000Y36988800D02*
X53264000Y35871200D01*
X52756000Y36988800D02*
X52756000Y35871200D01*
X2421200Y14714000D02*
X3538800Y14714000D01*
X2421200Y14206000D02*
X3538800Y14206000D01*
X60898800Y69786000D02*
X59781200Y69786000D01*
X60898800Y70294000D02*
X59781200Y70294000D01*
D11*
X46222571Y31720380D02*
X46222571Y32736380D01*
X46609619Y32736380D01*
X46706380Y32688000D01*
X46754761Y32639619D01*
X46803142Y32542857D01*
X46803142Y32397714D01*
X46754761Y32300952D01*
X46706380Y32252571D01*
X46609619Y32204190D01*
X46222571Y32204190D01*
X47238571Y31720380D02*
X47238571Y32736380D01*
X47722380Y32252571D02*
X48061047Y32252571D01*
X48206190Y31720380D02*
X47722380Y31720380D01*
X47722380Y32736380D01*
X48206190Y32736380D01*
X48544857Y32736380D02*
X49222190Y32736380D01*
X48544857Y31720380D01*
X49222190Y31720380D01*
X49802761Y32736380D02*
X49996285Y32736380D01*
X50093047Y32688000D01*
X50189809Y32591238D01*
X50238190Y32397714D01*
X50238190Y32059047D01*
X50189809Y31865523D01*
X50093047Y31768761D01*
X49996285Y31720380D01*
X49802761Y31720380D01*
X49706000Y31768761D01*
X49609238Y31865523D01*
X49560857Y32059047D01*
X49560857Y32397714D01*
X49609238Y32591238D01*
X49706000Y32688000D01*
X49802761Y32736380D01*
X50625238Y32639619D02*
X50673619Y32688000D01*
X50770380Y32736380D01*
X51012285Y32736380D01*
X51109047Y32688000D01*
X51157428Y32639619D01*
X51205809Y32542857D01*
X51205809Y32446095D01*
X51157428Y32300952D01*
X50576857Y31720380D01*
X51205809Y31720380D01*
X48111714Y28256380D02*
X48692285Y28256380D01*
X48402000Y27240380D02*
X48402000Y28256380D01*
X49030952Y27240380D02*
X49030952Y28256380D01*
X49418000Y28256380D01*
X49514761Y28208000D01*
X49563142Y28159619D01*
X49611523Y28062857D01*
X49611523Y27917714D01*
X49563142Y27820952D01*
X49514761Y27772571D01*
X49418000Y27724190D01*
X49030952Y27724190D01*
X40882571Y29560380D02*
X40882571Y30576380D01*
X41269619Y30576380D01*
X41366380Y30528000D01*
X41414761Y30479619D01*
X41463142Y30382857D01*
X41463142Y30237714D01*
X41414761Y30140952D01*
X41366380Y30092571D01*
X41269619Y30044190D01*
X40882571Y30044190D01*
X41898571Y29560380D02*
X41898571Y30576380D01*
X42382380Y30092571D02*
X42721047Y30092571D01*
X42866190Y29560380D02*
X42382380Y29560380D01*
X42382380Y30576380D01*
X42866190Y30576380D01*
X43204857Y30576380D02*
X43882190Y30576380D01*
X43204857Y29560380D01*
X43882190Y29560380D01*
X44462761Y30576380D02*
X44656285Y30576380D01*
X44753047Y30528000D01*
X44849809Y30431238D01*
X44898190Y30237714D01*
X44898190Y29899047D01*
X44849809Y29705523D01*
X44753047Y29608761D01*
X44656285Y29560380D01*
X44462761Y29560380D01*
X44366000Y29608761D01*
X44269238Y29705523D01*
X44220857Y29899047D01*
X44220857Y30237714D01*
X44269238Y30431238D01*
X44366000Y30528000D01*
X44462761Y30576380D01*
X45865809Y29560380D02*
X45285238Y29560380D01*
X45575523Y29560380D02*
X45575523Y30576380D01*
X45478761Y30431238D01*
X45382000Y30334476D01*
X45285238Y30286095D01*
X42611714Y25926380D02*
X43192285Y25926380D01*
X42902000Y24910380D02*
X42902000Y25926380D01*
X43530952Y24910380D02*
X43530952Y25926380D01*
X43918000Y25926380D01*
X44014761Y25878000D01*
X44063142Y25829619D01*
X44111523Y25732857D01*
X44111523Y25587714D01*
X44063142Y25490952D01*
X44014761Y25442571D01*
X43918000Y25394190D01*
X43530952Y25394190D01*
X11260404Y73444380D02*
X11599071Y72428380D01*
X11937738Y73444380D01*
X12856976Y72525142D02*
X12808595Y72476761D01*
X12663452Y72428380D01*
X12566690Y72428380D01*
X12421547Y72476761D01*
X12324785Y72573523D01*
X12276404Y72670285D01*
X12228023Y72863809D01*
X12228023Y73008952D01*
X12276404Y73202476D01*
X12324785Y73299238D01*
X12421547Y73396000D01*
X12566690Y73444380D01*
X12663452Y73444380D01*
X12808595Y73396000D01*
X12856976Y73347619D01*
X13485928Y73444380D02*
X13679452Y73444380D01*
X13776214Y73396000D01*
X13872976Y73299238D01*
X13921357Y73105714D01*
X13921357Y72767047D01*
X13872976Y72573523D01*
X13776214Y72476761D01*
X13679452Y72428380D01*
X13485928Y72428380D01*
X13389166Y72476761D01*
X13292404Y72573523D01*
X13244023Y72767047D01*
X13244023Y73105714D01*
X13292404Y73299238D01*
X13389166Y73396000D01*
X13485928Y73444380D01*
X14308404Y73347619D02*
X14356785Y73396000D01*
X14453547Y73444380D01*
X14695452Y73444380D01*
X14792214Y73396000D01*
X14840595Y73347619D01*
X14888976Y73250857D01*
X14888976Y73154095D01*
X14840595Y73008952D01*
X14260023Y72428380D01*
X14888976Y72428380D01*
X13021714Y73426380D02*
X13602285Y73426380D01*
X13312000Y72410380D02*
X13312000Y73426380D01*
X13940952Y72410380D02*
X13940952Y73426380D01*
X14328000Y73426380D01*
X14424761Y73378000D01*
X14473142Y73329619D01*
X14521523Y73232857D01*
X14521523Y73087714D01*
X14473142Y72990952D01*
X14424761Y72942571D01*
X14328000Y72894190D01*
X13940952Y72894190D01*
X15990404Y73394380D02*
X16329071Y72378380D01*
X16667738Y73394380D01*
X17586976Y72475142D02*
X17538595Y72426761D01*
X17393452Y72378380D01*
X17296690Y72378380D01*
X17151547Y72426761D01*
X17054785Y72523523D01*
X17006404Y72620285D01*
X16958023Y72813809D01*
X16958023Y72958952D01*
X17006404Y73152476D01*
X17054785Y73249238D01*
X17151547Y73346000D01*
X17296690Y73394380D01*
X17393452Y73394380D01*
X17538595Y73346000D01*
X17586976Y73297619D01*
X18215928Y73394380D02*
X18409452Y73394380D01*
X18506214Y73346000D01*
X18602976Y73249238D01*
X18651357Y73055714D01*
X18651357Y72717047D01*
X18602976Y72523523D01*
X18506214Y72426761D01*
X18409452Y72378380D01*
X18215928Y72378380D01*
X18119166Y72426761D01*
X18022404Y72523523D01*
X17974023Y72717047D01*
X17974023Y73055714D01*
X18022404Y73249238D01*
X18119166Y73346000D01*
X18215928Y73394380D01*
X19618976Y72378380D02*
X19038404Y72378380D01*
X19328690Y72378380D02*
X19328690Y73394380D01*
X19231928Y73249238D01*
X19135166Y73152476D01*
X19038404Y73104095D01*
X16541714Y73436380D02*
X17122285Y73436380D01*
X16832000Y72420380D02*
X16832000Y73436380D01*
X17460952Y72420380D02*
X17460952Y73436380D01*
X17848000Y73436380D01*
X17944761Y73388000D01*
X17993142Y73339619D01*
X18041523Y73242857D01*
X18041523Y73097714D01*
X17993142Y73000952D01*
X17944761Y72952571D01*
X17848000Y72904190D01*
X17460952Y72904190D01*
X2755547Y78408380D02*
X2755547Y79424380D01*
X3336119Y78408380D01*
X3336119Y79424380D01*
X3771547Y78456761D02*
X3916690Y78408380D01*
X4158595Y78408380D01*
X4255357Y78456761D01*
X4303738Y78505142D01*
X4352119Y78601904D01*
X4352119Y78698666D01*
X4303738Y78795428D01*
X4255357Y78843809D01*
X4158595Y78892190D01*
X3965071Y78940571D01*
X3868309Y78988952D01*
X3819928Y79037333D01*
X3771547Y79134095D01*
X3771547Y79230857D01*
X3819928Y79327619D01*
X3868309Y79376000D01*
X3965071Y79424380D01*
X4206976Y79424380D01*
X4352119Y79376000D01*
X4787547Y78940571D02*
X5126214Y78940571D01*
X5271357Y78408380D02*
X4787547Y78408380D01*
X4787547Y79424380D01*
X5271357Y79424380D01*
X5658404Y79327619D02*
X5706785Y79376000D01*
X5803547Y79424380D01*
X6045452Y79424380D01*
X6142214Y79376000D01*
X6190595Y79327619D01*
X6238976Y79230857D01*
X6238976Y79134095D01*
X6190595Y78988952D01*
X5610023Y78408380D01*
X6238976Y78408380D01*
X2053619Y75181714D02*
X2053619Y75762285D01*
X3069619Y75472000D02*
X2053619Y75472000D01*
X3069619Y76100952D02*
X2053619Y76100952D01*
X2053619Y76488000D01*
X2102000Y76584761D01*
X2150380Y76633142D01*
X2247142Y76681523D01*
X2392285Y76681523D01*
X2489047Y76633142D01*
X2537428Y76584761D01*
X2585809Y76488000D01*
X2585809Y76100952D01*
X7415547Y78408380D02*
X7415547Y79424380D01*
X7996119Y78408380D01*
X7996119Y79424380D01*
X8431547Y78456761D02*
X8576690Y78408380D01*
X8818595Y78408380D01*
X8915357Y78456761D01*
X8963738Y78505142D01*
X9012119Y78601904D01*
X9012119Y78698666D01*
X8963738Y78795428D01*
X8915357Y78843809D01*
X8818595Y78892190D01*
X8625071Y78940571D01*
X8528309Y78988952D01*
X8479928Y79037333D01*
X8431547Y79134095D01*
X8431547Y79230857D01*
X8479928Y79327619D01*
X8528309Y79376000D01*
X8625071Y79424380D01*
X8866976Y79424380D01*
X9012119Y79376000D01*
X9447547Y78940571D02*
X9786214Y78940571D01*
X9931357Y78408380D02*
X9447547Y78408380D01*
X9447547Y79424380D01*
X9931357Y79424380D01*
X10898976Y78408380D02*
X10318404Y78408380D01*
X10608690Y78408380D02*
X10608690Y79424380D01*
X10511928Y79279238D01*
X10415166Y79182476D01*
X10318404Y79134095D01*
X5493619Y75181714D02*
X5493619Y75762285D01*
X6509619Y75472000D02*
X5493619Y75472000D01*
X6509619Y76100952D02*
X5493619Y76100952D01*
X5493619Y76488000D01*
X5542000Y76584761D01*
X5590380Y76633142D01*
X5687142Y76681523D01*
X5832285Y76681523D01*
X5929047Y76633142D01*
X5977428Y76584761D01*
X6025809Y76488000D01*
X6025809Y76100952D01*
X35113214Y85408380D02*
X34629404Y85408380D01*
X34629404Y86424380D01*
X35790547Y85940571D02*
X35451880Y85940571D01*
X35451880Y85408380D02*
X35451880Y86424380D01*
X35935690Y86424380D01*
X36516261Y86424380D02*
X36709785Y86424380D01*
X36806547Y86376000D01*
X36903309Y86279238D01*
X36951690Y86085714D01*
X36951690Y85747047D01*
X36903309Y85553523D01*
X36806547Y85456761D01*
X36709785Y85408380D01*
X36516261Y85408380D01*
X36419500Y85456761D01*
X36322738Y85553523D01*
X36274357Y85747047D01*
X36274357Y86085714D01*
X36322738Y86279238D01*
X36419500Y86376000D01*
X36516261Y86424380D01*
X37338738Y86327619D02*
X37387119Y86376000D01*
X37483880Y86424380D01*
X37725785Y86424380D01*
X37822547Y86376000D01*
X37870928Y86327619D01*
X37919309Y86230857D01*
X37919309Y86134095D01*
X37870928Y85988952D01*
X37290357Y85408380D01*
X37919309Y85408380D01*
X35581714Y81586380D02*
X36162285Y81586380D01*
X35872000Y80570380D02*
X35872000Y81586380D01*
X36500952Y80570380D02*
X36500952Y81586380D01*
X36888000Y81586380D01*
X36984761Y81538000D01*
X37033142Y81489619D01*
X37081523Y81392857D01*
X37081523Y81247714D01*
X37033142Y81150952D01*
X36984761Y81102571D01*
X36888000Y81054190D01*
X36500952Y81054190D01*
X31573214Y85408380D02*
X31089404Y85408380D01*
X31089404Y86424380D01*
X32250547Y85940571D02*
X31911880Y85940571D01*
X31911880Y85408380D02*
X31911880Y86424380D01*
X32395690Y86424380D01*
X32976261Y86424380D02*
X33169785Y86424380D01*
X33266547Y86376000D01*
X33363309Y86279238D01*
X33411690Y86085714D01*
X33411690Y85747047D01*
X33363309Y85553523D01*
X33266547Y85456761D01*
X33169785Y85408380D01*
X32976261Y85408380D01*
X32879500Y85456761D01*
X32782738Y85553523D01*
X32734357Y85747047D01*
X32734357Y86085714D01*
X32782738Y86279238D01*
X32879500Y86376000D01*
X32976261Y86424380D01*
X34379309Y85408380D02*
X33798738Y85408380D01*
X34089023Y85408380D02*
X34089023Y86424380D01*
X33992261Y86279238D01*
X33895500Y86182476D01*
X33798738Y86134095D01*
X32041714Y81586380D02*
X32622285Y81586380D01*
X32332000Y80570380D02*
X32332000Y81586380D01*
X32960952Y80570380D02*
X32960952Y81586380D01*
X33348000Y81586380D01*
X33444761Y81538000D01*
X33493142Y81489619D01*
X33541523Y81392857D01*
X33541523Y81247714D01*
X33493142Y81150952D01*
X33444761Y81102571D01*
X33348000Y81054190D01*
X32960952Y81054190D01*
X51849428Y104289404D02*
X51849428Y104628071D01*
X52381619Y104773214D02*
X52381619Y104289404D01*
X51365619Y104289404D01*
X51365619Y104773214D01*
X52381619Y105208642D02*
X51365619Y105208642D01*
X52381619Y105789214D01*
X51365619Y105789214D01*
X51365619Y106127880D02*
X52381619Y106466547D01*
X51365619Y106805214D01*
X51462380Y107095500D02*
X51414000Y107143880D01*
X51365619Y107240642D01*
X51365619Y107482547D01*
X51414000Y107579309D01*
X51462380Y107627690D01*
X51559142Y107676071D01*
X51655904Y107676071D01*
X51801047Y107627690D01*
X52381619Y107047119D01*
X52381619Y107676071D01*
X54041714Y103986380D02*
X54622285Y103986380D01*
X54332000Y102970380D02*
X54332000Y103986380D01*
X54960952Y102970380D02*
X54960952Y103986380D01*
X55348000Y103986380D01*
X55444761Y103938000D01*
X55493142Y103889619D01*
X55541523Y103792857D01*
X55541523Y103647714D01*
X55493142Y103550952D01*
X55444761Y103502571D01*
X55348000Y103454190D01*
X54960952Y103454190D01*
X60989428Y104489404D02*
X60989428Y104828071D01*
X61521619Y104973214D02*
X61521619Y104489404D01*
X60505619Y104489404D01*
X60505619Y104973214D01*
X61521619Y105408642D02*
X60505619Y105408642D01*
X61521619Y105989214D01*
X60505619Y105989214D01*
X60505619Y106327880D02*
X61521619Y106666547D01*
X60505619Y107005214D01*
X61521619Y107876071D02*
X61521619Y107295500D01*
X61521619Y107585785D02*
X60505619Y107585785D01*
X60650761Y107489023D01*
X60747523Y107392261D01*
X60795904Y107295500D01*
X57621714Y104006380D02*
X58202285Y104006380D01*
X57912000Y102990380D02*
X57912000Y104006380D01*
X58540952Y102990380D02*
X58540952Y104006380D01*
X58928000Y104006380D01*
X59024761Y103958000D01*
X59073142Y103909619D01*
X59121523Y103812857D01*
X59121523Y103667714D01*
X59073142Y103570952D01*
X59024761Y103522571D01*
X58928000Y103474190D01*
X58540952Y103474190D01*
X21696095Y89667428D02*
X22470190Y89667428D01*
X23486190Y89280380D02*
X22905619Y89280380D01*
X23195904Y89280380D02*
X23195904Y90296380D01*
X23099142Y90151238D01*
X23002380Y90054476D01*
X22905619Y90006095D01*
X23873238Y90199619D02*
X23921619Y90248000D01*
X24018380Y90296380D01*
X24260285Y90296380D01*
X24357047Y90248000D01*
X24405428Y90199619D01*
X24453809Y90102857D01*
X24453809Y90006095D01*
X24405428Y89860952D01*
X23824857Y89280380D01*
X24453809Y89280380D01*
X24744095Y90296380D02*
X25082761Y89280380D01*
X25421428Y90296380D01*
X26292285Y89280380D02*
X25711714Y89280380D01*
X26002000Y89280380D02*
X26002000Y90296380D01*
X25905238Y90151238D01*
X25808476Y90054476D01*
X25711714Y90006095D01*
X17969904Y87667428D02*
X18744000Y87667428D01*
X19760000Y87280380D02*
X19179428Y87280380D01*
X19469714Y87280380D02*
X19469714Y88296380D01*
X19372952Y88151238D01*
X19276190Y88054476D01*
X19179428Y88006095D01*
X20147047Y88199619D02*
X20195428Y88248000D01*
X20292190Y88296380D01*
X20534095Y88296380D01*
X20630857Y88248000D01*
X20679238Y88199619D01*
X20727619Y88102857D01*
X20727619Y88006095D01*
X20679238Y87860952D01*
X20098666Y87280380D01*
X20727619Y87280380D01*
X21017904Y88296380D02*
X21356571Y87280380D01*
X21695238Y88296380D01*
X23953238Y26013619D02*
X23856476Y26062000D01*
X23759714Y26158761D01*
X23614571Y26303904D01*
X23517809Y26352285D01*
X23421047Y26352285D01*
X23469428Y26110380D02*
X23372666Y26158761D01*
X23275904Y26255523D01*
X23227523Y26449047D01*
X23227523Y26787714D01*
X23275904Y26981238D01*
X23372666Y27078000D01*
X23469428Y27126380D01*
X23662952Y27126380D01*
X23759714Y27078000D01*
X23856476Y26981238D01*
X23904857Y26787714D01*
X23904857Y26449047D01*
X23856476Y26255523D01*
X23759714Y26158761D01*
X23662952Y26110380D01*
X23469428Y26110380D01*
X24291904Y27029619D02*
X24340285Y27078000D01*
X24437047Y27126380D01*
X24678952Y27126380D01*
X24775714Y27078000D01*
X24824095Y27029619D01*
X24872476Y26932857D01*
X24872476Y26836095D01*
X24824095Y26690952D01*
X24243523Y26110380D01*
X24872476Y26110380D01*
X23113619Y24949904D02*
X23113619Y25578857D01*
X23500666Y25240190D01*
X23500666Y25385333D01*
X23549047Y25482095D01*
X23597428Y25530476D01*
X23694190Y25578857D01*
X23936095Y25578857D01*
X24032857Y25530476D01*
X24081238Y25482095D01*
X24129619Y25385333D01*
X24129619Y25095047D01*
X24081238Y24998285D01*
X24032857Y24949904D01*
X24129619Y26062666D02*
X24129619Y26256190D01*
X24081238Y26352952D01*
X24032857Y26401333D01*
X23887714Y26498095D01*
X23694190Y26546476D01*
X23307142Y26546476D01*
X23210380Y26498095D01*
X23162000Y26449714D01*
X23113619Y26352952D01*
X23113619Y26159428D01*
X23162000Y26062666D01*
X23210380Y26014285D01*
X23307142Y25965904D01*
X23549047Y25965904D01*
X23645809Y26014285D01*
X23694190Y26062666D01*
X23742571Y26159428D01*
X23742571Y26352952D01*
X23694190Y26449714D01*
X23645809Y26498095D01*
X23549047Y26546476D01*
X23113619Y27175428D02*
X23113619Y27272190D01*
X23162000Y27368952D01*
X23210380Y27417333D01*
X23307142Y27465714D01*
X23500666Y27514095D01*
X23742571Y27514095D01*
X23936095Y27465714D01*
X24032857Y27417333D01*
X24081238Y27368952D01*
X24129619Y27272190D01*
X24129619Y27175428D01*
X24081238Y27078666D01*
X24032857Y27030285D01*
X23936095Y26981904D01*
X23742571Y26933523D01*
X23500666Y26933523D01*
X23307142Y26981904D01*
X23210380Y27030285D01*
X23162000Y27078666D01*
X23113619Y27175428D01*
X23452285Y28384952D02*
X24129619Y28384952D01*
X23065238Y28143047D02*
X23790952Y27901142D01*
X23790952Y28530095D01*
X34183238Y51353619D02*
X34086476Y51402000D01*
X33989714Y51498761D01*
X33844571Y51643904D01*
X33747809Y51692285D01*
X33651047Y51692285D01*
X33699428Y51450380D02*
X33602666Y51498761D01*
X33505904Y51595523D01*
X33457523Y51789047D01*
X33457523Y52127714D01*
X33505904Y52321238D01*
X33602666Y52418000D01*
X33699428Y52466380D01*
X33892952Y52466380D01*
X33989714Y52418000D01*
X34086476Y52321238D01*
X34134857Y52127714D01*
X34134857Y51789047D01*
X34086476Y51595523D01*
X33989714Y51498761D01*
X33892952Y51450380D01*
X33699428Y51450380D01*
X35102476Y51450380D02*
X34521904Y51450380D01*
X34812190Y51450380D02*
X34812190Y52466380D01*
X34715428Y52321238D01*
X34618666Y52224476D01*
X34521904Y52176095D01*
X34153619Y49829904D02*
X34153619Y50458857D01*
X34540666Y50120190D01*
X34540666Y50265333D01*
X34589047Y50362095D01*
X34637428Y50410476D01*
X34734190Y50458857D01*
X34976095Y50458857D01*
X35072857Y50410476D01*
X35121238Y50362095D01*
X35169619Y50265333D01*
X35169619Y49975047D01*
X35121238Y49878285D01*
X35072857Y49829904D01*
X35169619Y50942666D02*
X35169619Y51136190D01*
X35121238Y51232952D01*
X35072857Y51281333D01*
X34927714Y51378095D01*
X34734190Y51426476D01*
X34347142Y51426476D01*
X34250380Y51378095D01*
X34202000Y51329714D01*
X34153619Y51232952D01*
X34153619Y51039428D01*
X34202000Y50942666D01*
X34250380Y50894285D01*
X34347142Y50845904D01*
X34589047Y50845904D01*
X34685809Y50894285D01*
X34734190Y50942666D01*
X34782571Y51039428D01*
X34782571Y51232952D01*
X34734190Y51329714D01*
X34685809Y51378095D01*
X34589047Y51426476D01*
X34153619Y52055428D02*
X34153619Y52152190D01*
X34202000Y52248952D01*
X34250380Y52297333D01*
X34347142Y52345714D01*
X34540666Y52394095D01*
X34782571Y52394095D01*
X34976095Y52345714D01*
X35072857Y52297333D01*
X35121238Y52248952D01*
X35169619Y52152190D01*
X35169619Y52055428D01*
X35121238Y51958666D01*
X35072857Y51910285D01*
X34976095Y51861904D01*
X34782571Y51813523D01*
X34540666Y51813523D01*
X34347142Y51861904D01*
X34250380Y51910285D01*
X34202000Y51958666D01*
X34153619Y52055428D01*
X34492285Y53264952D02*
X35169619Y53264952D01*
X34105238Y53023047D02*
X34830952Y52781142D01*
X34830952Y53410095D01*
X11942404Y86154380D02*
X11942404Y85331904D01*
X11990785Y85235142D01*
X12039166Y85186761D01*
X12135928Y85138380D01*
X12329452Y85138380D01*
X12426214Y85186761D01*
X12474595Y85235142D01*
X12522976Y85331904D01*
X12522976Y86154380D01*
X13442214Y86154380D02*
X13248690Y86154380D01*
X13151928Y86106000D01*
X13103547Y86057619D01*
X13006785Y85912476D01*
X12958404Y85718952D01*
X12958404Y85331904D01*
X13006785Y85235142D01*
X13055166Y85186761D01*
X13151928Y85138380D01*
X13345452Y85138380D01*
X13442214Y85186761D01*
X13490595Y85235142D01*
X13538976Y85331904D01*
X13538976Y85573809D01*
X13490595Y85670571D01*
X13442214Y85718952D01*
X13345452Y85767333D01*
X13151928Y85767333D01*
X13055166Y85718952D01*
X13006785Y85670571D01*
X12958404Y85573809D01*
D12*
X7139619Y83891035D02*
X6123619Y83891035D01*
X7139619Y84471606D02*
X6559047Y84036178D01*
X6123619Y84471606D02*
X6704190Y83891035D01*
X6849333Y84858654D02*
X6849333Y85342463D01*
X7139619Y84761892D02*
X6123619Y85100559D01*
X7139619Y85439225D01*
X6123619Y85681130D02*
X6123619Y86358463D01*
X7139619Y85923035D01*
X6559047Y86890654D02*
X6510666Y86793892D01*
X6462285Y86745511D01*
X6365523Y86697130D01*
X6317142Y86697130D01*
X6220380Y86745511D01*
X6172000Y86793892D01*
X6123619Y86890654D01*
X6123619Y87084178D01*
X6172000Y87180940D01*
X6220380Y87229320D01*
X6317142Y87277701D01*
X6365523Y87277701D01*
X6462285Y87229320D01*
X6510666Y87180940D01*
X6559047Y87084178D01*
X6559047Y86890654D01*
X6607428Y86793892D01*
X6655809Y86745511D01*
X6752571Y86697130D01*
X6946095Y86697130D01*
X7042857Y86745511D01*
X7091238Y86793892D01*
X7139619Y86890654D01*
X7139619Y87084178D01*
X7091238Y87180940D01*
X7042857Y87229320D01*
X6946095Y87277701D01*
X6752571Y87277701D01*
X6655809Y87229320D01*
X6607428Y87180940D01*
X6559047Y87084178D01*
X7139619Y88196940D02*
X7139619Y87713130D01*
X6123619Y87713130D01*
X6123619Y88729130D02*
X6123619Y88825892D01*
X6172000Y88922654D01*
X6220380Y88971035D01*
X6317142Y89019416D01*
X6510666Y89067797D01*
X6752571Y89067797D01*
X6946095Y89019416D01*
X7042857Y88971035D01*
X7091238Y88922654D01*
X7139619Y88825892D01*
X7139619Y88729130D01*
X7091238Y88632368D01*
X7042857Y88583987D01*
X6946095Y88535606D01*
X6752571Y88487225D01*
X6510666Y88487225D01*
X6317142Y88535606D01*
X6220380Y88583987D01*
X6172000Y88632368D01*
X6123619Y88729130D01*
X6123619Y89987035D02*
X6123619Y89503225D01*
X6607428Y89454844D01*
X6559047Y89503225D01*
X6510666Y89599987D01*
X6510666Y89841892D01*
X6559047Y89938654D01*
X6607428Y89987035D01*
X6704190Y90035416D01*
X6946095Y90035416D01*
X7042857Y89987035D01*
X7091238Y89938654D01*
X7139619Y89841892D01*
X7139619Y89599987D01*
X7091238Y89503225D01*
X7042857Y89454844D01*
D11*
X22125904Y35086380D02*
X22125904Y34263904D01*
X22174285Y34167142D01*
X22222666Y34118761D01*
X22319428Y34070380D01*
X22512952Y34070380D01*
X22609714Y34118761D01*
X22658095Y34167142D01*
X22706476Y34263904D01*
X22706476Y35086380D01*
X23674095Y35086380D02*
X23190285Y35086380D01*
X23141904Y34602571D01*
X23190285Y34650952D01*
X23287047Y34699333D01*
X23528952Y34699333D01*
X23625714Y34650952D01*
X23674095Y34602571D01*
X23722476Y34505809D01*
X23722476Y34263904D01*
X23674095Y34167142D01*
X23625714Y34118761D01*
X23528952Y34070380D01*
X23287047Y34070380D01*
X23190285Y34118761D01*
X23141904Y34167142D01*
X17628476Y32117380D02*
X17144666Y32117380D01*
X17144666Y33133380D01*
X17967142Y32117380D02*
X17967142Y33133380D01*
X18305809Y32407666D01*
X18644476Y33133380D01*
X18644476Y32117380D01*
X19031523Y33133380D02*
X19660476Y33133380D01*
X19321809Y32746333D01*
X19466952Y32746333D01*
X19563714Y32697952D01*
X19612095Y32649571D01*
X19660476Y32552809D01*
X19660476Y32310904D01*
X19612095Y32214142D01*
X19563714Y32165761D01*
X19466952Y32117380D01*
X19176666Y32117380D01*
X19079904Y32165761D01*
X19031523Y32214142D01*
X20241047Y32697952D02*
X20144285Y32746333D01*
X20095904Y32794714D01*
X20047523Y32891476D01*
X20047523Y32939857D01*
X20095904Y33036619D01*
X20144285Y33085000D01*
X20241047Y33133380D01*
X20434571Y33133380D01*
X20531333Y33085000D01*
X20579714Y33036619D01*
X20628095Y32939857D01*
X20628095Y32891476D01*
X20579714Y32794714D01*
X20531333Y32746333D01*
X20434571Y32697952D01*
X20241047Y32697952D01*
X20144285Y32649571D01*
X20095904Y32601190D01*
X20047523Y32504428D01*
X20047523Y32310904D01*
X20095904Y32214142D01*
X20144285Y32165761D01*
X20241047Y32117380D01*
X20434571Y32117380D01*
X20531333Y32165761D01*
X20579714Y32214142D01*
X20628095Y32310904D01*
X20628095Y32504428D01*
X20579714Y32601190D01*
X20531333Y32649571D01*
X20434571Y32697952D01*
X21547333Y33133380D02*
X21063523Y33133380D01*
X21015142Y32649571D01*
X21063523Y32697952D01*
X21160285Y32746333D01*
X21402190Y32746333D01*
X21498952Y32697952D01*
X21547333Y32649571D01*
X21595714Y32552809D01*
X21595714Y32310904D01*
X21547333Y32214142D01*
X21498952Y32165761D01*
X21402190Y32117380D01*
X21160285Y32117380D01*
X21063523Y32165761D01*
X21015142Y32214142D01*
X35715904Y79736380D02*
X35715904Y78913904D01*
X35764285Y78817142D01*
X35812666Y78768761D01*
X35909428Y78720380D01*
X36102952Y78720380D01*
X36199714Y78768761D01*
X36248095Y78817142D01*
X36296476Y78913904D01*
X36296476Y79736380D01*
X37215714Y79397714D02*
X37215714Y78720380D01*
X36973809Y79784761D02*
X36731904Y79059047D01*
X37360857Y79059047D01*
X33194619Y74742476D02*
X33194619Y74258666D01*
X32178619Y74258666D01*
X33194619Y75081142D02*
X32178619Y75081142D01*
X32904333Y75419809D01*
X32178619Y75758476D01*
X33194619Y75758476D01*
X32178619Y76145523D02*
X32178619Y76774476D01*
X32565666Y76435809D01*
X32565666Y76580952D01*
X32614047Y76677714D01*
X32662428Y76726095D01*
X32759190Y76774476D01*
X33001095Y76774476D01*
X33097857Y76726095D01*
X33146238Y76677714D01*
X33194619Y76580952D01*
X33194619Y76290666D01*
X33146238Y76193904D01*
X33097857Y76145523D01*
X32614047Y77355047D02*
X32565666Y77258285D01*
X32517285Y77209904D01*
X32420523Y77161523D01*
X32372142Y77161523D01*
X32275380Y77209904D01*
X32227000Y77258285D01*
X32178619Y77355047D01*
X32178619Y77548571D01*
X32227000Y77645333D01*
X32275380Y77693714D01*
X32372142Y77742095D01*
X32420523Y77742095D01*
X32517285Y77693714D01*
X32565666Y77645333D01*
X32614047Y77548571D01*
X32614047Y77355047D01*
X32662428Y77258285D01*
X32710809Y77209904D01*
X32807571Y77161523D01*
X33001095Y77161523D01*
X33097857Y77209904D01*
X33146238Y77258285D01*
X33194619Y77355047D01*
X33194619Y77548571D01*
X33146238Y77645333D01*
X33097857Y77693714D01*
X33001095Y77742095D01*
X32807571Y77742095D01*
X32710809Y77693714D01*
X32662428Y77645333D01*
X32614047Y77548571D01*
X32178619Y78661333D02*
X32178619Y78177523D01*
X32662428Y78129142D01*
X32614047Y78177523D01*
X32565666Y78274285D01*
X32565666Y78516190D01*
X32614047Y78612952D01*
X32662428Y78661333D01*
X32759190Y78709714D01*
X33001095Y78709714D01*
X33097857Y78661333D01*
X33146238Y78612952D01*
X33194619Y78516190D01*
X33194619Y78274285D01*
X33146238Y78177523D01*
X33097857Y78129142D01*
X32457904Y55489380D02*
X32457904Y54666904D01*
X32506285Y54570142D01*
X32554666Y54521761D01*
X32651428Y54473380D01*
X32844952Y54473380D01*
X32941714Y54521761D01*
X32990095Y54570142D01*
X33038476Y54666904D01*
X33038476Y55489380D01*
X33425523Y55489380D02*
X34054476Y55489380D01*
X33715809Y55102333D01*
X33860952Y55102333D01*
X33957714Y55053952D01*
X34006095Y55005571D01*
X34054476Y54908809D01*
X34054476Y54666904D01*
X34006095Y54570142D01*
X33957714Y54521761D01*
X33860952Y54473380D01*
X33570666Y54473380D01*
X33473904Y54521761D01*
X33425523Y54570142D01*
X31514476Y55973380D02*
X31030666Y55973380D01*
X31030666Y56989380D01*
X31853142Y55973380D02*
X31853142Y56989380D01*
X32191809Y56263666D01*
X32530476Y56989380D01*
X32530476Y55973380D01*
X32917523Y56989380D02*
X33546476Y56989380D01*
X33207809Y56602333D01*
X33352952Y56602333D01*
X33449714Y56553952D01*
X33498095Y56505571D01*
X33546476Y56408809D01*
X33546476Y56166904D01*
X33498095Y56070142D01*
X33449714Y56021761D01*
X33352952Y55973380D01*
X33062666Y55973380D01*
X32965904Y56021761D01*
X32917523Y56070142D01*
X34127047Y56553952D02*
X34030285Y56602333D01*
X33981904Y56650714D01*
X33933523Y56747476D01*
X33933523Y56795857D01*
X33981904Y56892619D01*
X34030285Y56941000D01*
X34127047Y56989380D01*
X34320571Y56989380D01*
X34417333Y56941000D01*
X34465714Y56892619D01*
X34514095Y56795857D01*
X34514095Y56747476D01*
X34465714Y56650714D01*
X34417333Y56602333D01*
X34320571Y56553952D01*
X34127047Y56553952D01*
X34030285Y56505571D01*
X33981904Y56457190D01*
X33933523Y56360428D01*
X33933523Y56166904D01*
X33981904Y56070142D01*
X34030285Y56021761D01*
X34127047Y55973380D01*
X34320571Y55973380D01*
X34417333Y56021761D01*
X34465714Y56070142D01*
X34514095Y56166904D01*
X34514095Y56360428D01*
X34465714Y56457190D01*
X34417333Y56505571D01*
X34320571Y56553952D01*
X35433333Y56989380D02*
X34949523Y56989380D01*
X34901142Y56505571D01*
X34949523Y56553952D01*
X35046285Y56602333D01*
X35288190Y56602333D01*
X35384952Y56553952D01*
X35433333Y56505571D01*
X35481714Y56408809D01*
X35481714Y56166904D01*
X35433333Y56070142D01*
X35384952Y56021761D01*
X35288190Y55973380D01*
X35046285Y55973380D01*
X34949523Y56021761D01*
X34901142Y56070142D01*
X32975904Y50586380D02*
X32975904Y49763904D01*
X33024285Y49667142D01*
X33072666Y49618761D01*
X33169428Y49570380D01*
X33362952Y49570380D01*
X33459714Y49618761D01*
X33508095Y49667142D01*
X33556476Y49763904D01*
X33556476Y50586380D01*
X33991904Y50489619D02*
X34040285Y50538000D01*
X34137047Y50586380D01*
X34378952Y50586380D01*
X34475714Y50538000D01*
X34524095Y50489619D01*
X34572476Y50392857D01*
X34572476Y50296095D01*
X34524095Y50150952D01*
X33943523Y49570380D01*
X34572476Y49570380D01*
X31456476Y47773380D02*
X30972666Y47773380D01*
X30972666Y48789380D01*
X31795142Y47773380D02*
X31795142Y48789380D01*
X32133809Y48063666D01*
X32472476Y48789380D01*
X32472476Y47773380D01*
X32859523Y48789380D02*
X33488476Y48789380D01*
X33149809Y48402333D01*
X33294952Y48402333D01*
X33391714Y48353952D01*
X33440095Y48305571D01*
X33488476Y48208809D01*
X33488476Y47966904D01*
X33440095Y47870142D01*
X33391714Y47821761D01*
X33294952Y47773380D01*
X33004666Y47773380D01*
X32907904Y47821761D01*
X32859523Y47870142D01*
X34069047Y48353952D02*
X33972285Y48402333D01*
X33923904Y48450714D01*
X33875523Y48547476D01*
X33875523Y48595857D01*
X33923904Y48692619D01*
X33972285Y48741000D01*
X34069047Y48789380D01*
X34262571Y48789380D01*
X34359333Y48741000D01*
X34407714Y48692619D01*
X34456095Y48595857D01*
X34456095Y48547476D01*
X34407714Y48450714D01*
X34359333Y48402333D01*
X34262571Y48353952D01*
X34069047Y48353952D01*
X33972285Y48305571D01*
X33923904Y48257190D01*
X33875523Y48160428D01*
X33875523Y47966904D01*
X33923904Y47870142D01*
X33972285Y47821761D01*
X34069047Y47773380D01*
X34262571Y47773380D01*
X34359333Y47821761D01*
X34407714Y47870142D01*
X34456095Y47966904D01*
X34456095Y48160428D01*
X34407714Y48257190D01*
X34359333Y48305571D01*
X34262571Y48353952D01*
X35375333Y48789380D02*
X34891523Y48789380D01*
X34843142Y48305571D01*
X34891523Y48353952D01*
X34988285Y48402333D01*
X35230190Y48402333D01*
X35326952Y48353952D01*
X35375333Y48305571D01*
X35423714Y48208809D01*
X35423714Y47966904D01*
X35375333Y47870142D01*
X35326952Y47821761D01*
X35230190Y47773380D01*
X34988285Y47773380D01*
X34891523Y47821761D01*
X34843142Y47870142D01*
X60765904Y100816380D02*
X60765904Y99993904D01*
X60814285Y99897142D01*
X60862666Y99848761D01*
X60959428Y99800380D01*
X61152952Y99800380D01*
X61249714Y99848761D01*
X61298095Y99897142D01*
X61346476Y99993904D01*
X61346476Y100816380D01*
X62362476Y99800380D02*
X61781904Y99800380D01*
X62072190Y99800380D02*
X62072190Y100816380D01*
X61975428Y100671238D01*
X61878666Y100574476D01*
X61781904Y100526095D01*
X58342619Y95494476D02*
X58342619Y95010666D01*
X57326619Y95010666D01*
X58342619Y95833142D02*
X57326619Y95833142D01*
X58052333Y96171809D01*
X57326619Y96510476D01*
X58342619Y96510476D01*
X57326619Y96897523D02*
X57326619Y97526476D01*
X57713666Y97187809D01*
X57713666Y97332952D01*
X57762047Y97429714D01*
X57810428Y97478095D01*
X57907190Y97526476D01*
X58149095Y97526476D01*
X58245857Y97478095D01*
X58294238Y97429714D01*
X58342619Y97332952D01*
X58342619Y97042666D01*
X58294238Y96945904D01*
X58245857Y96897523D01*
X57762047Y98107047D02*
X57713666Y98010285D01*
X57665285Y97961904D01*
X57568523Y97913523D01*
X57520142Y97913523D01*
X57423380Y97961904D01*
X57375000Y98010285D01*
X57326619Y98107047D01*
X57326619Y98300571D01*
X57375000Y98397333D01*
X57423380Y98445714D01*
X57520142Y98494095D01*
X57568523Y98494095D01*
X57665285Y98445714D01*
X57713666Y98397333D01*
X57762047Y98300571D01*
X57762047Y98107047D01*
X57810428Y98010285D01*
X57858809Y97961904D01*
X57955571Y97913523D01*
X58149095Y97913523D01*
X58245857Y97961904D01*
X58294238Y98010285D01*
X58342619Y98107047D01*
X58342619Y98300571D01*
X58294238Y98397333D01*
X58245857Y98445714D01*
X58149095Y98494095D01*
X57955571Y98494095D01*
X57858809Y98445714D01*
X57810428Y98397333D01*
X57762047Y98300571D01*
X57326619Y99413333D02*
X57326619Y98929523D01*
X57810428Y98881142D01*
X57762047Y98929523D01*
X57713666Y99026285D01*
X57713666Y99268190D01*
X57762047Y99364952D01*
X57810428Y99413333D01*
X57907190Y99461714D01*
X58149095Y99461714D01*
X58245857Y99413333D01*
X58294238Y99364952D01*
X58342619Y99268190D01*
X58342619Y99026285D01*
X58294238Y98929523D01*
X58245857Y98881142D01*
X12465904Y58566380D02*
X12465904Y57743904D01*
X12514285Y57647142D01*
X12562666Y57598761D01*
X12659428Y57550380D01*
X12852952Y57550380D01*
X12949714Y57598761D01*
X12998095Y57647142D01*
X13046476Y57743904D01*
X13046476Y58566380D01*
X13723809Y58566380D02*
X13820571Y58566380D01*
X13917333Y58518000D01*
X13965714Y58469619D01*
X14014095Y58372857D01*
X14062476Y58179333D01*
X14062476Y57937428D01*
X14014095Y57743904D01*
X13965714Y57647142D01*
X13917333Y57598761D01*
X13820571Y57550380D01*
X13723809Y57550380D01*
X13627047Y57598761D01*
X13578666Y57647142D01*
X13530285Y57743904D01*
X13481904Y57937428D01*
X13481904Y58179333D01*
X13530285Y58372857D01*
X13578666Y58469619D01*
X13627047Y58518000D01*
X13723809Y58566380D01*
X13783919Y49854757D02*
X13783919Y49370947D01*
X12767919Y49370947D01*
X13783919Y50193423D02*
X12767919Y50193423D01*
X13493633Y50532090D01*
X12767919Y50870757D01*
X13783919Y50870757D01*
X13783919Y51886757D02*
X13783919Y51306185D01*
X13783919Y51596471D02*
X12767919Y51596471D01*
X12913061Y51499709D01*
X13009823Y51402947D01*
X13058204Y51306185D01*
X12767919Y52225423D02*
X12767919Y52854376D01*
X13154966Y52515709D01*
X13154966Y52660852D01*
X13203347Y52757614D01*
X13251728Y52805995D01*
X13348490Y52854376D01*
X13590395Y52854376D01*
X13687157Y52805995D01*
X13735538Y52757614D01*
X13783919Y52660852D01*
X13783919Y52370566D01*
X13735538Y52273804D01*
X13687157Y52225423D01*
X12767919Y53193042D02*
X12767919Y53870376D01*
X13783919Y53434947D01*
X12767919Y54450947D02*
X12767919Y54547709D01*
X12816300Y54644471D01*
X12864680Y54692852D01*
X12961442Y54741233D01*
X13154966Y54789614D01*
X13396871Y54789614D01*
X13590395Y54741233D01*
X13687157Y54692852D01*
X13735538Y54644471D01*
X13783919Y54547709D01*
X13783919Y54450947D01*
X13735538Y54354185D01*
X13687157Y54305804D01*
X13590395Y54257423D01*
X13396871Y54209042D01*
X13154966Y54209042D01*
X12961442Y54257423D01*
X12864680Y54305804D01*
X12816300Y54354185D01*
X12767919Y54450947D01*
X12767919Y55418566D02*
X12767919Y55515328D01*
X12816300Y55612090D01*
X12864680Y55660471D01*
X12961442Y55708852D01*
X13154966Y55757233D01*
X13396871Y55757233D01*
X13590395Y55708852D01*
X13687157Y55660471D01*
X13735538Y55612090D01*
X13783919Y55515328D01*
X13783919Y55418566D01*
X13735538Y55321804D01*
X13687157Y55273423D01*
X13590395Y55225042D01*
X13396871Y55176661D01*
X13154966Y55176661D01*
X12961442Y55225042D01*
X12864680Y55273423D01*
X12816300Y55321804D01*
X12767919Y55418566D01*
X40256857Y52650380D02*
X39918190Y53134190D01*
X39676285Y52650380D02*
X39676285Y53666380D01*
X40063333Y53666380D01*
X40160095Y53618000D01*
X40208476Y53569619D01*
X40256857Y53472857D01*
X40256857Y53327714D01*
X40208476Y53230952D01*
X40160095Y53182571D01*
X40063333Y53134190D01*
X39676285Y53134190D01*
X41127714Y53327714D02*
X41127714Y52650380D01*
X40885809Y53714761D02*
X40643904Y52989047D01*
X41272857Y52989047D01*
X42192095Y52650380D02*
X41611523Y52650380D01*
X41901809Y52650380D02*
X41901809Y53666380D01*
X41805047Y53521238D01*
X41708285Y53424476D01*
X41611523Y53376095D01*
X38018476Y52610380D02*
X37437904Y52610380D01*
X37728190Y52610380D02*
X37728190Y53626380D01*
X37631428Y53481238D01*
X37534666Y53384476D01*
X37437904Y53336095D01*
X38647428Y53626380D02*
X38744190Y53626380D01*
X38840952Y53578000D01*
X38889333Y53529619D01*
X38937714Y53432857D01*
X38986095Y53239333D01*
X38986095Y52997428D01*
X38937714Y52803904D01*
X38889333Y52707142D01*
X38840952Y52658761D01*
X38744190Y52610380D01*
X38647428Y52610380D01*
X38550666Y52658761D01*
X38502285Y52707142D01*
X38453904Y52803904D01*
X38405523Y52997428D01*
X38405523Y53239333D01*
X38453904Y53432857D01*
X38502285Y53529619D01*
X38550666Y53578000D01*
X38647428Y53626380D01*
X39421523Y52610380D02*
X39421523Y53626380D01*
X40002095Y52610380D02*
X39566666Y53190952D01*
X40002095Y53626380D02*
X39421523Y53045809D01*
X38459619Y59506857D02*
X37975809Y59168190D01*
X38459619Y58926285D02*
X37443619Y58926285D01*
X37443619Y59313333D01*
X37492000Y59410095D01*
X37540380Y59458476D01*
X37637142Y59506857D01*
X37782285Y59506857D01*
X37879047Y59458476D01*
X37927428Y59410095D01*
X37975809Y59313333D01*
X37975809Y58926285D01*
X37782285Y60377714D02*
X38459619Y60377714D01*
X37395238Y60135809D02*
X38120952Y59893904D01*
X38120952Y60522857D01*
X37443619Y61103428D02*
X37443619Y61200190D01*
X37492000Y61296952D01*
X37540380Y61345333D01*
X37637142Y61393714D01*
X37830666Y61442095D01*
X38072571Y61442095D01*
X38266095Y61393714D01*
X38362857Y61345333D01*
X38411238Y61296952D01*
X38459619Y61200190D01*
X38459619Y61103428D01*
X38411238Y61006666D01*
X38362857Y60958285D01*
X38266095Y60909904D01*
X38072571Y60861523D01*
X37830666Y60861523D01*
X37637142Y60909904D01*
X37540380Y60958285D01*
X37492000Y61006666D01*
X37443619Y61103428D01*
X36809619Y56468476D02*
X36809619Y55887904D01*
X36809619Y56178190D02*
X35793619Y56178190D01*
X35938761Y56081428D01*
X36035523Y55984666D01*
X36083904Y55887904D01*
X35793619Y57097428D02*
X35793619Y57194190D01*
X35842000Y57290952D01*
X35890380Y57339333D01*
X35987142Y57387714D01*
X36180666Y57436095D01*
X36422571Y57436095D01*
X36616095Y57387714D01*
X36712857Y57339333D01*
X36761238Y57290952D01*
X36809619Y57194190D01*
X36809619Y57097428D01*
X36761238Y57000666D01*
X36712857Y56952285D01*
X36616095Y56903904D01*
X36422571Y56855523D01*
X36180666Y56855523D01*
X35987142Y56903904D01*
X35890380Y56952285D01*
X35842000Y57000666D01*
X35793619Y57097428D01*
X36809619Y57871523D02*
X35793619Y57871523D01*
X36809619Y58452095D02*
X36229047Y58016666D01*
X35793619Y58452095D02*
X36374190Y57871523D01*
X32856857Y32530380D02*
X32518190Y33014190D01*
X32276285Y32530380D02*
X32276285Y33546380D01*
X32663333Y33546380D01*
X32760095Y33498000D01*
X32808476Y33449619D01*
X32856857Y33352857D01*
X32856857Y33207714D01*
X32808476Y33110952D01*
X32760095Y33062571D01*
X32663333Y33014190D01*
X32276285Y33014190D01*
X33195523Y33546380D02*
X33824476Y33546380D01*
X33485809Y33159333D01*
X33630952Y33159333D01*
X33727714Y33110952D01*
X33776095Y33062571D01*
X33824476Y32965809D01*
X33824476Y32723904D01*
X33776095Y32627142D01*
X33727714Y32578761D01*
X33630952Y32530380D01*
X33340666Y32530380D01*
X33243904Y32578761D01*
X33195523Y32627142D01*
X34308285Y32530380D02*
X34501809Y32530380D01*
X34598571Y32578761D01*
X34646952Y32627142D01*
X34743714Y32772285D01*
X34792095Y32965809D01*
X34792095Y33352857D01*
X34743714Y33449619D01*
X34695333Y33498000D01*
X34598571Y33546380D01*
X34405047Y33546380D01*
X34308285Y33498000D01*
X34259904Y33449619D01*
X34211523Y33352857D01*
X34211523Y33110952D01*
X34259904Y33014190D01*
X34308285Y32965809D01*
X34405047Y32917428D01*
X34598571Y32917428D01*
X34695333Y32965809D01*
X34743714Y33014190D01*
X34792095Y33110952D01*
X32432666Y35948380D02*
X31852095Y35948380D01*
X32142380Y35948380D02*
X32142380Y36964380D01*
X32045619Y36819238D01*
X31948857Y36722476D01*
X31852095Y36674095D01*
X33061619Y36964380D02*
X33158380Y36964380D01*
X33255142Y36916000D01*
X33303523Y36867619D01*
X33351904Y36770857D01*
X33400285Y36577333D01*
X33400285Y36335428D01*
X33351904Y36141904D01*
X33303523Y36045142D01*
X33255142Y35996761D01*
X33158380Y35948380D01*
X33061619Y35948380D01*
X32964857Y35996761D01*
X32916476Y36045142D01*
X32868095Y36141904D01*
X32819714Y36335428D01*
X32819714Y36577333D01*
X32868095Y36770857D01*
X32916476Y36867619D01*
X32964857Y36916000D01*
X33061619Y36964380D01*
X34029238Y36964380D02*
X34126000Y36964380D01*
X34222761Y36916000D01*
X34271142Y36867619D01*
X34319523Y36770857D01*
X34367904Y36577333D01*
X34367904Y36335428D01*
X34319523Y36141904D01*
X34271142Y36045142D01*
X34222761Y35996761D01*
X34126000Y35948380D01*
X34029238Y35948380D01*
X33932476Y35996761D01*
X33884095Y36045142D01*
X33835714Y36141904D01*
X33787333Y36335428D01*
X33787333Y36577333D01*
X33835714Y36770857D01*
X33884095Y36867619D01*
X33932476Y36916000D01*
X34029238Y36964380D01*
X34803333Y35948380D02*
X34803333Y36964380D01*
X35383904Y35948380D02*
X34948476Y36528952D01*
X35383904Y36964380D02*
X34803333Y36383809D01*
X39416857Y35150380D02*
X39078190Y35634190D01*
X38836285Y35150380D02*
X38836285Y36166380D01*
X39223333Y36166380D01*
X39320095Y36118000D01*
X39368476Y36069619D01*
X39416857Y35972857D01*
X39416857Y35827714D01*
X39368476Y35730952D01*
X39320095Y35682571D01*
X39223333Y35634190D01*
X38836285Y35634190D01*
X39755523Y36166380D02*
X40384476Y36166380D01*
X40045809Y35779333D01*
X40190952Y35779333D01*
X40287714Y35730952D01*
X40336095Y35682571D01*
X40384476Y35585809D01*
X40384476Y35343904D01*
X40336095Y35247142D01*
X40287714Y35198761D01*
X40190952Y35150380D01*
X39900666Y35150380D01*
X39803904Y35198761D01*
X39755523Y35247142D01*
X40965047Y35730952D02*
X40868285Y35779333D01*
X40819904Y35827714D01*
X40771523Y35924476D01*
X40771523Y35972857D01*
X40819904Y36069619D01*
X40868285Y36118000D01*
X40965047Y36166380D01*
X41158571Y36166380D01*
X41255333Y36118000D01*
X41303714Y36069619D01*
X41352095Y35972857D01*
X41352095Y35924476D01*
X41303714Y35827714D01*
X41255333Y35779333D01*
X41158571Y35730952D01*
X40965047Y35730952D01*
X40868285Y35682571D01*
X40819904Y35634190D01*
X40771523Y35537428D01*
X40771523Y35343904D01*
X40819904Y35247142D01*
X40868285Y35198761D01*
X40965047Y35150380D01*
X41158571Y35150380D01*
X41255333Y35198761D01*
X41303714Y35247142D01*
X41352095Y35343904D01*
X41352095Y35537428D01*
X41303714Y35634190D01*
X41255333Y35682571D01*
X41158571Y35730952D01*
X38960380Y33744095D02*
X38912000Y33792476D01*
X38863619Y33889238D01*
X38863619Y34131142D01*
X38912000Y34227904D01*
X38960380Y34276285D01*
X39057142Y34324666D01*
X39153904Y34324666D01*
X39299047Y34276285D01*
X39879619Y33695714D01*
X39879619Y34324666D01*
X38960380Y34711714D02*
X38912000Y34760095D01*
X38863619Y34856857D01*
X38863619Y35098761D01*
X38912000Y35195523D01*
X38960380Y35243904D01*
X39057142Y35292285D01*
X39153904Y35292285D01*
X39299047Y35243904D01*
X39879619Y34663333D01*
X39879619Y35292285D01*
X38863619Y35921238D02*
X38863619Y36018000D01*
X38912000Y36114761D01*
X38960380Y36163142D01*
X39057142Y36211523D01*
X39250666Y36259904D01*
X39492571Y36259904D01*
X39686095Y36211523D01*
X39782857Y36163142D01*
X39831238Y36114761D01*
X39879619Y36018000D01*
X39879619Y35921238D01*
X39831238Y35824476D01*
X39782857Y35776095D01*
X39686095Y35727714D01*
X39492571Y35679333D01*
X39250666Y35679333D01*
X39057142Y35727714D01*
X38960380Y35776095D01*
X38912000Y35824476D01*
X38863619Y35921238D01*
X39879619Y37275904D02*
X39395809Y36937238D01*
X39879619Y36695333D02*
X38863619Y36695333D01*
X38863619Y37082380D01*
X38912000Y37179142D01*
X38960380Y37227523D01*
X39057142Y37275904D01*
X39202285Y37275904D01*
X39299047Y37227523D01*
X39347428Y37179142D01*
X39395809Y37082380D01*
X39395809Y36695333D01*
X31486857Y41070380D02*
X31148190Y41554190D01*
X30906285Y41070380D02*
X30906285Y42086380D01*
X31293333Y42086380D01*
X31390095Y42038000D01*
X31438476Y41989619D01*
X31486857Y41892857D01*
X31486857Y41747714D01*
X31438476Y41650952D01*
X31390095Y41602571D01*
X31293333Y41554190D01*
X30906285Y41554190D01*
X31825523Y42086380D02*
X32454476Y42086380D01*
X32115809Y41699333D01*
X32260952Y41699333D01*
X32357714Y41650952D01*
X32406095Y41602571D01*
X32454476Y41505809D01*
X32454476Y41263904D01*
X32406095Y41167142D01*
X32357714Y41118761D01*
X32260952Y41070380D01*
X31970666Y41070380D01*
X31873904Y41118761D01*
X31825523Y41167142D01*
X32793142Y42086380D02*
X33470476Y42086380D01*
X33035047Y41070380D01*
X30519523Y42026380D02*
X31148476Y42026380D01*
X30809809Y41639333D01*
X30954952Y41639333D01*
X31051714Y41590952D01*
X31100095Y41542571D01*
X31148476Y41445809D01*
X31148476Y41203904D01*
X31100095Y41107142D01*
X31051714Y41058761D01*
X30954952Y41010380D01*
X30664666Y41010380D01*
X30567904Y41058761D01*
X30519523Y41107142D01*
X31632285Y41010380D02*
X31825809Y41010380D01*
X31922571Y41058761D01*
X31970952Y41107142D01*
X32067714Y41252285D01*
X32116095Y41445809D01*
X32116095Y41832857D01*
X32067714Y41929619D01*
X32019333Y41978000D01*
X31922571Y42026380D01*
X31729047Y42026380D01*
X31632285Y41978000D01*
X31583904Y41929619D01*
X31535523Y41832857D01*
X31535523Y41590952D01*
X31583904Y41494190D01*
X31632285Y41445809D01*
X31729047Y41397428D01*
X31922571Y41397428D01*
X32019333Y41445809D01*
X32067714Y41494190D01*
X32116095Y41590952D01*
X32551523Y41010380D02*
X32551523Y42026380D01*
X33132095Y41010380D02*
X32696666Y41590952D01*
X33132095Y42026380D02*
X32551523Y41445809D01*
X29196857Y34660380D02*
X28858190Y35144190D01*
X28616285Y34660380D02*
X28616285Y35676380D01*
X29003333Y35676380D01*
X29100095Y35628000D01*
X29148476Y35579619D01*
X29196857Y35482857D01*
X29196857Y35337714D01*
X29148476Y35240952D01*
X29100095Y35192571D01*
X29003333Y35144190D01*
X28616285Y35144190D01*
X29535523Y35676380D02*
X30164476Y35676380D01*
X29825809Y35289333D01*
X29970952Y35289333D01*
X30067714Y35240952D01*
X30116095Y35192571D01*
X30164476Y35095809D01*
X30164476Y34853904D01*
X30116095Y34757142D01*
X30067714Y34708761D01*
X29970952Y34660380D01*
X29680666Y34660380D01*
X29583904Y34708761D01*
X29535523Y34757142D01*
X31035333Y35676380D02*
X30841809Y35676380D01*
X30745047Y35628000D01*
X30696666Y35579619D01*
X30599904Y35434476D01*
X30551523Y35240952D01*
X30551523Y34853904D01*
X30599904Y34757142D01*
X30648285Y34708761D01*
X30745047Y34660380D01*
X30938571Y34660380D01*
X31035333Y34708761D01*
X31083714Y34757142D01*
X31132095Y34853904D01*
X31132095Y35095809D01*
X31083714Y35192571D01*
X31035333Y35240952D01*
X30938571Y35289333D01*
X30745047Y35289333D01*
X30648285Y35240952D01*
X30599904Y35192571D01*
X30551523Y35095809D01*
X25390380Y34727904D02*
X25342000Y34776285D01*
X25293619Y34873047D01*
X25293619Y35114952D01*
X25342000Y35211714D01*
X25390380Y35260095D01*
X25487142Y35308476D01*
X25583904Y35308476D01*
X25729047Y35260095D01*
X26309619Y34679523D01*
X26309619Y35308476D01*
X25390380Y35695523D02*
X25342000Y35743904D01*
X25293619Y35840666D01*
X25293619Y36082571D01*
X25342000Y36179333D01*
X25390380Y36227714D01*
X25487142Y36276095D01*
X25583904Y36276095D01*
X25729047Y36227714D01*
X26309619Y35647142D01*
X26309619Y36276095D01*
X26309619Y37292095D02*
X25825809Y36953428D01*
X26309619Y36711523D02*
X25293619Y36711523D01*
X25293619Y37098571D01*
X25342000Y37195333D01*
X25390380Y37243714D01*
X25487142Y37292095D01*
X25632285Y37292095D01*
X25729047Y37243714D01*
X25777428Y37195333D01*
X25825809Y37098571D01*
X25825809Y36711523D01*
X25326857Y44440380D02*
X24988190Y44924190D01*
X24746285Y44440380D02*
X24746285Y45456380D01*
X25133333Y45456380D01*
X25230095Y45408000D01*
X25278476Y45359619D01*
X25326857Y45262857D01*
X25326857Y45117714D01*
X25278476Y45020952D01*
X25230095Y44972571D01*
X25133333Y44924190D01*
X24746285Y44924190D01*
X25665523Y45456380D02*
X26294476Y45456380D01*
X25955809Y45069333D01*
X26100952Y45069333D01*
X26197714Y45020952D01*
X26246095Y44972571D01*
X26294476Y44875809D01*
X26294476Y44633904D01*
X26246095Y44537142D01*
X26197714Y44488761D01*
X26100952Y44440380D01*
X25810666Y44440380D01*
X25713904Y44488761D01*
X25665523Y44537142D01*
X27213714Y45456380D02*
X26729904Y45456380D01*
X26681523Y44972571D01*
X26729904Y45020952D01*
X26826666Y45069333D01*
X27068571Y45069333D01*
X27165333Y45020952D01*
X27213714Y44972571D01*
X27262095Y44875809D01*
X27262095Y44633904D01*
X27213714Y44537142D01*
X27165333Y44488761D01*
X27068571Y44440380D01*
X26826666Y44440380D01*
X26729904Y44488761D01*
X26681523Y44537142D01*
X27924666Y42760380D02*
X27344095Y42760380D01*
X27634380Y42760380D02*
X27634380Y43776380D01*
X27537619Y43631238D01*
X27440857Y43534476D01*
X27344095Y43486095D01*
X28553619Y43776380D02*
X28650380Y43776380D01*
X28747142Y43728000D01*
X28795523Y43679619D01*
X28843904Y43582857D01*
X28892285Y43389333D01*
X28892285Y43147428D01*
X28843904Y42953904D01*
X28795523Y42857142D01*
X28747142Y42808761D01*
X28650380Y42760380D01*
X28553619Y42760380D01*
X28456857Y42808761D01*
X28408476Y42857142D01*
X28360095Y42953904D01*
X28311714Y43147428D01*
X28311714Y43389333D01*
X28360095Y43582857D01*
X28408476Y43679619D01*
X28456857Y43728000D01*
X28553619Y43776380D01*
X29521238Y43776380D02*
X29618000Y43776380D01*
X29714761Y43728000D01*
X29763142Y43679619D01*
X29811523Y43582857D01*
X29859904Y43389333D01*
X29859904Y43147428D01*
X29811523Y42953904D01*
X29763142Y42857142D01*
X29714761Y42808761D01*
X29618000Y42760380D01*
X29521238Y42760380D01*
X29424476Y42808761D01*
X29376095Y42857142D01*
X29327714Y42953904D01*
X29279333Y43147428D01*
X29279333Y43389333D01*
X29327714Y43582857D01*
X29376095Y43679619D01*
X29424476Y43728000D01*
X29521238Y43776380D01*
X30295333Y42760380D02*
X30295333Y43776380D01*
X30875904Y42760380D02*
X30440476Y43340952D01*
X30875904Y43776380D02*
X30295333Y43195809D01*
X27386857Y42590380D02*
X27048190Y43074190D01*
X26806285Y42590380D02*
X26806285Y43606380D01*
X27193333Y43606380D01*
X27290095Y43558000D01*
X27338476Y43509619D01*
X27386857Y43412857D01*
X27386857Y43267714D01*
X27338476Y43170952D01*
X27290095Y43122571D01*
X27193333Y43074190D01*
X26806285Y43074190D01*
X27725523Y43606380D02*
X28354476Y43606380D01*
X28015809Y43219333D01*
X28160952Y43219333D01*
X28257714Y43170952D01*
X28306095Y43122571D01*
X28354476Y43025809D01*
X28354476Y42783904D01*
X28306095Y42687142D01*
X28257714Y42638761D01*
X28160952Y42590380D01*
X27870666Y42590380D01*
X27773904Y42638761D01*
X27725523Y42687142D01*
X29225333Y43267714D02*
X29225333Y42590380D01*
X28983428Y43654761D02*
X28741523Y42929047D01*
X29370476Y42929047D01*
X31731714Y46647714D02*
X31731714Y45970380D01*
X31489809Y47034761D02*
X31247904Y46309047D01*
X31876857Y46309047D01*
X32167142Y46986380D02*
X32844476Y46986380D01*
X32409047Y45970380D01*
X33231523Y45970380D02*
X33231523Y46986380D01*
X33812095Y45970380D02*
X33376666Y46550952D01*
X33812095Y46986380D02*
X33231523Y46405809D01*
X25326857Y47260380D02*
X24988190Y47744190D01*
X24746285Y47260380D02*
X24746285Y48276380D01*
X25133333Y48276380D01*
X25230095Y48228000D01*
X25278476Y48179619D01*
X25326857Y48082857D01*
X25326857Y47937714D01*
X25278476Y47840952D01*
X25230095Y47792571D01*
X25133333Y47744190D01*
X24746285Y47744190D01*
X25665523Y48276380D02*
X26294476Y48276380D01*
X25955809Y47889333D01*
X26100952Y47889333D01*
X26197714Y47840952D01*
X26246095Y47792571D01*
X26294476Y47695809D01*
X26294476Y47453904D01*
X26246095Y47357142D01*
X26197714Y47308761D01*
X26100952Y47260380D01*
X25810666Y47260380D01*
X25713904Y47308761D01*
X25665523Y47357142D01*
X26633142Y48276380D02*
X27262095Y48276380D01*
X26923428Y47889333D01*
X27068571Y47889333D01*
X27165333Y47840952D01*
X27213714Y47792571D01*
X27262095Y47695809D01*
X27262095Y47453904D01*
X27213714Y47357142D01*
X27165333Y47308761D01*
X27068571Y47260380D01*
X26778285Y47260380D01*
X26681523Y47308761D01*
X26633142Y47357142D01*
X30459619Y46784666D02*
X30459619Y46204095D01*
X30459619Y46494380D02*
X29443619Y46494380D01*
X29588761Y46397619D01*
X29685523Y46300857D01*
X29733904Y46204095D01*
X29443619Y47413619D02*
X29443619Y47510380D01*
X29492000Y47607142D01*
X29540380Y47655523D01*
X29637142Y47703904D01*
X29830666Y47752285D01*
X30072571Y47752285D01*
X30266095Y47703904D01*
X30362857Y47655523D01*
X30411238Y47607142D01*
X30459619Y47510380D01*
X30459619Y47413619D01*
X30411238Y47316857D01*
X30362857Y47268476D01*
X30266095Y47220095D01*
X30072571Y47171714D01*
X29830666Y47171714D01*
X29637142Y47220095D01*
X29540380Y47268476D01*
X29492000Y47316857D01*
X29443619Y47413619D01*
X29443619Y48381238D02*
X29443619Y48478000D01*
X29492000Y48574761D01*
X29540380Y48623142D01*
X29637142Y48671523D01*
X29830666Y48719904D01*
X30072571Y48719904D01*
X30266095Y48671523D01*
X30362857Y48623142D01*
X30411238Y48574761D01*
X30459619Y48478000D01*
X30459619Y48381238D01*
X30411238Y48284476D01*
X30362857Y48236095D01*
X30266095Y48187714D01*
X30072571Y48139333D01*
X29830666Y48139333D01*
X29637142Y48187714D01*
X29540380Y48236095D01*
X29492000Y48284476D01*
X29443619Y48381238D01*
X30459619Y49155333D02*
X29443619Y49155333D01*
X30459619Y49735904D02*
X29879047Y49300476D01*
X29443619Y49735904D02*
X30024190Y49155333D01*
X35309619Y40146857D02*
X34825809Y39808190D01*
X35309619Y39566285D02*
X34293619Y39566285D01*
X34293619Y39953333D01*
X34342000Y40050095D01*
X34390380Y40098476D01*
X34487142Y40146857D01*
X34632285Y40146857D01*
X34729047Y40098476D01*
X34777428Y40050095D01*
X34825809Y39953333D01*
X34825809Y39566285D01*
X34293619Y40485523D02*
X34293619Y41114476D01*
X34680666Y40775809D01*
X34680666Y40920952D01*
X34729047Y41017714D01*
X34777428Y41066095D01*
X34874190Y41114476D01*
X35116095Y41114476D01*
X35212857Y41066095D01*
X35261238Y41017714D01*
X35309619Y40920952D01*
X35309619Y40630666D01*
X35261238Y40533904D01*
X35212857Y40485523D01*
X34390380Y41501523D02*
X34342000Y41549904D01*
X34293619Y41646666D01*
X34293619Y41888571D01*
X34342000Y41985333D01*
X34390380Y42033714D01*
X34487142Y42082095D01*
X34583904Y42082095D01*
X34729047Y42033714D01*
X35309619Y41453142D01*
X35309619Y42082095D01*
X36252285Y43011714D02*
X36929619Y43011714D01*
X35865238Y42769809D02*
X36590952Y42527904D01*
X36590952Y43156857D01*
X35913619Y43447142D02*
X35913619Y44124476D01*
X36929619Y43689047D01*
X36929619Y44511523D02*
X35913619Y44511523D01*
X36929619Y45092095D02*
X36349047Y44656666D01*
X35913619Y45092095D02*
X36494190Y44511523D01*
X41479619Y81986857D02*
X40995809Y81648190D01*
X41479619Y81406285D02*
X40463619Y81406285D01*
X40463619Y81793333D01*
X40512000Y81890095D01*
X40560380Y81938476D01*
X40657142Y81986857D01*
X40802285Y81986857D01*
X40899047Y81938476D01*
X40947428Y81890095D01*
X40995809Y81793333D01*
X40995809Y81406285D01*
X40463619Y82325523D02*
X40463619Y82954476D01*
X40850666Y82615809D01*
X40850666Y82760952D01*
X40899047Y82857714D01*
X40947428Y82906095D01*
X41044190Y82954476D01*
X41286095Y82954476D01*
X41382857Y82906095D01*
X41431238Y82857714D01*
X41479619Y82760952D01*
X41479619Y82470666D01*
X41431238Y82373904D01*
X41382857Y82325523D01*
X41479619Y83922095D02*
X41479619Y83341523D01*
X41479619Y83631809D02*
X40463619Y83631809D01*
X40608761Y83535047D01*
X40705523Y83438285D01*
X40753904Y83341523D01*
X43813619Y81711714D02*
X43813619Y81518190D01*
X43862000Y81421428D01*
X43910380Y81373047D01*
X44055523Y81276285D01*
X44249047Y81227904D01*
X44636095Y81227904D01*
X44732857Y81276285D01*
X44781238Y81324666D01*
X44829619Y81421428D01*
X44829619Y81614952D01*
X44781238Y81711714D01*
X44732857Y81760095D01*
X44636095Y81808476D01*
X44394190Y81808476D01*
X44297428Y81760095D01*
X44249047Y81711714D01*
X44200666Y81614952D01*
X44200666Y81421428D01*
X44249047Y81324666D01*
X44297428Y81276285D01*
X44394190Y81227904D01*
X44249047Y82389047D02*
X44200666Y82292285D01*
X44152285Y82243904D01*
X44055523Y82195523D01*
X44007142Y82195523D01*
X43910380Y82243904D01*
X43862000Y82292285D01*
X43813619Y82389047D01*
X43813619Y82582571D01*
X43862000Y82679333D01*
X43910380Y82727714D01*
X44007142Y82776095D01*
X44055523Y82776095D01*
X44152285Y82727714D01*
X44200666Y82679333D01*
X44249047Y82582571D01*
X44249047Y82389047D01*
X44297428Y82292285D01*
X44345809Y82243904D01*
X44442571Y82195523D01*
X44636095Y82195523D01*
X44732857Y82243904D01*
X44781238Y82292285D01*
X44829619Y82389047D01*
X44829619Y82582571D01*
X44781238Y82679333D01*
X44732857Y82727714D01*
X44636095Y82776095D01*
X44442571Y82776095D01*
X44345809Y82727714D01*
X44297428Y82679333D01*
X44249047Y82582571D01*
X44829619Y83211523D02*
X43813619Y83211523D01*
X44829619Y83792095D02*
X44249047Y83356666D01*
X43813619Y83792095D02*
X44394190Y83211523D01*
X7716857Y60760380D02*
X7378190Y61244190D01*
X7136285Y60760380D02*
X7136285Y61776380D01*
X7523333Y61776380D01*
X7620095Y61728000D01*
X7668476Y61679619D01*
X7716857Y61582857D01*
X7716857Y61437714D01*
X7668476Y61340952D01*
X7620095Y61292571D01*
X7523333Y61244190D01*
X7136285Y61244190D01*
X8055523Y61776380D02*
X8684476Y61776380D01*
X8345809Y61389333D01*
X8490952Y61389333D01*
X8587714Y61340952D01*
X8636095Y61292571D01*
X8684476Y61195809D01*
X8684476Y60953904D01*
X8636095Y60857142D01*
X8587714Y60808761D01*
X8490952Y60760380D01*
X8200666Y60760380D01*
X8103904Y60808761D01*
X8055523Y60857142D01*
X9313428Y61776380D02*
X9410190Y61776380D01*
X9506952Y61728000D01*
X9555333Y61679619D01*
X9603714Y61582857D01*
X9652095Y61389333D01*
X9652095Y61147428D01*
X9603714Y60953904D01*
X9555333Y60857142D01*
X9506952Y60808761D01*
X9410190Y60760380D01*
X9313428Y60760380D01*
X9216666Y60808761D01*
X9168285Y60857142D01*
X9119904Y60953904D01*
X9071523Y61147428D01*
X9071523Y61389333D01*
X9119904Y61582857D01*
X9168285Y61679619D01*
X9216666Y61728000D01*
X9313428Y61776380D01*
X7094666Y57690380D02*
X6514095Y57690380D01*
X6804380Y57690380D02*
X6804380Y58706380D01*
X6707619Y58561238D01*
X6610857Y58464476D01*
X6514095Y58416095D01*
X7723619Y58706380D02*
X7820380Y58706380D01*
X7917142Y58658000D01*
X7965523Y58609619D01*
X8013904Y58512857D01*
X8062285Y58319333D01*
X8062285Y58077428D01*
X8013904Y57883904D01*
X7965523Y57787142D01*
X7917142Y57738761D01*
X7820380Y57690380D01*
X7723619Y57690380D01*
X7626857Y57738761D01*
X7578476Y57787142D01*
X7530095Y57883904D01*
X7481714Y58077428D01*
X7481714Y58319333D01*
X7530095Y58512857D01*
X7578476Y58609619D01*
X7626857Y58658000D01*
X7723619Y58706380D01*
X8691238Y58706380D02*
X8788000Y58706380D01*
X8884761Y58658000D01*
X8933142Y58609619D01*
X8981523Y58512857D01*
X9029904Y58319333D01*
X9029904Y58077428D01*
X8981523Y57883904D01*
X8933142Y57787142D01*
X8884761Y57738761D01*
X8788000Y57690380D01*
X8691238Y57690380D01*
X8594476Y57738761D01*
X8546095Y57787142D01*
X8497714Y57883904D01*
X8449333Y58077428D01*
X8449333Y58319333D01*
X8497714Y58512857D01*
X8546095Y58609619D01*
X8594476Y58658000D01*
X8691238Y58706380D01*
X9465333Y57690380D02*
X9465333Y58706380D01*
X10045904Y57690380D02*
X9610476Y58270952D01*
X10045904Y58706380D02*
X9465333Y58125809D01*
X22486857Y50520380D02*
X22148190Y51004190D01*
X21906285Y50520380D02*
X21906285Y51536380D01*
X22293333Y51536380D01*
X22390095Y51488000D01*
X22438476Y51439619D01*
X22486857Y51342857D01*
X22486857Y51197714D01*
X22438476Y51100952D01*
X22390095Y51052571D01*
X22293333Y51004190D01*
X21906285Y51004190D01*
X22873904Y51439619D02*
X22922285Y51488000D01*
X23019047Y51536380D01*
X23260952Y51536380D01*
X23357714Y51488000D01*
X23406095Y51439619D01*
X23454476Y51342857D01*
X23454476Y51246095D01*
X23406095Y51100952D01*
X22825523Y50520380D01*
X23454476Y50520380D01*
X23938285Y50520380D02*
X24131809Y50520380D01*
X24228571Y50568761D01*
X24276952Y50617142D01*
X24373714Y50762285D01*
X24422095Y50955809D01*
X24422095Y51342857D01*
X24373714Y51439619D01*
X24325333Y51488000D01*
X24228571Y51536380D01*
X24035047Y51536380D01*
X23938285Y51488000D01*
X23889904Y51439619D01*
X23841523Y51342857D01*
X23841523Y51100952D01*
X23889904Y51004190D01*
X23938285Y50955809D01*
X24035047Y50907428D01*
X24228571Y50907428D01*
X24325333Y50955809D01*
X24373714Y51004190D01*
X24422095Y51100952D01*
X25438476Y49230380D02*
X24857904Y49230380D01*
X25148190Y49230380D02*
X25148190Y50246380D01*
X25051428Y50101238D01*
X24954666Y50004476D01*
X24857904Y49956095D01*
X26067428Y50246380D02*
X26164190Y50246380D01*
X26260952Y50198000D01*
X26309333Y50149619D01*
X26357714Y50052857D01*
X26406095Y49859333D01*
X26406095Y49617428D01*
X26357714Y49423904D01*
X26309333Y49327142D01*
X26260952Y49278761D01*
X26164190Y49230380D01*
X26067428Y49230380D01*
X25970666Y49278761D01*
X25922285Y49327142D01*
X25873904Y49423904D01*
X25825523Y49617428D01*
X25825523Y49859333D01*
X25873904Y50052857D01*
X25922285Y50149619D01*
X25970666Y50198000D01*
X26067428Y50246380D01*
X26841523Y49230380D02*
X26841523Y50246380D01*
X27422095Y49230380D02*
X26986666Y49810952D01*
X27422095Y50246380D02*
X26841523Y49665809D01*
X36959619Y40126857D02*
X36475809Y39788190D01*
X36959619Y39546285D02*
X35943619Y39546285D01*
X35943619Y39933333D01*
X35992000Y40030095D01*
X36040380Y40078476D01*
X36137142Y40126857D01*
X36282285Y40126857D01*
X36379047Y40078476D01*
X36427428Y40030095D01*
X36475809Y39933333D01*
X36475809Y39546285D01*
X36040380Y40513904D02*
X35992000Y40562285D01*
X35943619Y40659047D01*
X35943619Y40900952D01*
X35992000Y40997714D01*
X36040380Y41046095D01*
X36137142Y41094476D01*
X36233904Y41094476D01*
X36379047Y41046095D01*
X36959619Y40465523D01*
X36959619Y41094476D01*
X36379047Y41675047D02*
X36330666Y41578285D01*
X36282285Y41529904D01*
X36185523Y41481523D01*
X36137142Y41481523D01*
X36040380Y41529904D01*
X35992000Y41578285D01*
X35943619Y41675047D01*
X35943619Y41868571D01*
X35992000Y41965333D01*
X36040380Y42013714D01*
X36137142Y42062095D01*
X36185523Y42062095D01*
X36282285Y42013714D01*
X36330666Y41965333D01*
X36379047Y41868571D01*
X36379047Y41675047D01*
X36427428Y41578285D01*
X36475809Y41529904D01*
X36572571Y41481523D01*
X36766095Y41481523D01*
X36862857Y41529904D01*
X36911238Y41578285D01*
X36959619Y41675047D01*
X36959619Y41868571D01*
X36911238Y41965333D01*
X36862857Y42013714D01*
X36766095Y42062095D01*
X36572571Y42062095D01*
X36475809Y42013714D01*
X36427428Y41965333D01*
X36379047Y41868571D01*
X38489619Y42644666D02*
X38489619Y42064095D01*
X38489619Y42354380D02*
X37473619Y42354380D01*
X37618761Y42257619D01*
X37715523Y42160857D01*
X37763904Y42064095D01*
X37473619Y43273619D02*
X37473619Y43370380D01*
X37522000Y43467142D01*
X37570380Y43515523D01*
X37667142Y43563904D01*
X37860666Y43612285D01*
X38102571Y43612285D01*
X38296095Y43563904D01*
X38392857Y43515523D01*
X38441238Y43467142D01*
X38489619Y43370380D01*
X38489619Y43273619D01*
X38441238Y43176857D01*
X38392857Y43128476D01*
X38296095Y43080095D01*
X38102571Y43031714D01*
X37860666Y43031714D01*
X37667142Y43080095D01*
X37570380Y43128476D01*
X37522000Y43176857D01*
X37473619Y43273619D01*
X37473619Y44241238D02*
X37473619Y44338000D01*
X37522000Y44434761D01*
X37570380Y44483142D01*
X37667142Y44531523D01*
X37860666Y44579904D01*
X38102571Y44579904D01*
X38296095Y44531523D01*
X38392857Y44483142D01*
X38441238Y44434761D01*
X38489619Y44338000D01*
X38489619Y44241238D01*
X38441238Y44144476D01*
X38392857Y44096095D01*
X38296095Y44047714D01*
X38102571Y43999333D01*
X37860666Y43999333D01*
X37667142Y44047714D01*
X37570380Y44096095D01*
X37522000Y44144476D01*
X37473619Y44241238D01*
X38489619Y45015333D02*
X37473619Y45015333D01*
X38489619Y45595904D02*
X37909047Y45160476D01*
X37473619Y45595904D02*
X38054190Y45015333D01*
X23316857Y28630380D02*
X22978190Y29114190D01*
X22736285Y28630380D02*
X22736285Y29646380D01*
X23123333Y29646380D01*
X23220095Y29598000D01*
X23268476Y29549619D01*
X23316857Y29452857D01*
X23316857Y29307714D01*
X23268476Y29210952D01*
X23220095Y29162571D01*
X23123333Y29114190D01*
X22736285Y29114190D01*
X23703904Y29549619D02*
X23752285Y29598000D01*
X23849047Y29646380D01*
X24090952Y29646380D01*
X24187714Y29598000D01*
X24236095Y29549619D01*
X24284476Y29452857D01*
X24284476Y29356095D01*
X24236095Y29210952D01*
X23655523Y28630380D01*
X24284476Y28630380D01*
X24623142Y29646380D02*
X25300476Y29646380D01*
X24865047Y28630380D01*
X18621714Y31320380D02*
X19250666Y31320380D01*
X18912000Y30933333D01*
X19057142Y30933333D01*
X19153904Y30884952D01*
X19202285Y30836571D01*
X19250666Y30739809D01*
X19250666Y30497904D01*
X19202285Y30401142D01*
X19153904Y30352761D01*
X19057142Y30304380D01*
X18766857Y30304380D01*
X18670095Y30352761D01*
X18621714Y30401142D01*
X19589333Y31320380D02*
X20218285Y31320380D01*
X19879619Y30933333D01*
X20024761Y30933333D01*
X20121523Y30884952D01*
X20169904Y30836571D01*
X20218285Y30739809D01*
X20218285Y30497904D01*
X20169904Y30401142D01*
X20121523Y30352761D01*
X20024761Y30304380D01*
X19734476Y30304380D01*
X19637714Y30352761D01*
X19589333Y30401142D01*
X20847238Y31320380D02*
X20944000Y31320380D01*
X21040761Y31272000D01*
X21089142Y31223619D01*
X21137523Y31126857D01*
X21185904Y30933333D01*
X21185904Y30691428D01*
X21137523Y30497904D01*
X21089142Y30401142D01*
X21040761Y30352761D01*
X20944000Y30304380D01*
X20847238Y30304380D01*
X20750476Y30352761D01*
X20702095Y30401142D01*
X20653714Y30497904D01*
X20605333Y30691428D01*
X20605333Y30933333D01*
X20653714Y31126857D01*
X20702095Y31223619D01*
X20750476Y31272000D01*
X20847238Y31320380D01*
X22201904Y30304380D02*
X21863238Y30788190D01*
X21621333Y30304380D02*
X21621333Y31320380D01*
X22008380Y31320380D01*
X22105142Y31272000D01*
X22153523Y31223619D01*
X22201904Y31126857D01*
X22201904Y30981714D01*
X22153523Y30884952D01*
X22105142Y30836571D01*
X22008380Y30788190D01*
X21621333Y30788190D01*
X15986857Y25540380D02*
X15648190Y26024190D01*
X15406285Y25540380D02*
X15406285Y26556380D01*
X15793333Y26556380D01*
X15890095Y26508000D01*
X15938476Y26459619D01*
X15986857Y26362857D01*
X15986857Y26217714D01*
X15938476Y26120952D01*
X15890095Y26072571D01*
X15793333Y26024190D01*
X15406285Y26024190D01*
X16373904Y26459619D02*
X16422285Y26508000D01*
X16519047Y26556380D01*
X16760952Y26556380D01*
X16857714Y26508000D01*
X16906095Y26459619D01*
X16954476Y26362857D01*
X16954476Y26266095D01*
X16906095Y26120952D01*
X16325523Y25540380D01*
X16954476Y25540380D01*
X17825333Y26556380D02*
X17631809Y26556380D01*
X17535047Y26508000D01*
X17486666Y26459619D01*
X17389904Y26314476D01*
X17341523Y26120952D01*
X17341523Y25733904D01*
X17389904Y25637142D01*
X17438285Y25588761D01*
X17535047Y25540380D01*
X17728571Y25540380D01*
X17825333Y25588761D01*
X17873714Y25637142D01*
X17922095Y25733904D01*
X17922095Y25975809D01*
X17873714Y26072571D01*
X17825333Y26120952D01*
X17728571Y26169333D01*
X17535047Y26169333D01*
X17438285Y26120952D01*
X17389904Y26072571D01*
X17341523Y25975809D01*
X16663714Y25560380D02*
X16083142Y25560380D01*
X16373428Y25560380D02*
X16373428Y26576380D01*
X16276666Y26431238D01*
X16179904Y26334476D01*
X16083142Y26286095D01*
X17099142Y25560380D02*
X17099142Y26576380D01*
X17437809Y25850666D01*
X17776476Y26576380D01*
X17776476Y25560380D01*
X13306857Y27050380D02*
X12968190Y27534190D01*
X12726285Y27050380D02*
X12726285Y28066380D01*
X13113333Y28066380D01*
X13210095Y28018000D01*
X13258476Y27969619D01*
X13306857Y27872857D01*
X13306857Y27727714D01*
X13258476Y27630952D01*
X13210095Y27582571D01*
X13113333Y27534190D01*
X12726285Y27534190D01*
X13693904Y27969619D02*
X13742285Y28018000D01*
X13839047Y28066380D01*
X14080952Y28066380D01*
X14177714Y28018000D01*
X14226095Y27969619D01*
X14274476Y27872857D01*
X14274476Y27776095D01*
X14226095Y27630952D01*
X13645523Y27050380D01*
X14274476Y27050380D01*
X15193714Y28066380D02*
X14709904Y28066380D01*
X14661523Y27582571D01*
X14709904Y27630952D01*
X14806666Y27679333D01*
X15048571Y27679333D01*
X15145333Y27630952D01*
X15193714Y27582571D01*
X15242095Y27485809D01*
X15242095Y27243904D01*
X15193714Y27147142D01*
X15145333Y27098761D01*
X15048571Y27050380D01*
X14806666Y27050380D01*
X14709904Y27098761D01*
X14661523Y27147142D01*
X16432476Y30304380D02*
X15851904Y30304380D01*
X16142190Y30304380D02*
X16142190Y31320380D01*
X16045428Y31175238D01*
X15948666Y31078476D01*
X15851904Y31030095D01*
X17351714Y31320380D02*
X16867904Y31320380D01*
X16819523Y30836571D01*
X16867904Y30884952D01*
X16964666Y30933333D01*
X17206571Y30933333D01*
X17303333Y30884952D01*
X17351714Y30836571D01*
X17400095Y30739809D01*
X17400095Y30497904D01*
X17351714Y30401142D01*
X17303333Y30352761D01*
X17206571Y30304380D01*
X16964666Y30304380D01*
X16867904Y30352761D01*
X16819523Y30401142D01*
X17835523Y30304380D02*
X17835523Y31320380D01*
X18416095Y30304380D02*
X17980666Y30884952D01*
X18416095Y31320380D02*
X17835523Y30739809D01*
X41756857Y44640380D02*
X41418190Y45124190D01*
X41176285Y44640380D02*
X41176285Y45656380D01*
X41563333Y45656380D01*
X41660095Y45608000D01*
X41708476Y45559619D01*
X41756857Y45462857D01*
X41756857Y45317714D01*
X41708476Y45220952D01*
X41660095Y45172571D01*
X41563333Y45124190D01*
X41176285Y45124190D01*
X42143904Y45559619D02*
X42192285Y45608000D01*
X42289047Y45656380D01*
X42530952Y45656380D01*
X42627714Y45608000D01*
X42676095Y45559619D01*
X42724476Y45462857D01*
X42724476Y45366095D01*
X42676095Y45220952D01*
X42095523Y44640380D01*
X42724476Y44640380D01*
X43595333Y45317714D02*
X43595333Y44640380D01*
X43353428Y45704761D02*
X43111523Y44979047D01*
X43740476Y44979047D01*
X41542285Y45061714D02*
X42219619Y45061714D01*
X41155238Y44819809D02*
X41880952Y44577904D01*
X41880952Y45206857D01*
X41203619Y45497142D02*
X41203619Y46174476D01*
X42219619Y45739047D01*
X42219619Y46561523D02*
X41203619Y46561523D01*
X42219619Y47142095D02*
X41639047Y46706666D01*
X41203619Y47142095D02*
X41784190Y46561523D01*
X25456857Y58000380D02*
X25118190Y58484190D01*
X24876285Y58000380D02*
X24876285Y59016380D01*
X25263333Y59016380D01*
X25360095Y58968000D01*
X25408476Y58919619D01*
X25456857Y58822857D01*
X25456857Y58677714D01*
X25408476Y58580952D01*
X25360095Y58532571D01*
X25263333Y58484190D01*
X24876285Y58484190D01*
X25843904Y58919619D02*
X25892285Y58968000D01*
X25989047Y59016380D01*
X26230952Y59016380D01*
X26327714Y58968000D01*
X26376095Y58919619D01*
X26424476Y58822857D01*
X26424476Y58726095D01*
X26376095Y58580952D01*
X25795523Y58000380D01*
X26424476Y58000380D01*
X26763142Y59016380D02*
X27392095Y59016380D01*
X27053428Y58629333D01*
X27198571Y58629333D01*
X27295333Y58580952D01*
X27343714Y58532571D01*
X27392095Y58435809D01*
X27392095Y58193904D01*
X27343714Y58097142D01*
X27295333Y58048761D01*
X27198571Y58000380D01*
X26908285Y58000380D01*
X26811523Y58048761D01*
X26763142Y58097142D01*
X26602285Y56881714D02*
X27279619Y56881714D01*
X26215238Y56639809D02*
X26940952Y56397904D01*
X26940952Y57026857D01*
X26263619Y57317142D02*
X26263619Y57994476D01*
X27279619Y57559047D01*
X27279619Y58381523D02*
X26263619Y58381523D01*
X27279619Y58962095D02*
X26699047Y58526666D01*
X26263619Y58962095D02*
X26844190Y58381523D01*
X25436857Y54510380D02*
X25098190Y54994190D01*
X24856285Y54510380D02*
X24856285Y55526380D01*
X25243333Y55526380D01*
X25340095Y55478000D01*
X25388476Y55429619D01*
X25436857Y55332857D01*
X25436857Y55187714D01*
X25388476Y55090952D01*
X25340095Y55042571D01*
X25243333Y54994190D01*
X24856285Y54994190D01*
X25823904Y55429619D02*
X25872285Y55478000D01*
X25969047Y55526380D01*
X26210952Y55526380D01*
X26307714Y55478000D01*
X26356095Y55429619D01*
X26404476Y55332857D01*
X26404476Y55236095D01*
X26356095Y55090952D01*
X25775523Y54510380D01*
X26404476Y54510380D01*
X26791523Y55429619D02*
X26839904Y55478000D01*
X26936666Y55526380D01*
X27178571Y55526380D01*
X27275333Y55478000D01*
X27323714Y55429619D01*
X27372095Y55332857D01*
X27372095Y55236095D01*
X27323714Y55090952D01*
X26743142Y54510380D01*
X27372095Y54510380D01*
X26602285Y53641714D02*
X27279619Y53641714D01*
X26215238Y53399809D02*
X26940952Y53157904D01*
X26940952Y53786857D01*
X26263619Y54077142D02*
X26263619Y54754476D01*
X27279619Y54319047D01*
X27279619Y55141523D02*
X26263619Y55141523D01*
X27279619Y55722095D02*
X26699047Y55286666D01*
X26263619Y55722095D02*
X26844190Y55141523D01*
X50976857Y9130380D02*
X50638190Y9614190D01*
X50396285Y9130380D02*
X50396285Y10146380D01*
X50783333Y10146380D01*
X50880095Y10098000D01*
X50928476Y10049619D01*
X50976857Y9952857D01*
X50976857Y9807714D01*
X50928476Y9710952D01*
X50880095Y9662571D01*
X50783333Y9614190D01*
X50396285Y9614190D01*
X51363904Y10049619D02*
X51412285Y10098000D01*
X51509047Y10146380D01*
X51750952Y10146380D01*
X51847714Y10098000D01*
X51896095Y10049619D01*
X51944476Y9952857D01*
X51944476Y9856095D01*
X51896095Y9710952D01*
X51315523Y9130380D01*
X51944476Y9130380D01*
X52912095Y9130380D02*
X52331523Y9130380D01*
X52621809Y9130380D02*
X52621809Y10146380D01*
X52525047Y10001238D01*
X52428285Y9904476D01*
X52331523Y9856095D01*
X50701714Y6796380D02*
X50508190Y6796380D01*
X50411428Y6748000D01*
X50363047Y6699619D01*
X50266285Y6554476D01*
X50217904Y6360952D01*
X50217904Y5973904D01*
X50266285Y5877142D01*
X50314666Y5828761D01*
X50411428Y5780380D01*
X50604952Y5780380D01*
X50701714Y5828761D01*
X50750095Y5877142D01*
X50798476Y5973904D01*
X50798476Y6215809D01*
X50750095Y6312571D01*
X50701714Y6360952D01*
X50604952Y6409333D01*
X50411428Y6409333D01*
X50314666Y6360952D01*
X50266285Y6312571D01*
X50217904Y6215809D01*
X51379047Y6360952D02*
X51282285Y6409333D01*
X51233904Y6457714D01*
X51185523Y6554476D01*
X51185523Y6602857D01*
X51233904Y6699619D01*
X51282285Y6748000D01*
X51379047Y6796380D01*
X51572571Y6796380D01*
X51669333Y6748000D01*
X51717714Y6699619D01*
X51766095Y6602857D01*
X51766095Y6554476D01*
X51717714Y6457714D01*
X51669333Y6409333D01*
X51572571Y6360952D01*
X51379047Y6360952D01*
X51282285Y6312571D01*
X51233904Y6264190D01*
X51185523Y6167428D01*
X51185523Y5973904D01*
X51233904Y5877142D01*
X51282285Y5828761D01*
X51379047Y5780380D01*
X51572571Y5780380D01*
X51669333Y5828761D01*
X51717714Y5877142D01*
X51766095Y5973904D01*
X51766095Y6167428D01*
X51717714Y6264190D01*
X51669333Y6312571D01*
X51572571Y6360952D01*
X52201523Y5780380D02*
X52201523Y6796380D01*
X52782095Y5780380D02*
X52346666Y6360952D01*
X52782095Y6796380D02*
X52201523Y6215809D01*
X9806857Y30700380D02*
X9468190Y31184190D01*
X9226285Y30700380D02*
X9226285Y31716380D01*
X9613333Y31716380D01*
X9710095Y31668000D01*
X9758476Y31619619D01*
X9806857Y31522857D01*
X9806857Y31377714D01*
X9758476Y31280952D01*
X9710095Y31232571D01*
X9613333Y31184190D01*
X9226285Y31184190D01*
X10193904Y31619619D02*
X10242285Y31668000D01*
X10339047Y31716380D01*
X10580952Y31716380D01*
X10677714Y31668000D01*
X10726095Y31619619D01*
X10774476Y31522857D01*
X10774476Y31426095D01*
X10726095Y31280952D01*
X10145523Y30700380D01*
X10774476Y30700380D01*
X11403428Y31716380D02*
X11500190Y31716380D01*
X11596952Y31668000D01*
X11645333Y31619619D01*
X11693714Y31522857D01*
X11742095Y31329333D01*
X11742095Y31087428D01*
X11693714Y30893904D01*
X11645333Y30797142D01*
X11596952Y30748761D01*
X11500190Y30700380D01*
X11403428Y30700380D01*
X11306666Y30748761D01*
X11258285Y30797142D01*
X11209904Y30893904D01*
X11161523Y31087428D01*
X11161523Y31329333D01*
X11209904Y31522857D01*
X11258285Y31619619D01*
X11306666Y31668000D01*
X11403428Y31716380D01*
X12632666Y32284380D02*
X12052095Y32284380D01*
X12342380Y32284380D02*
X12342380Y33300380D01*
X12245619Y33155238D01*
X12148857Y33058476D01*
X12052095Y33010095D01*
X13261619Y33300380D02*
X13358380Y33300380D01*
X13455142Y33252000D01*
X13503523Y33203619D01*
X13551904Y33106857D01*
X13600285Y32913333D01*
X13600285Y32671428D01*
X13551904Y32477904D01*
X13503523Y32381142D01*
X13455142Y32332761D01*
X13358380Y32284380D01*
X13261619Y32284380D01*
X13164857Y32332761D01*
X13116476Y32381142D01*
X13068095Y32477904D01*
X13019714Y32671428D01*
X13019714Y32913333D01*
X13068095Y33106857D01*
X13116476Y33203619D01*
X13164857Y33252000D01*
X13261619Y33300380D01*
X14229238Y33300380D02*
X14326000Y33300380D01*
X14422761Y33252000D01*
X14471142Y33203619D01*
X14519523Y33106857D01*
X14567904Y32913333D01*
X14567904Y32671428D01*
X14519523Y32477904D01*
X14471142Y32381142D01*
X14422761Y32332761D01*
X14326000Y32284380D01*
X14229238Y32284380D01*
X14132476Y32332761D01*
X14084095Y32381142D01*
X14035714Y32477904D01*
X13987333Y32671428D01*
X13987333Y32913333D01*
X14035714Y33106857D01*
X14084095Y33203619D01*
X14132476Y33252000D01*
X14229238Y33300380D01*
X15003333Y32284380D02*
X15003333Y33300380D01*
X15583904Y32284380D02*
X15148476Y32864952D01*
X15583904Y33300380D02*
X15003333Y32719809D01*
X4406857Y60800380D02*
X4068190Y61284190D01*
X3826285Y60800380D02*
X3826285Y61816380D01*
X4213333Y61816380D01*
X4310095Y61768000D01*
X4358476Y61719619D01*
X4406857Y61622857D01*
X4406857Y61477714D01*
X4358476Y61380952D01*
X4310095Y61332571D01*
X4213333Y61284190D01*
X3826285Y61284190D01*
X5374476Y60800380D02*
X4793904Y60800380D01*
X5084190Y60800380D02*
X5084190Y61816380D01*
X4987428Y61671238D01*
X4890666Y61574476D01*
X4793904Y61526095D01*
X5858285Y60800380D02*
X6051809Y60800380D01*
X6148571Y60848761D01*
X6196952Y60897142D01*
X6293714Y61042285D01*
X6342095Y61235809D01*
X6342095Y61622857D01*
X6293714Y61719619D01*
X6245333Y61768000D01*
X6148571Y61816380D01*
X5955047Y61816380D01*
X5858285Y61768000D01*
X5809904Y61719619D01*
X5761523Y61622857D01*
X5761523Y61380952D01*
X5809904Y61284190D01*
X5858285Y61235809D01*
X5955047Y61187428D01*
X6148571Y61187428D01*
X6245333Y61235809D01*
X6293714Y61284190D01*
X6342095Y61380952D01*
X3849523Y61926380D02*
X4478476Y61926380D01*
X4139809Y61539333D01*
X4284952Y61539333D01*
X4381714Y61490952D01*
X4430095Y61442571D01*
X4478476Y61345809D01*
X4478476Y61103904D01*
X4430095Y61007142D01*
X4381714Y60958761D01*
X4284952Y60910380D01*
X3994666Y60910380D01*
X3897904Y60958761D01*
X3849523Y61007142D01*
X4817142Y61926380D02*
X5446095Y61926380D01*
X5107428Y61539333D01*
X5252571Y61539333D01*
X5349333Y61490952D01*
X5397714Y61442571D01*
X5446095Y61345809D01*
X5446095Y61103904D01*
X5397714Y61007142D01*
X5349333Y60958761D01*
X5252571Y60910380D01*
X4962285Y60910380D01*
X4865523Y60958761D01*
X4817142Y61007142D01*
X5881523Y60910380D02*
X5881523Y61926380D01*
X6462095Y60910380D02*
X6026666Y61490952D01*
X6462095Y61926380D02*
X5881523Y61345809D01*
X19626857Y35690380D02*
X19288190Y36174190D01*
X19046285Y35690380D02*
X19046285Y36706380D01*
X19433333Y36706380D01*
X19530095Y36658000D01*
X19578476Y36609619D01*
X19626857Y36512857D01*
X19626857Y36367714D01*
X19578476Y36270952D01*
X19530095Y36222571D01*
X19433333Y36174190D01*
X19046285Y36174190D01*
X20594476Y35690380D02*
X20013904Y35690380D01*
X20304190Y35690380D02*
X20304190Y36706380D01*
X20207428Y36561238D01*
X20110666Y36464476D01*
X20013904Y36416095D01*
X21175047Y36270952D02*
X21078285Y36319333D01*
X21029904Y36367714D01*
X20981523Y36464476D01*
X20981523Y36512857D01*
X21029904Y36609619D01*
X21078285Y36658000D01*
X21175047Y36706380D01*
X21368571Y36706380D01*
X21465333Y36658000D01*
X21513714Y36609619D01*
X21562095Y36512857D01*
X21562095Y36464476D01*
X21513714Y36367714D01*
X21465333Y36319333D01*
X21368571Y36270952D01*
X21175047Y36270952D01*
X21078285Y36222571D01*
X21029904Y36174190D01*
X20981523Y36077428D01*
X20981523Y35883904D01*
X21029904Y35787142D01*
X21078285Y35738761D01*
X21175047Y35690380D01*
X21368571Y35690380D01*
X21465333Y35738761D01*
X21513714Y35787142D01*
X21562095Y35883904D01*
X21562095Y36077428D01*
X21513714Y36174190D01*
X21465333Y36222571D01*
X21368571Y36270952D01*
X19750476Y35796380D02*
X19169904Y35796380D01*
X19460190Y35796380D02*
X19460190Y36812380D01*
X19363428Y36667238D01*
X19266666Y36570476D01*
X19169904Y36522095D01*
X20379428Y36812380D02*
X20476190Y36812380D01*
X20572952Y36764000D01*
X20621333Y36715619D01*
X20669714Y36618857D01*
X20718095Y36425333D01*
X20718095Y36183428D01*
X20669714Y35989904D01*
X20621333Y35893142D01*
X20572952Y35844761D01*
X20476190Y35796380D01*
X20379428Y35796380D01*
X20282666Y35844761D01*
X20234285Y35893142D01*
X20185904Y35989904D01*
X20137523Y36183428D01*
X20137523Y36425333D01*
X20185904Y36618857D01*
X20234285Y36715619D01*
X20282666Y36764000D01*
X20379428Y36812380D01*
X21153523Y35796380D02*
X21153523Y36812380D01*
X21734095Y35796380D02*
X21298666Y36376952D01*
X21734095Y36812380D02*
X21153523Y36231809D01*
X30396857Y59470380D02*
X30058190Y59954190D01*
X29816285Y59470380D02*
X29816285Y60486380D01*
X30203333Y60486380D01*
X30300095Y60438000D01*
X30348476Y60389619D01*
X30396857Y60292857D01*
X30396857Y60147714D01*
X30348476Y60050952D01*
X30300095Y60002571D01*
X30203333Y59954190D01*
X29816285Y59954190D01*
X31364476Y59470380D02*
X30783904Y59470380D01*
X31074190Y59470380D02*
X31074190Y60486380D01*
X30977428Y60341238D01*
X30880666Y60244476D01*
X30783904Y60196095D01*
X31703142Y60486380D02*
X32380476Y60486380D01*
X31945047Y59470380D01*
X30201714Y60257714D02*
X30201714Y59580380D01*
X29959809Y60644761D02*
X29717904Y59919047D01*
X30346857Y59919047D01*
X30637142Y60596380D02*
X31314476Y60596380D01*
X30879047Y59580380D01*
X31701523Y59580380D02*
X31701523Y60596380D01*
X32282095Y59580380D02*
X31846666Y60160952D01*
X32282095Y60596380D02*
X31701523Y60015809D01*
X9806857Y32640380D02*
X9468190Y33124190D01*
X9226285Y32640380D02*
X9226285Y33656380D01*
X9613333Y33656380D01*
X9710095Y33608000D01*
X9758476Y33559619D01*
X9806857Y33462857D01*
X9806857Y33317714D01*
X9758476Y33220952D01*
X9710095Y33172571D01*
X9613333Y33124190D01*
X9226285Y33124190D01*
X10774476Y32640380D02*
X10193904Y32640380D01*
X10484190Y32640380D02*
X10484190Y33656380D01*
X10387428Y33511238D01*
X10290666Y33414476D01*
X10193904Y33366095D01*
X11645333Y33656380D02*
X11451809Y33656380D01*
X11355047Y33608000D01*
X11306666Y33559619D01*
X11209904Y33414476D01*
X11161523Y33220952D01*
X11161523Y32833904D01*
X11209904Y32737142D01*
X11258285Y32688761D01*
X11355047Y32640380D01*
X11548571Y32640380D01*
X11645333Y32688761D01*
X11693714Y32737142D01*
X11742095Y32833904D01*
X11742095Y33075809D01*
X11693714Y33172571D01*
X11645333Y33220952D01*
X11548571Y33269333D01*
X11355047Y33269333D01*
X11258285Y33220952D01*
X11209904Y33172571D01*
X11161523Y33075809D01*
X11152285Y32409904D02*
X11829619Y32409904D01*
X10765238Y32168000D02*
X11490952Y31926095D01*
X11490952Y32555047D01*
X10813619Y32845333D02*
X10813619Y33522666D01*
X11829619Y33087238D01*
X10813619Y34103238D02*
X10813619Y34200000D01*
X10862000Y34296761D01*
X10910380Y34345142D01*
X11007142Y34393523D01*
X11200666Y34441904D01*
X11442571Y34441904D01*
X11636095Y34393523D01*
X11732857Y34345142D01*
X11781238Y34296761D01*
X11829619Y34200000D01*
X11829619Y34103238D01*
X11781238Y34006476D01*
X11732857Y33958095D01*
X11636095Y33909714D01*
X11442571Y33861333D01*
X11200666Y33861333D01*
X11007142Y33909714D01*
X10910380Y33958095D01*
X10862000Y34006476D01*
X10813619Y34103238D01*
X11829619Y34877333D02*
X10813619Y34877333D01*
X11829619Y35457904D02*
X11249047Y35022476D01*
X10813619Y35457904D02*
X11394190Y34877333D01*
X55796857Y44900380D02*
X55458190Y45384190D01*
X55216285Y44900380D02*
X55216285Y45916380D01*
X55603333Y45916380D01*
X55700095Y45868000D01*
X55748476Y45819619D01*
X55796857Y45722857D01*
X55796857Y45577714D01*
X55748476Y45480952D01*
X55700095Y45432571D01*
X55603333Y45384190D01*
X55216285Y45384190D01*
X56764476Y44900380D02*
X56183904Y44900380D01*
X56474190Y44900380D02*
X56474190Y45916380D01*
X56377428Y45771238D01*
X56280666Y45674476D01*
X56183904Y45626095D01*
X57683714Y45916380D02*
X57199904Y45916380D01*
X57151523Y45432571D01*
X57199904Y45480952D01*
X57296666Y45529333D01*
X57538571Y45529333D01*
X57635333Y45480952D01*
X57683714Y45432571D01*
X57732095Y45335809D01*
X57732095Y45093904D01*
X57683714Y44997142D01*
X57635333Y44948761D01*
X57538571Y44900380D01*
X57296666Y44900380D01*
X57199904Y44948761D01*
X57151523Y44997142D01*
X54989523Y42566380D02*
X55618476Y42566380D01*
X55279809Y42179333D01*
X55424952Y42179333D01*
X55521714Y42130952D01*
X55570095Y42082571D01*
X55618476Y41985809D01*
X55618476Y41743904D01*
X55570095Y41647142D01*
X55521714Y41598761D01*
X55424952Y41550380D01*
X55134666Y41550380D01*
X55037904Y41598761D01*
X54989523Y41647142D01*
X56102285Y41550380D02*
X56295809Y41550380D01*
X56392571Y41598761D01*
X56440952Y41647142D01*
X56537714Y41792285D01*
X56586095Y41985809D01*
X56586095Y42372857D01*
X56537714Y42469619D01*
X56489333Y42518000D01*
X56392571Y42566380D01*
X56199047Y42566380D01*
X56102285Y42518000D01*
X56053904Y42469619D01*
X56005523Y42372857D01*
X56005523Y42130952D01*
X56053904Y42034190D01*
X56102285Y41985809D01*
X56199047Y41937428D01*
X56392571Y41937428D01*
X56489333Y41985809D01*
X56537714Y42034190D01*
X56586095Y42130952D01*
X57021523Y41550380D02*
X57021523Y42566380D01*
X57602095Y41550380D02*
X57166666Y42130952D01*
X57602095Y42566380D02*
X57021523Y41985809D01*
X33416857Y52690380D02*
X33078190Y53174190D01*
X32836285Y52690380D02*
X32836285Y53706380D01*
X33223333Y53706380D01*
X33320095Y53658000D01*
X33368476Y53609619D01*
X33416857Y53512857D01*
X33416857Y53367714D01*
X33368476Y53270952D01*
X33320095Y53222571D01*
X33223333Y53174190D01*
X32836285Y53174190D01*
X34384476Y52690380D02*
X33803904Y52690380D01*
X34094190Y52690380D02*
X34094190Y53706380D01*
X33997428Y53561238D01*
X33900666Y53464476D01*
X33803904Y53416095D01*
X35255333Y53367714D02*
X35255333Y52690380D01*
X35013428Y53754761D02*
X34771523Y53029047D01*
X35400476Y53029047D01*
X33252285Y51271714D02*
X33929619Y51271714D01*
X32865238Y51029809D02*
X33590952Y50787904D01*
X33590952Y51416857D01*
X32913619Y51707142D02*
X32913619Y52384476D01*
X33929619Y51949047D01*
X33929619Y52771523D02*
X32913619Y52771523D01*
X33929619Y53352095D02*
X33349047Y52916666D01*
X32913619Y53352095D02*
X33494190Y52771523D01*
X50936857Y92600380D02*
X50598190Y93084190D01*
X50356285Y92600380D02*
X50356285Y93616380D01*
X50743333Y93616380D01*
X50840095Y93568000D01*
X50888476Y93519619D01*
X50936857Y93422857D01*
X50936857Y93277714D01*
X50888476Y93180952D01*
X50840095Y93132571D01*
X50743333Y93084190D01*
X50356285Y93084190D01*
X51904476Y92600380D02*
X51323904Y92600380D01*
X51614190Y92600380D02*
X51614190Y93616380D01*
X51517428Y93471238D01*
X51420666Y93374476D01*
X51323904Y93326095D01*
X52243142Y93616380D02*
X52872095Y93616380D01*
X52533428Y93229333D01*
X52678571Y93229333D01*
X52775333Y93180952D01*
X52823714Y93132571D01*
X52872095Y93035809D01*
X52872095Y92793904D01*
X52823714Y92697142D01*
X52775333Y92648761D01*
X52678571Y92600380D01*
X52388285Y92600380D01*
X52291523Y92648761D01*
X52243142Y92697142D01*
X56359619Y93108476D02*
X56359619Y92527904D01*
X56359619Y92818190D02*
X55343619Y92818190D01*
X55488761Y92721428D01*
X55585523Y92624666D01*
X55633904Y92527904D01*
X55343619Y93737428D02*
X55343619Y93834190D01*
X55392000Y93930952D01*
X55440380Y93979333D01*
X55537142Y94027714D01*
X55730666Y94076095D01*
X55972571Y94076095D01*
X56166095Y94027714D01*
X56262857Y93979333D01*
X56311238Y93930952D01*
X56359619Y93834190D01*
X56359619Y93737428D01*
X56311238Y93640666D01*
X56262857Y93592285D01*
X56166095Y93543904D01*
X55972571Y93495523D01*
X55730666Y93495523D01*
X55537142Y93543904D01*
X55440380Y93592285D01*
X55392000Y93640666D01*
X55343619Y93737428D01*
X56359619Y94511523D02*
X55343619Y94511523D01*
X56359619Y95092095D02*
X55779047Y94656666D01*
X55343619Y95092095D02*
X55924190Y94511523D01*
X3936857Y54770380D02*
X3598190Y55254190D01*
X3356285Y54770380D02*
X3356285Y55786380D01*
X3743333Y55786380D01*
X3840095Y55738000D01*
X3888476Y55689619D01*
X3936857Y55592857D01*
X3936857Y55447714D01*
X3888476Y55350952D01*
X3840095Y55302571D01*
X3743333Y55254190D01*
X3356285Y55254190D01*
X4904476Y54770380D02*
X4323904Y54770380D01*
X4614190Y54770380D02*
X4614190Y55786380D01*
X4517428Y55641238D01*
X4420666Y55544476D01*
X4323904Y55496095D01*
X5291523Y55689619D02*
X5339904Y55738000D01*
X5436666Y55786380D01*
X5678571Y55786380D01*
X5775333Y55738000D01*
X5823714Y55689619D01*
X5872095Y55592857D01*
X5872095Y55496095D01*
X5823714Y55350952D01*
X5243142Y54770380D01*
X5872095Y54770380D01*
X5994095Y56379619D02*
X6042476Y56428000D01*
X6139238Y56476380D01*
X6381142Y56476380D01*
X6477904Y56428000D01*
X6526285Y56379619D01*
X6574666Y56282857D01*
X6574666Y56186095D01*
X6526285Y56040952D01*
X5945714Y55460380D01*
X6574666Y55460380D01*
X6961714Y56379619D02*
X7010095Y56428000D01*
X7106857Y56476380D01*
X7348761Y56476380D01*
X7445523Y56428000D01*
X7493904Y56379619D01*
X7542285Y56282857D01*
X7542285Y56186095D01*
X7493904Y56040952D01*
X6913333Y55460380D01*
X7542285Y55460380D01*
X8171238Y56476380D02*
X8268000Y56476380D01*
X8364761Y56428000D01*
X8413142Y56379619D01*
X8461523Y56282857D01*
X8509904Y56089333D01*
X8509904Y55847428D01*
X8461523Y55653904D01*
X8413142Y55557142D01*
X8364761Y55508761D01*
X8268000Y55460380D01*
X8171238Y55460380D01*
X8074476Y55508761D01*
X8026095Y55557142D01*
X7977714Y55653904D01*
X7929333Y55847428D01*
X7929333Y56089333D01*
X7977714Y56282857D01*
X8026095Y56379619D01*
X8074476Y56428000D01*
X8171238Y56476380D01*
X9525904Y55460380D02*
X9187238Y55944190D01*
X8945333Y55460380D02*
X8945333Y56476380D01*
X9332380Y56476380D01*
X9429142Y56428000D01*
X9477523Y56379619D01*
X9525904Y56282857D01*
X9525904Y56137714D01*
X9477523Y56040952D01*
X9429142Y55992571D01*
X9332380Y55944190D01*
X8945333Y55944190D01*
X4806857Y10290380D02*
X4468190Y10774190D01*
X4226285Y10290380D02*
X4226285Y11306380D01*
X4613333Y11306380D01*
X4710095Y11258000D01*
X4758476Y11209619D01*
X4806857Y11112857D01*
X4806857Y10967714D01*
X4758476Y10870952D01*
X4710095Y10822571D01*
X4613333Y10774190D01*
X4226285Y10774190D01*
X5774476Y10290380D02*
X5193904Y10290380D01*
X5484190Y10290380D02*
X5484190Y11306380D01*
X5387428Y11161238D01*
X5290666Y11064476D01*
X5193904Y11016095D01*
X6742095Y10290380D02*
X6161523Y10290380D01*
X6451809Y10290380D02*
X6451809Y11306380D01*
X6355047Y11161238D01*
X6258285Y11064476D01*
X6161523Y11016095D01*
X5149619Y9908476D02*
X5149619Y9327904D01*
X5149619Y9618190D02*
X4133619Y9618190D01*
X4278761Y9521428D01*
X4375523Y9424666D01*
X4423904Y9327904D01*
X4133619Y10537428D02*
X4133619Y10634190D01*
X4182000Y10730952D01*
X4230380Y10779333D01*
X4327142Y10827714D01*
X4520666Y10876095D01*
X4762571Y10876095D01*
X4956095Y10827714D01*
X5052857Y10779333D01*
X5101238Y10730952D01*
X5149619Y10634190D01*
X5149619Y10537428D01*
X5101238Y10440666D01*
X5052857Y10392285D01*
X4956095Y10343904D01*
X4762571Y10295523D01*
X4520666Y10295523D01*
X4327142Y10343904D01*
X4230380Y10392285D01*
X4182000Y10440666D01*
X4133619Y10537428D01*
X5149619Y11311523D02*
X4133619Y11311523D01*
X5149619Y11892095D02*
X4569047Y11456666D01*
X4133619Y11892095D02*
X4714190Y11311523D01*
X36956857Y70270380D02*
X36618190Y70754190D01*
X36376285Y70270380D02*
X36376285Y71286380D01*
X36763333Y71286380D01*
X36860095Y71238000D01*
X36908476Y71189619D01*
X36956857Y71092857D01*
X36956857Y70947714D01*
X36908476Y70850952D01*
X36860095Y70802571D01*
X36763333Y70754190D01*
X36376285Y70754190D01*
X37924476Y70270380D02*
X37343904Y70270380D01*
X37634190Y70270380D02*
X37634190Y71286380D01*
X37537428Y71141238D01*
X37440666Y71044476D01*
X37343904Y70996095D01*
X38553428Y71286380D02*
X38650190Y71286380D01*
X38746952Y71238000D01*
X38795333Y71189619D01*
X38843714Y71092857D01*
X38892095Y70899333D01*
X38892095Y70657428D01*
X38843714Y70463904D01*
X38795333Y70367142D01*
X38746952Y70318761D01*
X38650190Y70270380D01*
X38553428Y70270380D01*
X38456666Y70318761D01*
X38408285Y70367142D01*
X38359904Y70463904D01*
X38311523Y70657428D01*
X38311523Y70899333D01*
X38359904Y71092857D01*
X38408285Y71189619D01*
X38456666Y71238000D01*
X38553428Y71286380D01*
X33374666Y69600380D02*
X32794095Y69600380D01*
X33084380Y69600380D02*
X33084380Y70616380D01*
X32987619Y70471238D01*
X32890857Y70374476D01*
X32794095Y70326095D01*
X34003619Y70616380D02*
X34100380Y70616380D01*
X34197142Y70568000D01*
X34245523Y70519619D01*
X34293904Y70422857D01*
X34342285Y70229333D01*
X34342285Y69987428D01*
X34293904Y69793904D01*
X34245523Y69697142D01*
X34197142Y69648761D01*
X34100380Y69600380D01*
X34003619Y69600380D01*
X33906857Y69648761D01*
X33858476Y69697142D01*
X33810095Y69793904D01*
X33761714Y69987428D01*
X33761714Y70229333D01*
X33810095Y70422857D01*
X33858476Y70519619D01*
X33906857Y70568000D01*
X34003619Y70616380D01*
X34971238Y70616380D02*
X35068000Y70616380D01*
X35164761Y70568000D01*
X35213142Y70519619D01*
X35261523Y70422857D01*
X35309904Y70229333D01*
X35309904Y69987428D01*
X35261523Y69793904D01*
X35213142Y69697142D01*
X35164761Y69648761D01*
X35068000Y69600380D01*
X34971238Y69600380D01*
X34874476Y69648761D01*
X34826095Y69697142D01*
X34777714Y69793904D01*
X34729333Y69987428D01*
X34729333Y70229333D01*
X34777714Y70422857D01*
X34826095Y70519619D01*
X34874476Y70568000D01*
X34971238Y70616380D01*
X35745333Y69600380D02*
X35745333Y70616380D01*
X36325904Y69600380D02*
X35890476Y70180952D01*
X36325904Y70616380D02*
X35745333Y70035809D01*
X3210666Y52270380D02*
X2872000Y52754190D01*
X2630095Y52270380D02*
X2630095Y53286380D01*
X3017142Y53286380D01*
X3113904Y53238000D01*
X3162285Y53189619D01*
X3210666Y53092857D01*
X3210666Y52947714D01*
X3162285Y52850952D01*
X3113904Y52802571D01*
X3017142Y52754190D01*
X2630095Y52754190D01*
X3694476Y52270380D02*
X3888000Y52270380D01*
X3984761Y52318761D01*
X4033142Y52367142D01*
X4129904Y52512285D01*
X4178285Y52705809D01*
X4178285Y53092857D01*
X4129904Y53189619D01*
X4081523Y53238000D01*
X3984761Y53286380D01*
X3791238Y53286380D01*
X3694476Y53238000D01*
X3646095Y53189619D01*
X3597714Y53092857D01*
X3597714Y52850952D01*
X3646095Y52754190D01*
X3694476Y52705809D01*
X3791238Y52657428D01*
X3984761Y52657428D01*
X4081523Y52705809D01*
X4129904Y52754190D01*
X4178285Y52850952D01*
X4604095Y54809619D02*
X4652476Y54858000D01*
X4749238Y54906380D01*
X4991142Y54906380D01*
X5087904Y54858000D01*
X5136285Y54809619D01*
X5184666Y54712857D01*
X5184666Y54616095D01*
X5136285Y54470952D01*
X4555714Y53890380D01*
X5184666Y53890380D01*
X5571714Y54809619D02*
X5620095Y54858000D01*
X5716857Y54906380D01*
X5958761Y54906380D01*
X6055523Y54858000D01*
X6103904Y54809619D01*
X6152285Y54712857D01*
X6152285Y54616095D01*
X6103904Y54470952D01*
X5523333Y53890380D01*
X6152285Y53890380D01*
X6781238Y54906380D02*
X6878000Y54906380D01*
X6974761Y54858000D01*
X7023142Y54809619D01*
X7071523Y54712857D01*
X7119904Y54519333D01*
X7119904Y54277428D01*
X7071523Y54083904D01*
X7023142Y53987142D01*
X6974761Y53938761D01*
X6878000Y53890380D01*
X6781238Y53890380D01*
X6684476Y53938761D01*
X6636095Y53987142D01*
X6587714Y54083904D01*
X6539333Y54277428D01*
X6539333Y54519333D01*
X6587714Y54712857D01*
X6636095Y54809619D01*
X6684476Y54858000D01*
X6781238Y54906380D01*
X8135904Y53890380D02*
X7797238Y54374190D01*
X7555333Y53890380D02*
X7555333Y54906380D01*
X7942380Y54906380D01*
X8039142Y54858000D01*
X8087523Y54809619D01*
X8135904Y54712857D01*
X8135904Y54567714D01*
X8087523Y54470952D01*
X8039142Y54422571D01*
X7942380Y54374190D01*
X7555333Y54374190D01*
X55840666Y91080380D02*
X55502000Y91564190D01*
X55260095Y91080380D02*
X55260095Y92096380D01*
X55647142Y92096380D01*
X55743904Y92048000D01*
X55792285Y91999619D01*
X55840666Y91902857D01*
X55840666Y91757714D01*
X55792285Y91660952D01*
X55743904Y91612571D01*
X55647142Y91564190D01*
X55260095Y91564190D01*
X56421238Y91660952D02*
X56324476Y91709333D01*
X56276095Y91757714D01*
X56227714Y91854476D01*
X56227714Y91902857D01*
X56276095Y91999619D01*
X56324476Y92048000D01*
X56421238Y92096380D01*
X56614761Y92096380D01*
X56711523Y92048000D01*
X56759904Y91999619D01*
X56808285Y91902857D01*
X56808285Y91854476D01*
X56759904Y91757714D01*
X56711523Y91709333D01*
X56614761Y91660952D01*
X56421238Y91660952D01*
X56324476Y91612571D01*
X56276095Y91564190D01*
X56227714Y91467428D01*
X56227714Y91273904D01*
X56276095Y91177142D01*
X56324476Y91128761D01*
X56421238Y91080380D01*
X56614761Y91080380D01*
X56711523Y91128761D01*
X56759904Y91177142D01*
X56808285Y91273904D01*
X56808285Y91467428D01*
X56759904Y91564190D01*
X56711523Y91612571D01*
X56614761Y91660952D01*
X57919619Y93529714D02*
X57919619Y92949142D01*
X57919619Y93239428D02*
X56903619Y93239428D01*
X57048761Y93142666D01*
X57145523Y93045904D01*
X57193904Y92949142D01*
X57919619Y93965142D02*
X56903619Y93965142D01*
X57629333Y94303809D01*
X56903619Y94642476D01*
X57919619Y94642476D01*
X28540666Y74210380D02*
X28202000Y74694190D01*
X27960095Y74210380D02*
X27960095Y75226380D01*
X28347142Y75226380D01*
X28443904Y75178000D01*
X28492285Y75129619D01*
X28540666Y75032857D01*
X28540666Y74887714D01*
X28492285Y74790952D01*
X28443904Y74742571D01*
X28347142Y74694190D01*
X27960095Y74694190D01*
X28879333Y75226380D02*
X29556666Y75226380D01*
X29121238Y74210380D01*
X28593619Y72919523D02*
X28593619Y73548476D01*
X28980666Y73209809D01*
X28980666Y73354952D01*
X29029047Y73451714D01*
X29077428Y73500095D01*
X29174190Y73548476D01*
X29416095Y73548476D01*
X29512857Y73500095D01*
X29561238Y73451714D01*
X29609619Y73354952D01*
X29609619Y73064666D01*
X29561238Y72967904D01*
X29512857Y72919523D01*
X29609619Y73983904D02*
X28593619Y73983904D01*
X29609619Y74564476D02*
X29029047Y74129047D01*
X28593619Y74564476D02*
X29174190Y73983904D01*
X28593619Y74903142D02*
X28593619Y75532095D01*
X28980666Y75193428D01*
X28980666Y75338571D01*
X29029047Y75435333D01*
X29077428Y75483714D01*
X29174190Y75532095D01*
X29416095Y75532095D01*
X29512857Y75483714D01*
X29561238Y75435333D01*
X29609619Y75338571D01*
X29609619Y75048285D01*
X29561238Y74951523D01*
X29512857Y74903142D01*
X56160666Y69340380D02*
X55822000Y69824190D01*
X55580095Y69340380D02*
X55580095Y70356380D01*
X55967142Y70356380D01*
X56063904Y70308000D01*
X56112285Y70259619D01*
X56160666Y70162857D01*
X56160666Y70017714D01*
X56112285Y69920952D01*
X56063904Y69872571D01*
X55967142Y69824190D01*
X55580095Y69824190D01*
X57031523Y70356380D02*
X56838000Y70356380D01*
X56741238Y70308000D01*
X56692857Y70259619D01*
X56596095Y70114476D01*
X56547714Y69920952D01*
X56547714Y69533904D01*
X56596095Y69437142D01*
X56644476Y69388761D01*
X56741238Y69340380D01*
X56934761Y69340380D01*
X57031523Y69388761D01*
X57079904Y69437142D01*
X57128285Y69533904D01*
X57128285Y69775809D01*
X57079904Y69872571D01*
X57031523Y69920952D01*
X56934761Y69969333D01*
X56741238Y69969333D01*
X56644476Y69920952D01*
X56596095Y69872571D01*
X56547714Y69775809D01*
X56540380Y68797904D02*
X56492000Y68846285D01*
X56443619Y68943047D01*
X56443619Y69184952D01*
X56492000Y69281714D01*
X56540380Y69330095D01*
X56637142Y69378476D01*
X56733904Y69378476D01*
X56879047Y69330095D01*
X57459619Y68749523D01*
X57459619Y69378476D01*
X56540380Y69765523D02*
X56492000Y69813904D01*
X56443619Y69910666D01*
X56443619Y70152571D01*
X56492000Y70249333D01*
X56540380Y70297714D01*
X56637142Y70346095D01*
X56733904Y70346095D01*
X56879047Y70297714D01*
X57459619Y69717142D01*
X57459619Y70346095D01*
X57459619Y70781523D02*
X56443619Y70781523D01*
X57459619Y71362095D02*
X56879047Y70926666D01*
X56443619Y71362095D02*
X57024190Y70781523D01*
X51720666Y99890380D02*
X51382000Y100374190D01*
X51140095Y99890380D02*
X51140095Y100906380D01*
X51527142Y100906380D01*
X51623904Y100858000D01*
X51672285Y100809619D01*
X51720666Y100712857D01*
X51720666Y100567714D01*
X51672285Y100470952D01*
X51623904Y100422571D01*
X51527142Y100374190D01*
X51140095Y100374190D01*
X52639904Y100906380D02*
X52156095Y100906380D01*
X52107714Y100422571D01*
X52156095Y100470952D01*
X52252857Y100519333D01*
X52494761Y100519333D01*
X52591523Y100470952D01*
X52639904Y100422571D01*
X52688285Y100325809D01*
X52688285Y100083904D01*
X52639904Y99987142D01*
X52591523Y99938761D01*
X52494761Y99890380D01*
X52252857Y99890380D01*
X52156095Y99938761D01*
X52107714Y99987142D01*
X50961714Y97217714D02*
X50961714Y96540380D01*
X50719809Y97604761D02*
X50477904Y96879047D01*
X51106857Y96879047D01*
X51493904Y96540380D02*
X51493904Y97556380D01*
X52074476Y96540380D02*
X51639047Y97120952D01*
X52074476Y97556380D02*
X51493904Y96975809D01*
X52413142Y97556380D02*
X53090476Y97556380D01*
X52655047Y96540380D01*
X33400666Y68150380D02*
X33062000Y68634190D01*
X32820095Y68150380D02*
X32820095Y69166380D01*
X33207142Y69166380D01*
X33303904Y69118000D01*
X33352285Y69069619D01*
X33400666Y68972857D01*
X33400666Y68827714D01*
X33352285Y68730952D01*
X33303904Y68682571D01*
X33207142Y68634190D01*
X32820095Y68634190D01*
X34271523Y68827714D02*
X34271523Y68150380D01*
X34029619Y69214761D02*
X33787714Y68489047D01*
X34416666Y68489047D01*
X31674666Y68040380D02*
X31094095Y68040380D01*
X31384380Y68040380D02*
X31384380Y69056380D01*
X31287619Y68911238D01*
X31190857Y68814476D01*
X31094095Y68766095D01*
X32303619Y69056380D02*
X32400380Y69056380D01*
X32497142Y69008000D01*
X32545523Y68959619D01*
X32593904Y68862857D01*
X32642285Y68669333D01*
X32642285Y68427428D01*
X32593904Y68233904D01*
X32545523Y68137142D01*
X32497142Y68088761D01*
X32400380Y68040380D01*
X32303619Y68040380D01*
X32206857Y68088761D01*
X32158476Y68137142D01*
X32110095Y68233904D01*
X32061714Y68427428D01*
X32061714Y68669333D01*
X32110095Y68862857D01*
X32158476Y68959619D01*
X32206857Y69008000D01*
X32303619Y69056380D01*
X33271238Y69056380D02*
X33368000Y69056380D01*
X33464761Y69008000D01*
X33513142Y68959619D01*
X33561523Y68862857D01*
X33609904Y68669333D01*
X33609904Y68427428D01*
X33561523Y68233904D01*
X33513142Y68137142D01*
X33464761Y68088761D01*
X33368000Y68040380D01*
X33271238Y68040380D01*
X33174476Y68088761D01*
X33126095Y68137142D01*
X33077714Y68233904D01*
X33029333Y68427428D01*
X33029333Y68669333D01*
X33077714Y68862857D01*
X33126095Y68959619D01*
X33174476Y69008000D01*
X33271238Y69056380D01*
X34045333Y68040380D02*
X34045333Y69056380D01*
X34625904Y68040380D02*
X34190476Y68620952D01*
X34625904Y69056380D02*
X34045333Y68475809D01*
X8000666Y48970380D02*
X7661999Y49454190D01*
X7420095Y48970380D02*
X7420095Y49986380D01*
X7807142Y49986380D01*
X7903904Y49938000D01*
X7952285Y49889619D01*
X8000666Y49792857D01*
X8000666Y49647714D01*
X7952285Y49550952D01*
X7903904Y49502571D01*
X7807142Y49454190D01*
X7420095Y49454190D01*
X8339333Y49986380D02*
X8968285Y49986380D01*
X8629619Y49599333D01*
X8774761Y49599333D01*
X8871523Y49550952D01*
X8919904Y49502571D01*
X8968285Y49405809D01*
X8968285Y49163904D01*
X8919904Y49067142D01*
X8871523Y49018761D01*
X8774761Y48970380D01*
X8484476Y48970380D01*
X8387714Y49018761D01*
X8339333Y49067142D01*
X10739619Y50604666D02*
X10739619Y50024095D01*
X10739619Y50314380D02*
X9723619Y50314380D01*
X9868761Y50217619D01*
X9965523Y50120857D01*
X10013904Y50024095D01*
X9723619Y51233619D02*
X9723619Y51330380D01*
X9772000Y51427142D01*
X9820380Y51475523D01*
X9917142Y51523904D01*
X10110666Y51572285D01*
X10352571Y51572285D01*
X10546095Y51523904D01*
X10642857Y51475523D01*
X10691238Y51427142D01*
X10739619Y51330380D01*
X10739619Y51233619D01*
X10691238Y51136857D01*
X10642857Y51088476D01*
X10546095Y51040095D01*
X10352571Y50991714D01*
X10110666Y50991714D01*
X9917142Y51040095D01*
X9820380Y51088476D01*
X9772000Y51136857D01*
X9723619Y51233619D01*
X9723619Y52201238D02*
X9723619Y52298000D01*
X9772000Y52394761D01*
X9820380Y52443142D01*
X9917142Y52491523D01*
X10110666Y52539904D01*
X10352571Y52539904D01*
X10546095Y52491523D01*
X10642857Y52443142D01*
X10691238Y52394761D01*
X10739619Y52298000D01*
X10739619Y52201238D01*
X10691238Y52104476D01*
X10642857Y52056095D01*
X10546095Y52007714D01*
X10352571Y51959333D01*
X10110666Y51959333D01*
X9917142Y52007714D01*
X9820380Y52056095D01*
X9772000Y52104476D01*
X9723619Y52201238D01*
X10739619Y52975333D02*
X9723619Y52975333D01*
X10739619Y53555904D02*
X10159047Y53120476D01*
X9723619Y53555904D02*
X10304190Y52975333D01*
X12900666Y43220380D02*
X12562000Y43704190D01*
X12320095Y43220380D02*
X12320095Y44236380D01*
X12707142Y44236380D01*
X12803904Y44188000D01*
X12852285Y44139619D01*
X12900666Y44042857D01*
X12900666Y43897714D01*
X12852285Y43800952D01*
X12803904Y43752571D01*
X12707142Y43704190D01*
X12320095Y43704190D01*
X13287714Y44139619D02*
X13336095Y44188000D01*
X13432857Y44236380D01*
X13674761Y44236380D01*
X13771523Y44188000D01*
X13819904Y44139619D01*
X13868285Y44042857D01*
X13868285Y43946095D01*
X13819904Y43800952D01*
X13239333Y43220380D01*
X13868285Y43220380D01*
X12401714Y46570380D02*
X12401714Y47586380D01*
X12982285Y46570380D01*
X12982285Y47586380D01*
X14046666Y46667142D02*
X13998285Y46618761D01*
X13853142Y46570380D01*
X13756380Y46570380D01*
X13611238Y46618761D01*
X13514476Y46715523D01*
X13466095Y46812285D01*
X13417714Y47005809D01*
X13417714Y47150952D01*
X13466095Y47344476D01*
X13514476Y47441238D01*
X13611238Y47538000D01*
X13756380Y47586380D01*
X13853142Y47586380D01*
X13998285Y47538000D01*
X14046666Y47489619D01*
X28470666Y71070380D02*
X28132000Y71554190D01*
X27890095Y71070380D02*
X27890095Y72086380D01*
X28277142Y72086380D01*
X28373904Y72038000D01*
X28422285Y71989619D01*
X28470666Y71892857D01*
X28470666Y71747714D01*
X28422285Y71650952D01*
X28373904Y71602571D01*
X28277142Y71554190D01*
X27890095Y71554190D01*
X29438285Y71070380D02*
X28857714Y71070380D01*
X29148000Y71070380D02*
X29148000Y72086380D01*
X29051238Y71941238D01*
X28954476Y71844476D01*
X28857714Y71796095D01*
X30608476Y69620380D02*
X30027904Y69620380D01*
X30318190Y69620380D02*
X30318190Y70636380D01*
X30221428Y70491238D01*
X30124666Y70394476D01*
X30027904Y70346095D01*
X31237428Y70636380D02*
X31334190Y70636380D01*
X31430952Y70588000D01*
X31479333Y70539619D01*
X31527714Y70442857D01*
X31576095Y70249333D01*
X31576095Y70007428D01*
X31527714Y69813904D01*
X31479333Y69717142D01*
X31430952Y69668761D01*
X31334190Y69620380D01*
X31237428Y69620380D01*
X31140666Y69668761D01*
X31092285Y69717142D01*
X31043904Y69813904D01*
X30995523Y70007428D01*
X30995523Y70249333D01*
X31043904Y70442857D01*
X31092285Y70539619D01*
X31140666Y70588000D01*
X31237428Y70636380D01*
X32011523Y69620380D02*
X32011523Y70636380D01*
X32592095Y69620380D02*
X32156666Y70200952D01*
X32592095Y70636380D02*
X32011523Y70055809D01*
D16*
X14284476Y91371142D02*
X14236095Y91322761D01*
X14090952Y91274380D01*
X13994190Y91274380D01*
X13849047Y91322761D01*
X13752285Y91419523D01*
X13703904Y91516285D01*
X13655523Y91709809D01*
X13655523Y91854952D01*
X13703904Y92048476D01*
X13752285Y92145238D01*
X13849047Y92242000D01*
X13994190Y92290380D01*
X14090952Y92290380D01*
X14236095Y92242000D01*
X14284476Y92193619D01*
X14913428Y92290380D02*
X15106952Y92290380D01*
X15203714Y92242000D01*
X15300476Y92145238D01*
X15348857Y91951714D01*
X15348857Y91613047D01*
X15300476Y91419523D01*
X15203714Y91322761D01*
X15106952Y91274380D01*
X14913428Y91274380D01*
X14816666Y91322761D01*
X14719904Y91419523D01*
X14671523Y91613047D01*
X14671523Y91951714D01*
X14719904Y92145238D01*
X14816666Y92242000D01*
X14913428Y92290380D01*
X15784285Y91274380D02*
X15784285Y92290380D01*
X16364857Y91274380D01*
X16364857Y92290380D01*
X16848666Y91274380D02*
X16848666Y92290380D01*
X17429238Y91274380D01*
X17429238Y92290380D01*
X17913047Y91661428D02*
X18687142Y91661428D01*
X19364476Y92290380D02*
X19461238Y92290380D01*
X19558000Y92242000D01*
X19606380Y92193619D01*
X19654761Y92096857D01*
X19703142Y91903333D01*
X19703142Y91661428D01*
X19654761Y91467904D01*
X19606380Y91371142D01*
X19558000Y91322761D01*
X19461238Y91274380D01*
X19364476Y91274380D01*
X19267714Y91322761D01*
X19219333Y91371142D01*
X19170952Y91467904D01*
X19122571Y91661428D01*
X19122571Y91903333D01*
X19170952Y92096857D01*
X19219333Y92193619D01*
X19267714Y92242000D01*
X19364476Y92290380D01*
X20090190Y92193619D02*
X20138571Y92242000D01*
X20235333Y92290380D01*
X20477238Y92290380D01*
X20574000Y92242000D01*
X20622380Y92193619D01*
X20670761Y92096857D01*
X20670761Y92000095D01*
X20622380Y91854952D01*
X20041809Y91274380D01*
X20670761Y91274380D01*
X21009428Y91274380D02*
X21541619Y91951714D01*
X21009428Y91951714D02*
X21541619Y91274380D01*
X22122190Y92290380D02*
X22218952Y92290380D01*
X22315714Y92242000D01*
X22364095Y92193619D01*
X22412476Y92096857D01*
X22460857Y91903333D01*
X22460857Y91661428D01*
X22412476Y91467904D01*
X22364095Y91371142D01*
X22315714Y91322761D01*
X22218952Y91274380D01*
X22122190Y91274380D01*
X22025428Y91322761D01*
X21977047Y91371142D01*
X21928666Y91467904D01*
X21880285Y91661428D01*
X21880285Y91903333D01*
X21928666Y92096857D01*
X21977047Y92193619D01*
X22025428Y92242000D01*
X22122190Y92290380D01*
X23380095Y92290380D02*
X22896285Y92290380D01*
X22847904Y91806571D01*
X22896285Y91854952D01*
X22993047Y91903333D01*
X23234952Y91903333D01*
X23331714Y91854952D01*
X23380095Y91806571D01*
X23428476Y91709809D01*
X23428476Y91467904D01*
X23380095Y91371142D01*
X23331714Y91322761D01*
X23234952Y91274380D01*
X22993047Y91274380D01*
X22896285Y91322761D01*
X22847904Y91371142D01*
D15*
X12660666Y94864000D02*
X13194000Y94864000D01*
X13894000Y94597333D02*
X13494000Y94597333D01*
X13694000Y94597333D02*
X13694000Y95297333D01*
X13627333Y95197333D01*
X13560666Y95130666D01*
X13494000Y95097333D01*
X14160666Y95230666D02*
X14194000Y95264000D01*
X14260666Y95297333D01*
X14427333Y95297333D01*
X14494000Y95264000D01*
X14527333Y95230666D01*
X14560666Y95164000D01*
X14560666Y95097333D01*
X14527333Y94997333D01*
X14127333Y94597333D01*
X14560666Y94597333D01*
X14760666Y95297333D02*
X14994000Y94597333D01*
X15227333Y95297333D01*
D11*
X4960095Y95390380D02*
X4960095Y96406380D01*
X5201999Y96406380D01*
X5347142Y96358000D01*
X5443904Y96261238D01*
X5492285Y96164476D01*
X5540666Y95970952D01*
X5540666Y95825809D01*
X5492285Y95632285D01*
X5443904Y95535523D01*
X5347142Y95438761D01*
X5201999Y95390380D01*
X4960095Y95390380D01*
X5879333Y96406380D02*
X6508285Y96406380D01*
X6169619Y96019333D01*
X6314761Y96019333D01*
X6411523Y95970952D01*
X6459904Y95922571D01*
X6508285Y95825809D01*
X6508285Y95583904D01*
X6459904Y95487142D01*
X6411523Y95438761D01*
X6314761Y95390380D01*
X6024476Y95390380D01*
X5927714Y95438761D01*
X5879333Y95487142D01*
X3769428Y95455619D02*
X3817809Y95600761D01*
X3866190Y95649142D01*
X3962952Y95697523D01*
X4108095Y95697523D01*
X4204857Y95649142D01*
X4253238Y95600761D01*
X4301619Y95504000D01*
X4301619Y95116952D01*
X3285619Y95116952D01*
X3285619Y95455619D01*
X3334000Y95552380D01*
X3382380Y95600761D01*
X3479142Y95649142D01*
X3575904Y95649142D01*
X3672666Y95600761D01*
X3721047Y95552380D01*
X3769428Y95455619D01*
X3769428Y95116952D01*
X4301619Y96665142D02*
X4301619Y96084571D01*
X4301619Y96374857D02*
X3285619Y96374857D01*
X3430761Y96278095D01*
X3527523Y96181333D01*
X3575904Y96084571D01*
X3624285Y97536000D02*
X4301619Y97536000D01*
X3237238Y97294095D02*
X3962952Y97052190D01*
X3962952Y97681142D01*
X3285619Y98261714D02*
X3285619Y98358476D01*
X3334000Y98455238D01*
X3382380Y98503619D01*
X3479142Y98552000D01*
X3672666Y98600380D01*
X3914571Y98600380D01*
X4108095Y98552000D01*
X4204857Y98503619D01*
X4253238Y98455238D01*
X4301619Y98358476D01*
X4301619Y98261714D01*
X4253238Y98164952D01*
X4204857Y98116571D01*
X4108095Y98068190D01*
X3914571Y98019809D01*
X3672666Y98019809D01*
X3479142Y98068190D01*
X3382380Y98116571D01*
X3334000Y98164952D01*
X3285619Y98261714D01*
X4301619Y99035809D02*
X3285619Y99035809D01*
X3769428Y99035809D02*
X3769428Y99616380D01*
X4301619Y99616380D02*
X3285619Y99616380D01*
X3285619Y100003428D02*
X4301619Y100245333D01*
X3575904Y100438857D01*
X4301619Y100632380D01*
X3285619Y100874285D01*
X3914571Y101261333D02*
X3914571Y102035428D01*
X3285619Y102422476D02*
X3285619Y103099809D01*
X4301619Y102664380D01*
X51030095Y94470380D02*
X51030095Y95486380D01*
X51272000Y95486380D01*
X51417142Y95438000D01*
X51513904Y95341238D01*
X51562285Y95244476D01*
X51610666Y95050952D01*
X51610666Y94905809D01*
X51562285Y94712285D01*
X51513904Y94615523D01*
X51417142Y94518761D01*
X51272000Y94470380D01*
X51030095Y94470380D01*
X51997714Y95389619D02*
X52046095Y95438000D01*
X52142857Y95486380D01*
X52384761Y95486380D01*
X52481523Y95438000D01*
X52529904Y95389619D01*
X52578285Y95292857D01*
X52578285Y95196095D01*
X52529904Y95050952D01*
X51949333Y94470380D01*
X52578285Y94470380D01*
X60940095Y94160380D02*
X60940095Y95176380D01*
X61182000Y95176380D01*
X61327142Y95128000D01*
X61423904Y95031238D01*
X61472285Y94934476D01*
X61520666Y94740952D01*
X61520666Y94595809D01*
X61472285Y94402285D01*
X61423904Y94305523D01*
X61327142Y94208761D01*
X61182000Y94160380D01*
X60940095Y94160380D01*
X62488285Y94160380D02*
X61907714Y94160380D01*
X62198000Y94160380D02*
X62198000Y95176380D01*
X62101238Y95031238D01*
X62004476Y94934476D01*
X61907714Y94886095D01*
D12*
X52806857Y101577142D02*
X52758476Y101528761D01*
X52613333Y101480380D01*
X52516571Y101480380D01*
X52371428Y101528761D01*
X52274666Y101625523D01*
X52226285Y101722285D01*
X52177904Y101915809D01*
X52177904Y102060952D01*
X52226285Y102254476D01*
X52274666Y102351238D01*
X52371428Y102448000D01*
X52516571Y102496380D01*
X52613333Y102496380D01*
X52758476Y102448000D01*
X52806857Y102399619D01*
X53193904Y102399619D02*
X53242285Y102448000D01*
X53339047Y102496380D01*
X53580952Y102496380D01*
X53677714Y102448000D01*
X53726095Y102399619D01*
X53774476Y102302857D01*
X53774476Y102206095D01*
X53726095Y102060952D01*
X53145523Y101480380D01*
X53774476Y101480380D01*
X54161523Y102399619D02*
X54209904Y102448000D01*
X54306666Y102496380D01*
X54548571Y102496380D01*
X54645333Y102448000D01*
X54693714Y102399619D01*
X54742095Y102302857D01*
X54742095Y102206095D01*
X54693714Y102060952D01*
X54113142Y101480380D01*
X54742095Y101480380D01*
X57223619Y99520857D02*
X57223619Y99617619D01*
X57272000Y99714380D01*
X57320380Y99762761D01*
X57417142Y99811142D01*
X57610666Y99859523D01*
X57852571Y99859523D01*
X58046095Y99811142D01*
X58142857Y99762761D01*
X58191238Y99714380D01*
X58239619Y99617619D01*
X58239619Y99520857D01*
X58191238Y99424095D01*
X58142857Y99375714D01*
X58046095Y99327333D01*
X57852571Y99278952D01*
X57610666Y99278952D01*
X57417142Y99327333D01*
X57320380Y99375714D01*
X57272000Y99424095D01*
X57223619Y99520857D01*
X58142857Y100294952D02*
X58191238Y100343333D01*
X58239619Y100294952D01*
X58191238Y100246571D01*
X58142857Y100294952D01*
X58239619Y100294952D01*
X58239619Y101310952D02*
X58239619Y100730380D01*
X58239619Y101020666D02*
X57223619Y101020666D01*
X57368761Y100923904D01*
X57465523Y100827142D01*
X57513904Y100730380D01*
X57562285Y102181809D02*
X58239619Y102181809D01*
X57562285Y101746380D02*
X58094476Y101746380D01*
X58191238Y101794761D01*
X58239619Y101891523D01*
X58239619Y102036666D01*
X58191238Y102133428D01*
X58142857Y102181809D01*
X57707428Y103004285D02*
X57707428Y102665619D01*
X58239619Y102665619D02*
X57223619Y102665619D01*
X57223619Y103149428D01*
X41726857Y48227142D02*
X41678476Y48178761D01*
X41533333Y48130380D01*
X41436571Y48130380D01*
X41291428Y48178761D01*
X41194666Y48275523D01*
X41146285Y48372285D01*
X41097904Y48565809D01*
X41097904Y48710952D01*
X41146285Y48904476D01*
X41194666Y49001238D01*
X41291428Y49098000D01*
X41436571Y49146380D01*
X41533333Y49146380D01*
X41678476Y49098000D01*
X41726857Y49049619D01*
X42113904Y49049619D02*
X42162285Y49098000D01*
X42259047Y49146380D01*
X42500952Y49146380D01*
X42597714Y49098000D01*
X42646095Y49049619D01*
X42694476Y48952857D01*
X42694476Y48856095D01*
X42646095Y48710952D01*
X42065523Y48130380D01*
X42694476Y48130380D01*
X43662095Y48130380D02*
X43081523Y48130380D01*
X43371809Y48130380D02*
X43371809Y49146380D01*
X43275047Y49001238D01*
X43178285Y48904476D01*
X43081523Y48856095D01*
X37560857Y47296380D02*
X37657619Y47296380D01*
X37754380Y47248000D01*
X37802761Y47199619D01*
X37851142Y47102857D01*
X37899523Y46909333D01*
X37899523Y46667428D01*
X37851142Y46473904D01*
X37802761Y46377142D01*
X37754380Y46328761D01*
X37657619Y46280380D01*
X37560857Y46280380D01*
X37464095Y46328761D01*
X37415714Y46377142D01*
X37367333Y46473904D01*
X37318952Y46667428D01*
X37318952Y46909333D01*
X37367333Y47102857D01*
X37415714Y47199619D01*
X37464095Y47248000D01*
X37560857Y47296380D01*
X38334952Y46377142D02*
X38383333Y46328761D01*
X38334952Y46280380D01*
X38286571Y46328761D01*
X38334952Y46377142D01*
X38334952Y46280380D01*
X39350952Y46280380D02*
X38770380Y46280380D01*
X39060666Y46280380D02*
X39060666Y47296380D01*
X38963904Y47151238D01*
X38867142Y47054476D01*
X38770380Y47006095D01*
X40221809Y46957714D02*
X40221809Y46280380D01*
X39786380Y46957714D02*
X39786380Y46425523D01*
X39834761Y46328761D01*
X39931523Y46280380D01*
X40076666Y46280380D01*
X40173428Y46328761D01*
X40221809Y46377142D01*
X41044285Y46812571D02*
X40705619Y46812571D01*
X40705619Y46280380D02*
X40705619Y47296380D01*
X41189428Y47296380D01*
X25726857Y30817142D02*
X25678476Y30768761D01*
X25533333Y30720380D01*
X25436571Y30720380D01*
X25291428Y30768761D01*
X25194666Y30865523D01*
X25146285Y30962285D01*
X25097904Y31155809D01*
X25097904Y31300952D01*
X25146285Y31494476D01*
X25194666Y31591238D01*
X25291428Y31688000D01*
X25436571Y31736380D01*
X25533333Y31736380D01*
X25678476Y31688000D01*
X25726857Y31639619D01*
X26113904Y31639619D02*
X26162285Y31688000D01*
X26259047Y31736380D01*
X26500952Y31736380D01*
X26597714Y31688000D01*
X26646095Y31639619D01*
X26694476Y31542857D01*
X26694476Y31446095D01*
X26646095Y31300952D01*
X26065523Y30720380D01*
X26694476Y30720380D01*
X27323428Y31736380D02*
X27420190Y31736380D01*
X27516952Y31688000D01*
X27565333Y31639619D01*
X27613714Y31542857D01*
X27662095Y31349333D01*
X27662095Y31107428D01*
X27613714Y30913904D01*
X27565333Y30817142D01*
X27516952Y30768761D01*
X27420190Y30720380D01*
X27323428Y30720380D01*
X27226666Y30768761D01*
X27178285Y30817142D01*
X27129904Y30913904D01*
X27081523Y31107428D01*
X27081523Y31349333D01*
X27129904Y31542857D01*
X27178285Y31639619D01*
X27226666Y31688000D01*
X27323428Y31736380D01*
X21733619Y30200857D02*
X21733619Y30297619D01*
X21782000Y30394380D01*
X21830380Y30442761D01*
X21927142Y30491142D01*
X22120666Y30539523D01*
X22362571Y30539523D01*
X22556095Y30491142D01*
X22652857Y30442761D01*
X22701238Y30394380D01*
X22749619Y30297619D01*
X22749619Y30200857D01*
X22701238Y30104095D01*
X22652857Y30055714D01*
X22556095Y30007333D01*
X22362571Y29958952D01*
X22120666Y29958952D01*
X21927142Y30007333D01*
X21830380Y30055714D01*
X21782000Y30104095D01*
X21733619Y30200857D01*
X22652857Y30974952D02*
X22701238Y31023333D01*
X22749619Y30974952D01*
X22701238Y30926571D01*
X22652857Y30974952D01*
X22749619Y30974952D01*
X22749619Y31990952D02*
X22749619Y31410380D01*
X22749619Y31700666D02*
X21733619Y31700666D01*
X21878761Y31603904D01*
X21975523Y31507142D01*
X22023904Y31410380D01*
X22072285Y32861809D02*
X22749619Y32861809D01*
X22072285Y32426380D02*
X22604476Y32426380D01*
X22701238Y32474761D01*
X22749619Y32571523D01*
X22749619Y32716666D01*
X22701238Y32813428D01*
X22652857Y32861809D01*
X22217428Y33684285D02*
X22217428Y33345619D01*
X22749619Y33345619D02*
X21733619Y33345619D01*
X21733619Y33829428D01*
X27606857Y77867142D02*
X27558476Y77818761D01*
X27413333Y77770380D01*
X27316571Y77770380D01*
X27171428Y77818761D01*
X27074666Y77915523D01*
X27026285Y78012285D01*
X26977904Y78205809D01*
X26977904Y78350952D01*
X27026285Y78544476D01*
X27074666Y78641238D01*
X27171428Y78738000D01*
X27316571Y78786380D01*
X27413333Y78786380D01*
X27558476Y78738000D01*
X27606857Y78689619D01*
X28574476Y77770380D02*
X27993904Y77770380D01*
X28284190Y77770380D02*
X28284190Y78786380D01*
X28187428Y78641238D01*
X28090666Y78544476D01*
X27993904Y78496095D01*
X29058285Y77770380D02*
X29251809Y77770380D01*
X29348571Y77818761D01*
X29396952Y77867142D01*
X29493714Y78012285D01*
X29542095Y78205809D01*
X29542095Y78592857D01*
X29493714Y78689619D01*
X29445333Y78738000D01*
X29348571Y78786380D01*
X29155047Y78786380D01*
X29058285Y78738000D01*
X29009904Y78689619D01*
X28961523Y78592857D01*
X28961523Y78350952D01*
X29009904Y78254190D01*
X29058285Y78205809D01*
X29155047Y78157428D01*
X29348571Y78157428D01*
X29445333Y78205809D01*
X29493714Y78254190D01*
X29542095Y78350952D01*
X28303619Y77140857D02*
X28303619Y77237619D01*
X28352000Y77334380D01*
X28400380Y77382761D01*
X28497142Y77431142D01*
X28690666Y77479523D01*
X28932571Y77479523D01*
X29126095Y77431142D01*
X29222857Y77382761D01*
X29271238Y77334380D01*
X29319619Y77237619D01*
X29319619Y77140857D01*
X29271238Y77044095D01*
X29222857Y76995714D01*
X29126095Y76947333D01*
X28932571Y76898952D01*
X28690666Y76898952D01*
X28497142Y76947333D01*
X28400380Y76995714D01*
X28352000Y77044095D01*
X28303619Y77140857D01*
X29222857Y77914952D02*
X29271238Y77963333D01*
X29319619Y77914952D01*
X29271238Y77866571D01*
X29222857Y77914952D01*
X29319619Y77914952D01*
X29319619Y78930952D02*
X29319619Y78350380D01*
X29319619Y78640666D02*
X28303619Y78640666D01*
X28448761Y78543904D01*
X28545523Y78447142D01*
X28593904Y78350380D01*
X28642285Y79801809D02*
X29319619Y79801809D01*
X28642285Y79366380D02*
X29174476Y79366380D01*
X29271238Y79414761D01*
X29319619Y79511523D01*
X29319619Y79656666D01*
X29271238Y79753428D01*
X29222857Y79801809D01*
X28787428Y80624285D02*
X28787428Y80285619D01*
X29319619Y80285619D02*
X28303619Y80285619D01*
X28303619Y80769428D01*
X41822857Y56376857D02*
X41871238Y56328476D01*
X41919619Y56183333D01*
X41919619Y56086571D01*
X41871238Y55941428D01*
X41774476Y55844666D01*
X41677714Y55796285D01*
X41484190Y55747904D01*
X41339047Y55747904D01*
X41145523Y55796285D01*
X41048761Y55844666D01*
X40952000Y55941428D01*
X40903619Y56086571D01*
X40903619Y56183333D01*
X40952000Y56328476D01*
X41000380Y56376857D01*
X41919619Y57344476D02*
X41919619Y56763904D01*
X41919619Y57054190D02*
X40903619Y57054190D01*
X41048761Y56957428D01*
X41145523Y56860666D01*
X41193904Y56763904D01*
X41339047Y57925047D02*
X41290666Y57828285D01*
X41242285Y57779904D01*
X41145523Y57731523D01*
X41097142Y57731523D01*
X41000380Y57779904D01*
X40952000Y57828285D01*
X40903619Y57925047D01*
X40903619Y58118571D01*
X40952000Y58215333D01*
X41000380Y58263714D01*
X41097142Y58312095D01*
X41145523Y58312095D01*
X41242285Y58263714D01*
X41290666Y58215333D01*
X41339047Y58118571D01*
X41339047Y57925047D01*
X41387428Y57828285D01*
X41435809Y57779904D01*
X41532571Y57731523D01*
X41726095Y57731523D01*
X41822857Y57779904D01*
X41871238Y57828285D01*
X41919619Y57925047D01*
X41919619Y58118571D01*
X41871238Y58215333D01*
X41822857Y58263714D01*
X41726095Y58312095D01*
X41532571Y58312095D01*
X41435809Y58263714D01*
X41387428Y58215333D01*
X41339047Y58118571D01*
X37103619Y55360857D02*
X37103619Y55457619D01*
X37152000Y55554380D01*
X37200380Y55602761D01*
X37297142Y55651142D01*
X37490666Y55699523D01*
X37732571Y55699523D01*
X37926095Y55651142D01*
X38022857Y55602761D01*
X38071238Y55554380D01*
X38119619Y55457619D01*
X38119619Y55360857D01*
X38071238Y55264095D01*
X38022857Y55215714D01*
X37926095Y55167333D01*
X37732571Y55118952D01*
X37490666Y55118952D01*
X37297142Y55167333D01*
X37200380Y55215714D01*
X37152000Y55264095D01*
X37103619Y55360857D01*
X38022857Y56134952D02*
X38071238Y56183333D01*
X38119619Y56134952D01*
X38071238Y56086571D01*
X38022857Y56134952D01*
X38119619Y56134952D01*
X38119619Y57150952D02*
X38119619Y56570380D01*
X38119619Y56860666D02*
X37103619Y56860666D01*
X37248761Y56763904D01*
X37345523Y56667142D01*
X37393904Y56570380D01*
X37442285Y58021809D02*
X38119619Y58021809D01*
X37442285Y57586380D02*
X37974476Y57586380D01*
X38071238Y57634761D01*
X38119619Y57731523D01*
X38119619Y57876666D01*
X38071238Y57973428D01*
X38022857Y58021809D01*
X37587428Y58844285D02*
X37587428Y58505619D01*
X38119619Y58505619D02*
X37103619Y58505619D01*
X37103619Y58989428D01*
X3271536Y89245142D02*
X3223155Y89196761D01*
X3078012Y89148380D01*
X2981250Y89148380D01*
X2836107Y89196761D01*
X2739345Y89293523D01*
X2690964Y89390285D01*
X2642583Y89583809D01*
X2642583Y89728952D01*
X2690964Y89922476D01*
X2739345Y90019238D01*
X2836107Y90116000D01*
X2981250Y90164380D01*
X3078012Y90164380D01*
X3223155Y90116000D01*
X3271536Y90067619D01*
X4239155Y89148380D02*
X3658583Y89148380D01*
X3948869Y89148380D02*
X3948869Y90164380D01*
X3852107Y90019238D01*
X3755345Y89922476D01*
X3658583Y89874095D01*
X4577821Y90164380D02*
X5255155Y90164380D01*
X4819726Y89148380D01*
X7092583Y93167619D02*
X7140964Y93216000D01*
X7237726Y93264380D01*
X7479631Y93264380D01*
X7576393Y93216000D01*
X7624774Y93167619D01*
X7673155Y93070857D01*
X7673155Y92974095D01*
X7624774Y92828952D01*
X7044202Y92248380D01*
X7673155Y92248380D01*
X8060202Y93167619D02*
X8108583Y93216000D01*
X8205345Y93264380D01*
X8447250Y93264380D01*
X8544012Y93216000D01*
X8592393Y93167619D01*
X8640774Y93070857D01*
X8640774Y92974095D01*
X8592393Y92828952D01*
X8011821Y92248380D01*
X8640774Y92248380D01*
X9511631Y92925714D02*
X9511631Y92248380D01*
X9076202Y92925714D02*
X9076202Y92393523D01*
X9124583Y92296761D01*
X9221345Y92248380D01*
X9366488Y92248380D01*
X9463250Y92296761D01*
X9511631Y92345142D01*
X10334107Y92780571D02*
X9995440Y92780571D01*
X9995440Y92248380D02*
X9995440Y93264380D01*
X10479250Y93264380D01*
X11833917Y93264380D02*
X11930679Y93264380D01*
X12027440Y93216000D01*
X12075821Y93167619D01*
X12124202Y93070857D01*
X12172583Y92877333D01*
X12172583Y92635428D01*
X12124202Y92441904D01*
X12075821Y92345142D01*
X12027440Y92296761D01*
X11930679Y92248380D01*
X11833917Y92248380D01*
X11737155Y92296761D01*
X11688774Y92345142D01*
X11640393Y92441904D01*
X11592012Y92635428D01*
X11592012Y92877333D01*
X11640393Y93070857D01*
X11688774Y93167619D01*
X11737155Y93216000D01*
X11833917Y93264380D01*
X12753155Y92828952D02*
X12656393Y92877333D01*
X12608012Y92925714D01*
X12559631Y93022476D01*
X12559631Y93070857D01*
X12608012Y93167619D01*
X12656393Y93216000D01*
X12753155Y93264380D01*
X12946679Y93264380D01*
X13043440Y93216000D01*
X13091821Y93167619D01*
X13140202Y93070857D01*
X13140202Y93022476D01*
X13091821Y92925714D01*
X13043440Y92877333D01*
X12946679Y92828952D01*
X12753155Y92828952D01*
X12656393Y92780571D01*
X12608012Y92732190D01*
X12559631Y92635428D01*
X12559631Y92441904D01*
X12608012Y92345142D01*
X12656393Y92296761D01*
X12753155Y92248380D01*
X12946679Y92248380D01*
X13043440Y92296761D01*
X13091821Y92345142D01*
X13140202Y92441904D01*
X13140202Y92635428D01*
X13091821Y92732190D01*
X13043440Y92780571D01*
X12946679Y92828952D01*
X13769155Y93264380D02*
X13865917Y93264380D01*
X13962679Y93216000D01*
X14011060Y93167619D01*
X14059440Y93070857D01*
X14107821Y92877333D01*
X14107821Y92635428D01*
X14059440Y92441904D01*
X14011060Y92345142D01*
X13962679Y92296761D01*
X13865917Y92248380D01*
X13769155Y92248380D01*
X13672393Y92296761D01*
X13624012Y92345142D01*
X13575631Y92441904D01*
X13527250Y92635428D01*
X13527250Y92877333D01*
X13575631Y93070857D01*
X13624012Y93167619D01*
X13672393Y93216000D01*
X13769155Y93264380D01*
X15027060Y93264380D02*
X14543250Y93264380D01*
X14494869Y92780571D01*
X14543250Y92828952D01*
X14640012Y92877333D01*
X14881917Y92877333D01*
X14978679Y92828952D01*
X15027060Y92780571D01*
X15075440Y92683809D01*
X15075440Y92441904D01*
X15027060Y92345142D01*
X14978679Y92296761D01*
X14881917Y92248380D01*
X14640012Y92248380D01*
X14543250Y92296761D01*
X14494869Y92345142D01*
X16284964Y92635428D02*
X17059060Y92635428D01*
X17881536Y92780571D02*
X18026679Y92732190D01*
X18075060Y92683809D01*
X18123440Y92587047D01*
X18123440Y92441904D01*
X18075060Y92345142D01*
X18026679Y92296761D01*
X17929917Y92248380D01*
X17542869Y92248380D01*
X17542869Y93264380D01*
X17881536Y93264380D01*
X17978298Y93216000D01*
X18026679Y93167619D01*
X18075060Y93070857D01*
X18075060Y92974095D01*
X18026679Y92877333D01*
X17978298Y92828952D01*
X17881536Y92780571D01*
X17542869Y92780571D01*
X18558869Y92248380D02*
X18558869Y93264380D01*
X19042679Y92248380D02*
X19042679Y93264380D01*
X19623250Y92248380D01*
X19623250Y93264380D01*
X2926857Y87207142D02*
X2878476Y87158761D01*
X2733333Y87110380D01*
X2636571Y87110380D01*
X2491428Y87158761D01*
X2394666Y87255523D01*
X2346285Y87352285D01*
X2297904Y87545809D01*
X2297904Y87690952D01*
X2346285Y87884476D01*
X2394666Y87981238D01*
X2491428Y88078000D01*
X2636571Y88126380D01*
X2733333Y88126380D01*
X2878476Y88078000D01*
X2926857Y88029619D01*
X3894476Y87110380D02*
X3313904Y87110380D01*
X3604190Y87110380D02*
X3604190Y88126380D01*
X3507428Y87981238D01*
X3410666Y87884476D01*
X3313904Y87836095D01*
X4765333Y88126380D02*
X4571809Y88126380D01*
X4475047Y88078000D01*
X4426666Y88029619D01*
X4329904Y87884476D01*
X4281523Y87690952D01*
X4281523Y87303904D01*
X4329904Y87207142D01*
X4378285Y87158761D01*
X4475047Y87110380D01*
X4668571Y87110380D01*
X4765333Y87158761D01*
X4813714Y87207142D01*
X4862095Y87303904D01*
X4862095Y87545809D01*
X4813714Y87642571D01*
X4765333Y87690952D01*
X4668571Y87739333D01*
X4475047Y87739333D01*
X4378285Y87690952D01*
X4329904Y87642571D01*
X4281523Y87545809D01*
X6455238Y89020380D02*
X5874666Y89020380D01*
X6164952Y89020380D02*
X6164952Y90036380D01*
X6068190Y89891238D01*
X5971428Y89794476D01*
X5874666Y89746095D01*
X7326095Y89697714D02*
X7326095Y89020380D01*
X6890666Y89697714D02*
X6890666Y89165523D01*
X6939047Y89068761D01*
X7035809Y89020380D01*
X7180952Y89020380D01*
X7277714Y89068761D01*
X7326095Y89117142D01*
X8148571Y89552571D02*
X7809904Y89552571D01*
X7809904Y89020380D02*
X7809904Y90036380D01*
X8293714Y90036380D01*
X19846857Y48967142D02*
X19798476Y48918761D01*
X19653333Y48870380D01*
X19556571Y48870380D01*
X19411428Y48918761D01*
X19314666Y49015523D01*
X19266285Y49112285D01*
X19217904Y49305809D01*
X19217904Y49450952D01*
X19266285Y49644476D01*
X19314666Y49741238D01*
X19411428Y49838000D01*
X19556571Y49886380D01*
X19653333Y49886380D01*
X19798476Y49838000D01*
X19846857Y49789619D01*
X20814476Y48870380D02*
X20233904Y48870380D01*
X20524190Y48870380D02*
X20524190Y49886380D01*
X20427428Y49741238D01*
X20330666Y49644476D01*
X20233904Y49596095D01*
X21733714Y49886380D02*
X21249904Y49886380D01*
X21201523Y49402571D01*
X21249904Y49450952D01*
X21346666Y49499333D01*
X21588571Y49499333D01*
X21685333Y49450952D01*
X21733714Y49402571D01*
X21782095Y49305809D01*
X21782095Y49063904D01*
X21733714Y48967142D01*
X21685333Y48918761D01*
X21588571Y48870380D01*
X21346666Y48870380D01*
X21249904Y48918761D01*
X21201523Y48967142D01*
X15483619Y47740857D02*
X15483619Y47837619D01*
X15532000Y47934380D01*
X15580380Y47982761D01*
X15677142Y48031142D01*
X15870666Y48079523D01*
X16112571Y48079523D01*
X16306095Y48031142D01*
X16402857Y47982761D01*
X16451238Y47934380D01*
X16499619Y47837619D01*
X16499619Y47740857D01*
X16451238Y47644095D01*
X16402857Y47595714D01*
X16306095Y47547333D01*
X16112571Y47498952D01*
X15870666Y47498952D01*
X15677142Y47547333D01*
X15580380Y47595714D01*
X15532000Y47644095D01*
X15483619Y47740857D01*
X16402857Y48514952D02*
X16451238Y48563333D01*
X16499619Y48514952D01*
X16451238Y48466571D01*
X16402857Y48514952D01*
X16499619Y48514952D01*
X16499619Y49530952D02*
X16499619Y48950380D01*
X16499619Y49240666D02*
X15483619Y49240666D01*
X15628761Y49143904D01*
X15725523Y49047142D01*
X15773904Y48950380D01*
X15822285Y50401809D02*
X16499619Y50401809D01*
X15822285Y49966380D02*
X16354476Y49966380D01*
X16451238Y50014761D01*
X16499619Y50111523D01*
X16499619Y50256666D01*
X16451238Y50353428D01*
X16402857Y50401809D01*
X15967428Y51224285D02*
X15967428Y50885619D01*
X16499619Y50885619D02*
X15483619Y50885619D01*
X15483619Y51369428D01*
X10386857Y102967142D02*
X10338476Y102918761D01*
X10193333Y102870380D01*
X10096571Y102870380D01*
X9951428Y102918761D01*
X9854666Y103015523D01*
X9806285Y103112285D01*
X9757904Y103305809D01*
X9757904Y103450952D01*
X9806285Y103644476D01*
X9854666Y103741238D01*
X9951428Y103838000D01*
X10096571Y103886380D01*
X10193333Y103886380D01*
X10338476Y103838000D01*
X10386857Y103789619D01*
X11354476Y102870380D02*
X10773904Y102870380D01*
X11064190Y102870380D02*
X11064190Y103886380D01*
X10967428Y103741238D01*
X10870666Y103644476D01*
X10773904Y103596095D01*
X12225333Y103547714D02*
X12225333Y102870380D01*
X11983428Y103934761D02*
X11741523Y103209047D01*
X12370476Y103209047D01*
X11856666Y103435714D02*
X11856666Y102758380D01*
X11614761Y103822761D02*
X11372857Y103097047D01*
X12001809Y103097047D01*
X12292095Y103774380D02*
X12969428Y103774380D01*
X12534000Y102758380D01*
X13791904Y103435714D02*
X13791904Y102758380D01*
X13356476Y103435714D02*
X13356476Y102903523D01*
X13404857Y102806761D01*
X13501619Y102758380D01*
X13646761Y102758380D01*
X13743523Y102806761D01*
X13791904Y102855142D01*
X14614380Y103290571D02*
X14275714Y103290571D01*
X14275714Y102758380D02*
X14275714Y103774380D01*
X14759523Y103774380D01*
D11*
X7161047Y97156571D02*
X7922952Y97156571D01*
X7542000Y96775619D02*
X7542000Y97537523D01*
D12*
X18176857Y23967142D02*
X18128476Y23918761D01*
X17983333Y23870380D01*
X17886571Y23870380D01*
X17741428Y23918761D01*
X17644666Y24015523D01*
X17596285Y24112285D01*
X17547904Y24305809D01*
X17547904Y24450952D01*
X17596285Y24644476D01*
X17644666Y24741238D01*
X17741428Y24838000D01*
X17886571Y24886380D01*
X17983333Y24886380D01*
X18128476Y24838000D01*
X18176857Y24789619D01*
X19144476Y23870380D02*
X18563904Y23870380D01*
X18854190Y23870380D02*
X18854190Y24886380D01*
X18757428Y24741238D01*
X18660666Y24644476D01*
X18563904Y24596095D01*
X19483142Y24886380D02*
X20112095Y24886380D01*
X19773428Y24499333D01*
X19918571Y24499333D01*
X20015333Y24450952D01*
X20063714Y24402571D01*
X20112095Y24305809D01*
X20112095Y24063904D01*
X20063714Y23967142D01*
X20015333Y23918761D01*
X19918571Y23870380D01*
X19628285Y23870380D01*
X19531523Y23918761D01*
X19483142Y23967142D01*
X18029619Y26115238D02*
X18029619Y25534666D01*
X18029619Y25824952D02*
X17013619Y25824952D01*
X17158761Y25728190D01*
X17255523Y25631428D01*
X17303904Y25534666D01*
X17352285Y26550666D02*
X18029619Y26550666D01*
X17449047Y26550666D02*
X17400666Y26599047D01*
X17352285Y26695809D01*
X17352285Y26840952D01*
X17400666Y26937714D01*
X17497428Y26986095D01*
X18029619Y26986095D01*
X17497428Y27808571D02*
X17497428Y27469904D01*
X18029619Y27469904D02*
X17013619Y27469904D01*
X17013619Y27953714D01*
X30062178Y49445142D02*
X30013797Y49396761D01*
X29868654Y49348380D01*
X29771892Y49348380D01*
X29626749Y49396761D01*
X29529987Y49493523D01*
X29481606Y49590285D01*
X29433225Y49783809D01*
X29433225Y49928952D01*
X29481606Y50122476D01*
X29529987Y50219238D01*
X29626749Y50316000D01*
X29771892Y50364380D01*
X29868654Y50364380D01*
X30013797Y50316000D01*
X30062178Y50267619D01*
X31029797Y49348380D02*
X30449225Y49348380D01*
X30739511Y49348380D02*
X30739511Y50364380D01*
X30642749Y50219238D01*
X30545987Y50122476D01*
X30449225Y50074095D01*
X31416844Y50267619D02*
X31465225Y50316000D01*
X31561987Y50364380D01*
X31803892Y50364380D01*
X31900654Y50316000D01*
X31949035Y50267619D01*
X31997416Y50170857D01*
X31997416Y50074095D01*
X31949035Y49928952D01*
X31368463Y49348380D01*
X31997416Y49348380D01*
X27737320Y48968380D02*
X27156749Y48968380D01*
X27447035Y48968380D02*
X27447035Y49984380D01*
X27350273Y49839238D01*
X27253511Y49742476D01*
X27156749Y49694095D01*
X28608178Y49645714D02*
X28608178Y48968380D01*
X28172749Y49645714D02*
X28172749Y49113523D01*
X28221130Y49016761D01*
X28317892Y48968380D01*
X28463035Y48968380D01*
X28559797Y49016761D01*
X28608178Y49065142D01*
X29430654Y49500571D02*
X29091987Y49500571D01*
X29091987Y48968380D02*
X29091987Y49984380D01*
X29575797Y49984380D01*
X38992857Y42226857D02*
X39041238Y42178476D01*
X39089619Y42033333D01*
X39089619Y41936571D01*
X39041238Y41791428D01*
X38944476Y41694666D01*
X38847714Y41646285D01*
X38654190Y41597904D01*
X38509047Y41597904D01*
X38315523Y41646285D01*
X38218761Y41694666D01*
X38122000Y41791428D01*
X38073619Y41936571D01*
X38073619Y42033333D01*
X38122000Y42178476D01*
X38170380Y42226857D01*
X39089619Y43194476D02*
X39089619Y42613904D01*
X39089619Y42904190D02*
X38073619Y42904190D01*
X38218761Y42807428D01*
X38315523Y42710666D01*
X38363904Y42613904D01*
X39089619Y44162095D02*
X39089619Y43581523D01*
X39089619Y43871809D02*
X38073619Y43871809D01*
X38218761Y43775047D01*
X38315523Y43678285D01*
X38363904Y43581523D01*
X36113619Y44290857D02*
X36113619Y44387619D01*
X36162000Y44484380D01*
X36210380Y44532761D01*
X36307142Y44581142D01*
X36500666Y44629523D01*
X36742571Y44629523D01*
X36936095Y44581142D01*
X37032857Y44532761D01*
X37081238Y44484380D01*
X37129619Y44387619D01*
X37129619Y44290857D01*
X37081238Y44194095D01*
X37032857Y44145714D01*
X36936095Y44097333D01*
X36742571Y44048952D01*
X36500666Y44048952D01*
X36307142Y44097333D01*
X36210380Y44145714D01*
X36162000Y44194095D01*
X36113619Y44290857D01*
X37032857Y45064952D02*
X37081238Y45113333D01*
X37129619Y45064952D01*
X37081238Y45016571D01*
X37032857Y45064952D01*
X37129619Y45064952D01*
X37129619Y46080952D02*
X37129619Y45500380D01*
X37129619Y45790666D02*
X36113619Y45790666D01*
X36258761Y45693904D01*
X36355523Y45597142D01*
X36403904Y45500380D01*
X36452285Y46951809D02*
X37129619Y46951809D01*
X36452285Y46516380D02*
X36984476Y46516380D01*
X37081238Y46564761D01*
X37129619Y46661523D01*
X37129619Y46806666D01*
X37081238Y46903428D01*
X37032857Y46951809D01*
X36597428Y47774285D02*
X36597428Y47435619D01*
X37129619Y47435619D02*
X36113619Y47435619D01*
X36113619Y47919428D01*
X9896857Y28807142D02*
X9848476Y28758761D01*
X9703333Y28710380D01*
X9606571Y28710380D01*
X9461428Y28758761D01*
X9364666Y28855523D01*
X9316285Y28952285D01*
X9267904Y29145809D01*
X9267904Y29290952D01*
X9316285Y29484476D01*
X9364666Y29581238D01*
X9461428Y29678000D01*
X9606571Y29726380D01*
X9703333Y29726380D01*
X9848476Y29678000D01*
X9896857Y29629619D01*
X10864476Y28710380D02*
X10283904Y28710380D01*
X10574190Y28710380D02*
X10574190Y29726380D01*
X10477428Y29581238D01*
X10380666Y29484476D01*
X10283904Y29436095D01*
X11493428Y29726380D02*
X11590190Y29726380D01*
X11686952Y29678000D01*
X11735333Y29629619D01*
X11783714Y29532857D01*
X11832095Y29339333D01*
X11832095Y29097428D01*
X11783714Y28903904D01*
X11735333Y28807142D01*
X11686952Y28758761D01*
X11590190Y28710380D01*
X11493428Y28710380D01*
X11396666Y28758761D01*
X11348285Y28807142D01*
X11299904Y28903904D01*
X11251523Y29097428D01*
X11251523Y29339333D01*
X11299904Y29532857D01*
X11348285Y29629619D01*
X11396666Y29678000D01*
X11493428Y29726380D01*
X12681428Y26790380D02*
X12100857Y26790380D01*
X12391142Y26790380D02*
X12391142Y27806380D01*
X12294380Y27661238D01*
X12197619Y27564476D01*
X12100857Y27516095D01*
X13310380Y27806380D02*
X13407142Y27806380D01*
X13503904Y27758000D01*
X13552285Y27709619D01*
X13600666Y27612857D01*
X13649047Y27419333D01*
X13649047Y27177428D01*
X13600666Y26983904D01*
X13552285Y26887142D01*
X13503904Y26838761D01*
X13407142Y26790380D01*
X13310380Y26790380D01*
X13213619Y26838761D01*
X13165238Y26887142D01*
X13116857Y26983904D01*
X13068476Y27177428D01*
X13068476Y27419333D01*
X13116857Y27612857D01*
X13165238Y27709619D01*
X13213619Y27758000D01*
X13310380Y27806380D01*
X14084476Y27467714D02*
X14084476Y26790380D01*
X14084476Y27370952D02*
X14132857Y27419333D01*
X14229619Y27467714D01*
X14374761Y27467714D01*
X14471523Y27419333D01*
X14519904Y27322571D01*
X14519904Y26790380D01*
X15342380Y27322571D02*
X15003714Y27322571D01*
X15003714Y26790380D02*
X15003714Y27806380D01*
X15487523Y27806380D01*
X16810666Y35787142D02*
X16762285Y35738761D01*
X16617142Y35690380D01*
X16520380Y35690380D01*
X16375238Y35738761D01*
X16278476Y35835523D01*
X16230095Y35932285D01*
X16181714Y36125809D01*
X16181714Y36270952D01*
X16230095Y36464476D01*
X16278476Y36561238D01*
X16375238Y36658000D01*
X16520380Y36706380D01*
X16617142Y36706380D01*
X16762285Y36658000D01*
X16810666Y36609619D01*
X17294476Y35690380D02*
X17488000Y35690380D01*
X17584761Y35738761D01*
X17633142Y35787142D01*
X17729904Y35932285D01*
X17778285Y36125809D01*
X17778285Y36512857D01*
X17729904Y36609619D01*
X17681523Y36658000D01*
X17584761Y36706380D01*
X17391238Y36706380D01*
X17294476Y36658000D01*
X17246095Y36609619D01*
X17197714Y36512857D01*
X17197714Y36270952D01*
X17246095Y36174190D01*
X17294476Y36125809D01*
X17391238Y36077428D01*
X17584761Y36077428D01*
X17681523Y36125809D01*
X17729904Y36174190D01*
X17778285Y36270952D01*
X15874666Y36763714D02*
X15874666Y36086380D01*
X15632761Y37150761D02*
X15390857Y36425047D01*
X16019809Y36425047D01*
X16310095Y37102380D02*
X16987428Y37102380D01*
X16552000Y36086380D01*
X17374476Y36763714D02*
X17374476Y36086380D01*
X17374476Y36666952D02*
X17422857Y36715333D01*
X17519619Y36763714D01*
X17664761Y36763714D01*
X17761523Y36715333D01*
X17809904Y36618571D01*
X17809904Y36086380D01*
X18632380Y36618571D02*
X18293714Y36618571D01*
X18293714Y36086380D02*
X18293714Y37102380D01*
X18777523Y37102380D01*
X8622857Y21750666D02*
X8671238Y21702285D01*
X8719619Y21557142D01*
X8719619Y21460380D01*
X8671238Y21315238D01*
X8574476Y21218476D01*
X8477714Y21170095D01*
X8284190Y21121714D01*
X8139047Y21121714D01*
X7945523Y21170095D01*
X7848761Y21218476D01*
X7752000Y21315238D01*
X7703619Y21460380D01*
X7703619Y21557142D01*
X7752000Y21702285D01*
X7800380Y21750666D01*
X8139047Y22331238D02*
X8090666Y22234476D01*
X8042285Y22186095D01*
X7945523Y22137714D01*
X7897142Y22137714D01*
X7800380Y22186095D01*
X7752000Y22234476D01*
X7703619Y22331238D01*
X7703619Y22524761D01*
X7752000Y22621523D01*
X7800380Y22669904D01*
X7897142Y22718285D01*
X7945523Y22718285D01*
X8042285Y22669904D01*
X8090666Y22621523D01*
X8139047Y22524761D01*
X8139047Y22331238D01*
X8187428Y22234476D01*
X8235809Y22186095D01*
X8332571Y22137714D01*
X8526095Y22137714D01*
X8622857Y22186095D01*
X8671238Y22234476D01*
X8719619Y22331238D01*
X8719619Y22524761D01*
X8671238Y22621523D01*
X8622857Y22669904D01*
X8526095Y22718285D01*
X8332571Y22718285D01*
X8235809Y22669904D01*
X8187428Y22621523D01*
X8139047Y22524761D01*
X4242285Y20492761D02*
X4919619Y20492761D01*
X3855238Y20250857D02*
X4580952Y20008952D01*
X4580952Y20637904D01*
X4822857Y21024952D02*
X4871238Y21073333D01*
X4919619Y21024952D01*
X4871238Y20976571D01*
X4822857Y21024952D01*
X4919619Y21024952D01*
X3903619Y21412000D02*
X3903619Y22089333D01*
X4919619Y21653904D01*
X4242285Y22476380D02*
X4919619Y22476380D01*
X4339047Y22476380D02*
X4290666Y22524761D01*
X4242285Y22621523D01*
X4242285Y22766666D01*
X4290666Y22863428D01*
X4387428Y22911809D01*
X4919619Y22911809D01*
X4387428Y23734285D02*
X4387428Y23395619D01*
X4919619Y23395619D02*
X3903619Y23395619D01*
X3903619Y23879428D01*
X13632857Y21690666D02*
X13681238Y21642285D01*
X13729619Y21497142D01*
X13729619Y21400380D01*
X13681238Y21255238D01*
X13584476Y21158476D01*
X13487714Y21110095D01*
X13294190Y21061714D01*
X13149047Y21061714D01*
X12955523Y21110095D01*
X12858761Y21158476D01*
X12762000Y21255238D01*
X12713619Y21400380D01*
X12713619Y21497142D01*
X12762000Y21642285D01*
X12810380Y21690666D01*
X12713619Y22029333D02*
X12713619Y22706666D01*
X13729619Y22271238D01*
X9929619Y20771428D02*
X9929619Y20190857D01*
X9929619Y20481142D02*
X8913619Y20481142D01*
X9058761Y20384380D01*
X9155523Y20287619D01*
X9203904Y20190857D01*
X8913619Y21400380D02*
X8913619Y21497142D01*
X8962000Y21593904D01*
X9010380Y21642285D01*
X9107142Y21690666D01*
X9300666Y21739047D01*
X9542571Y21739047D01*
X9736095Y21690666D01*
X9832857Y21642285D01*
X9881238Y21593904D01*
X9929619Y21497142D01*
X9929619Y21400380D01*
X9881238Y21303619D01*
X9832857Y21255238D01*
X9736095Y21206857D01*
X9542571Y21158476D01*
X9300666Y21158476D01*
X9107142Y21206857D01*
X9010380Y21255238D01*
X8962000Y21303619D01*
X8913619Y21400380D01*
X9252285Y22174476D02*
X9929619Y22174476D01*
X9349047Y22174476D02*
X9300666Y22222857D01*
X9252285Y22319619D01*
X9252285Y22464761D01*
X9300666Y22561523D01*
X9397428Y22609904D01*
X9929619Y22609904D01*
X9397428Y23432380D02*
X9397428Y23093714D01*
X9929619Y23093714D02*
X8913619Y23093714D01*
X8913619Y23577523D01*
X14400666Y35537142D02*
X14352285Y35488761D01*
X14207142Y35440380D01*
X14110380Y35440380D01*
X13965238Y35488761D01*
X13868476Y35585523D01*
X13820095Y35682285D01*
X13771714Y35875809D01*
X13771714Y36020952D01*
X13820095Y36214476D01*
X13868476Y36311238D01*
X13965238Y36408000D01*
X14110380Y36456380D01*
X14207142Y36456380D01*
X14352285Y36408000D01*
X14400666Y36359619D01*
X15271523Y36456380D02*
X15078000Y36456380D01*
X14981238Y36408000D01*
X14932857Y36359619D01*
X14836095Y36214476D01*
X14787714Y36020952D01*
X14787714Y35633904D01*
X14836095Y35537142D01*
X14884476Y35488761D01*
X14981238Y35440380D01*
X15174761Y35440380D01*
X15271523Y35488761D01*
X15319904Y35537142D01*
X15368285Y35633904D01*
X15368285Y35875809D01*
X15319904Y35972571D01*
X15271523Y36020952D01*
X15174761Y36069333D01*
X14981238Y36069333D01*
X14884476Y36020952D01*
X14836095Y35972571D01*
X14787714Y35875809D01*
X12190380Y31922857D02*
X12142000Y31971238D01*
X12093619Y32068000D01*
X12093619Y32309904D01*
X12142000Y32406666D01*
X12190380Y32455047D01*
X12287142Y32503428D01*
X12383904Y32503428D01*
X12529047Y32455047D01*
X13109619Y31874476D01*
X13109619Y32503428D01*
X12190380Y32890476D02*
X12142000Y32938857D01*
X12093619Y33035619D01*
X12093619Y33277523D01*
X12142000Y33374285D01*
X12190380Y33422666D01*
X12287142Y33471047D01*
X12383904Y33471047D01*
X12529047Y33422666D01*
X13109619Y32842095D01*
X13109619Y33471047D01*
X12432285Y33906476D02*
X13448285Y33906476D01*
X12480666Y33906476D02*
X12432285Y34003238D01*
X12432285Y34196761D01*
X12480666Y34293523D01*
X12529047Y34341904D01*
X12625809Y34390285D01*
X12916095Y34390285D01*
X13012857Y34341904D01*
X13061238Y34293523D01*
X13109619Y34196761D01*
X13109619Y34003238D01*
X13061238Y33906476D01*
X12577428Y35164380D02*
X12577428Y34825714D01*
X13109619Y34825714D02*
X12093619Y34825714D01*
X12093619Y35309523D01*
X5449797Y56905142D02*
X5401416Y56856761D01*
X5256273Y56808380D01*
X5159511Y56808380D01*
X5014368Y56856761D01*
X4917606Y56953523D01*
X4869225Y57050285D01*
X4820844Y57243809D01*
X4820844Y57388952D01*
X4869225Y57582476D01*
X4917606Y57679238D01*
X5014368Y57776000D01*
X5159511Y57824380D01*
X5256273Y57824380D01*
X5401416Y57776000D01*
X5449797Y57727619D01*
X6369035Y57824380D02*
X5885225Y57824380D01*
X5836844Y57340571D01*
X5885225Y57388952D01*
X5981987Y57437333D01*
X6223892Y57437333D01*
X6320654Y57388952D01*
X6369035Y57340571D01*
X6417416Y57243809D01*
X6417416Y57001904D01*
X6369035Y56905142D01*
X6320654Y56856761D01*
X6223892Y56808380D01*
X5981987Y56808380D01*
X5885225Y56856761D01*
X5836844Y56905142D01*
X10041619Y55507320D02*
X10041619Y54926749D01*
X10041619Y55217035D02*
X9025619Y55217035D01*
X9170761Y55120273D01*
X9267523Y55023511D01*
X9315904Y54926749D01*
X9364285Y56378178D02*
X10041619Y56378178D01*
X9364285Y55942749D02*
X9896476Y55942749D01*
X9993238Y55991130D01*
X10041619Y56087892D01*
X10041619Y56233035D01*
X9993238Y56329797D01*
X9944857Y56378178D01*
X9509428Y57200654D02*
X9509428Y56861987D01*
X10041619Y56861987D02*
X9025619Y56861987D01*
X9025619Y57345797D01*
X38000666Y74657142D02*
X37952285Y74608761D01*
X37807142Y74560380D01*
X37710380Y74560380D01*
X37565238Y74608761D01*
X37468476Y74705523D01*
X37420095Y74802285D01*
X37371714Y74995809D01*
X37371714Y75140952D01*
X37420095Y75334476D01*
X37468476Y75431238D01*
X37565238Y75528000D01*
X37710380Y75576380D01*
X37807142Y75576380D01*
X37952285Y75528000D01*
X38000666Y75479619D01*
X38871523Y75237714D02*
X38871523Y74560380D01*
X38629619Y75624761D02*
X38387714Y74899047D01*
X39016666Y74899047D01*
X34052285Y72934666D02*
X34729619Y72934666D01*
X33665238Y72692761D02*
X34390952Y72450857D01*
X34390952Y73079809D01*
X33713619Y73370095D02*
X33713619Y74047428D01*
X34729619Y73612000D01*
X34052285Y74434476D02*
X34729619Y74434476D01*
X34149047Y74434476D02*
X34100666Y74482857D01*
X34052285Y74579619D01*
X34052285Y74724761D01*
X34100666Y74821523D01*
X34197428Y74869904D01*
X34729619Y74869904D01*
X34197428Y75692380D02*
X34197428Y75353714D01*
X34729619Y75353714D02*
X33713619Y75353714D01*
X33713619Y75837523D01*
X52699797Y34325142D02*
X52651416Y34276761D01*
X52506273Y34228380D01*
X52409511Y34228380D01*
X52264368Y34276761D01*
X52167606Y34373523D01*
X52119225Y34470285D01*
X52070844Y34663809D01*
X52070844Y34808952D01*
X52119225Y35002476D01*
X52167606Y35099238D01*
X52264368Y35196000D01*
X52409511Y35244380D01*
X52506273Y35244380D01*
X52651416Y35196000D01*
X52699797Y35147619D01*
X53038463Y35244380D02*
X53667416Y35244380D01*
X53328749Y34857333D01*
X53473892Y34857333D01*
X53570654Y34808952D01*
X53619035Y34760571D01*
X53667416Y34663809D01*
X53667416Y34421904D01*
X53619035Y34325142D01*
X53570654Y34276761D01*
X53473892Y34228380D01*
X53183606Y34228380D01*
X53086844Y34276761D01*
X53038463Y34325142D01*
X49146940Y35094380D02*
X49775892Y35094380D01*
X49437225Y34707333D01*
X49582368Y34707333D01*
X49679130Y34658952D01*
X49727511Y34610571D01*
X49775892Y34513809D01*
X49775892Y34271904D01*
X49727511Y34175142D01*
X49679130Y34126761D01*
X49582368Y34078380D01*
X49292082Y34078380D01*
X49195320Y34126761D01*
X49146940Y34175142D01*
X50211320Y34175142D02*
X50259701Y34126761D01*
X50211320Y34078380D01*
X50162940Y34126761D01*
X50211320Y34175142D01*
X50211320Y34078380D01*
X50598368Y35094380D02*
X51227320Y35094380D01*
X50888654Y34707333D01*
X51033797Y34707333D01*
X51130559Y34658952D01*
X51178940Y34610571D01*
X51227320Y34513809D01*
X51227320Y34271904D01*
X51178940Y34175142D01*
X51130559Y34126761D01*
X51033797Y34078380D01*
X50743511Y34078380D01*
X50646749Y34126761D01*
X50598368Y34175142D01*
X52098178Y34755714D02*
X52098178Y34078380D01*
X51662749Y34755714D02*
X51662749Y34223523D01*
X51711130Y34126761D01*
X51807892Y34078380D01*
X51953035Y34078380D01*
X52049797Y34126761D01*
X52098178Y34175142D01*
X52920654Y34610571D02*
X52581987Y34610571D01*
X52581987Y34078380D02*
X52581987Y35094380D01*
X53065797Y35094380D01*
X4779797Y14175142D02*
X4731416Y14126761D01*
X4586273Y14078380D01*
X4489511Y14078380D01*
X4344368Y14126761D01*
X4247606Y14223523D01*
X4199225Y14320285D01*
X4150844Y14513809D01*
X4150844Y14658952D01*
X4199225Y14852476D01*
X4247606Y14949238D01*
X4344368Y15046000D01*
X4489511Y15094380D01*
X4586273Y15094380D01*
X4731416Y15046000D01*
X4779797Y14997619D01*
X5166844Y14997619D02*
X5215225Y15046000D01*
X5311987Y15094380D01*
X5553892Y15094380D01*
X5650654Y15046000D01*
X5699035Y14997619D01*
X5747416Y14900857D01*
X5747416Y14804095D01*
X5699035Y14658952D01*
X5118463Y14078380D01*
X5747416Y14078380D01*
X5331619Y12677320D02*
X5331619Y12096749D01*
X5331619Y12387035D02*
X4315619Y12387035D01*
X4460761Y12290273D01*
X4557523Y12193511D01*
X4605904Y12096749D01*
X4654285Y13548178D02*
X5331619Y13548178D01*
X4654285Y13112749D02*
X5186476Y13112749D01*
X5283238Y13161130D01*
X5331619Y13257892D01*
X5331619Y13403035D01*
X5283238Y13499797D01*
X5234857Y13548178D01*
X4799428Y14370654D02*
X4799428Y14031987D01*
X5331619Y14031987D02*
X4315619Y14031987D01*
X4315619Y14515797D01*
X62531536Y69425142D02*
X62483155Y69376761D01*
X62338012Y69328380D01*
X62241250Y69328380D01*
X62096107Y69376761D01*
X61999345Y69473523D01*
X61950964Y69570285D01*
X61902583Y69763809D01*
X61902583Y69908952D01*
X61950964Y70102476D01*
X61999345Y70199238D01*
X62096107Y70296000D01*
X62241250Y70344380D01*
X62338012Y70344380D01*
X62483155Y70296000D01*
X62531536Y70247619D01*
X63499155Y69328380D02*
X62918583Y69328380D01*
X63208869Y69328380D02*
X63208869Y70344380D01*
X63112107Y70199238D01*
X63015345Y70102476D01*
X62918583Y70054095D01*
X56875619Y69984202D02*
X56875619Y70613155D01*
X57262666Y70274488D01*
X57262666Y70419631D01*
X57311047Y70516393D01*
X57359428Y70564774D01*
X57456190Y70613155D01*
X57698095Y70613155D01*
X57794857Y70564774D01*
X57843238Y70516393D01*
X57891619Y70419631D01*
X57891619Y70129345D01*
X57843238Y70032583D01*
X57794857Y69984202D01*
X57794857Y71048583D02*
X57843238Y71096964D01*
X57891619Y71048583D01*
X57843238Y71000202D01*
X57794857Y71048583D01*
X57891619Y71048583D01*
X56875619Y71435631D02*
X56875619Y72064583D01*
X57262666Y71725917D01*
X57262666Y71871060D01*
X57311047Y71967821D01*
X57359428Y72016202D01*
X57456190Y72064583D01*
X57698095Y72064583D01*
X57794857Y72016202D01*
X57843238Y71967821D01*
X57891619Y71871060D01*
X57891619Y71580774D01*
X57843238Y71484012D01*
X57794857Y71435631D01*
X57214285Y72935440D02*
X57891619Y72935440D01*
X57214285Y72500012D02*
X57746476Y72500012D01*
X57843238Y72548393D01*
X57891619Y72645155D01*
X57891619Y72790298D01*
X57843238Y72887060D01*
X57794857Y72935440D01*
X57359428Y73757917D02*
X57359428Y73419250D01*
X57891619Y73419250D02*
X56875619Y73419250D01*
X56875619Y73903060D01*
%LPC*%
D17*
X48930000Y29830000D03*
X43430000Y27500000D03*
D18*
X13930000Y70440000D03*
X17450000Y70450000D03*
X5040000Y76090000D03*
X8480000Y76090000D03*
X36270000Y83460000D03*
X32730000Y83460000D03*
X54730000Y105860000D03*
X58310000Y105880000D03*
D17*
X19780000Y89870000D03*
D19*
X21020000Y25790000D03*
X22320000Y25790000D03*
X21670000Y27690000D03*
X21670000Y25790000D03*
X22320000Y27690000D03*
X21020000Y27690000D03*
X37360000Y52570000D03*
X36060000Y52570000D03*
X36710000Y50670000D03*
X36710000Y52570000D03*
X36060000Y50670000D03*
X37360000Y50670000D03*
D20*
X7620000Y94742000D03*
X5080000Y94742000D03*
X2540000Y94742000D03*
D21*
X3890000Y40132000D03*
X8890000Y40132000D03*
X13890000Y40132000D03*
D20*
X6350000Y25654000D03*
X8890000Y25654000D03*
X11430000Y25654000D03*
D22*
X16128000Y89788000D03*
D23*
X9728000Y87588000D03*
X9728000Y89788000D03*
X9728000Y92088000D03*
D24*
X22296000Y32827000D03*
X22296000Y32177000D03*
X22296000Y31527000D03*
X22296000Y30877000D03*
X16396000Y30877000D03*
X16396000Y31527000D03*
X16396000Y32177000D03*
X16396000Y32827000D03*
D25*
X32485000Y79410000D03*
X33135000Y79410000D03*
X33785000Y79410000D03*
X34435000Y79410000D03*
X34435000Y73510000D03*
X33785000Y73510000D03*
X33135000Y73510000D03*
X32485000Y73510000D03*
D24*
X36182000Y56683000D03*
X36182000Y56033000D03*
X36182000Y55383000D03*
X36182000Y54733000D03*
X30282000Y54733000D03*
X30282000Y55383000D03*
X30282000Y56033000D03*
X30282000Y56683000D03*
X36124000Y48483000D03*
X36124000Y47833000D03*
X36124000Y47183000D03*
X36124000Y46533000D03*
X30224000Y46533000D03*
X30224000Y47183000D03*
X30224000Y47833000D03*
X30224000Y48483000D03*
D25*
X57633000Y100162000D03*
X58283000Y100162000D03*
X58933000Y100162000D03*
X59583000Y100162000D03*
X59583000Y94262000D03*
X58933000Y94262000D03*
X58283000Y94262000D03*
X57633000Y94262000D03*
D26*
X15910000Y56515000D03*
X15910000Y55245000D03*
X15910000Y53975000D03*
X15910000Y52705000D03*
X15910000Y51435000D03*
X15910000Y50165000D03*
X15910000Y48895000D03*
X15910000Y47625000D03*
X10510000Y47625000D03*
X10510000Y48895000D03*
X10510000Y50165000D03*
X10510000Y51435000D03*
X10510000Y52705000D03*
X10510000Y53975000D03*
X10510000Y55245000D03*
X10510000Y56515000D03*
D27*
X56896000Y27482800D03*
X56896000Y29895800D03*
X56896000Y18923000D03*
D21*
X51896000Y40132000D03*
X56896000Y40132000D03*
X61896000Y40132000D03*
X51896000Y88392000D03*
X56896000Y88392000D03*
X61896000Y88392000D03*
D28*
X39660000Y54680000D03*
X37960000Y54680000D03*
X37960000Y56230000D03*
X37960000Y57930000D03*
X32678000Y34798000D03*
X34378000Y34798000D03*
X37810000Y36450000D03*
X37810000Y34750000D03*
X32790000Y43080000D03*
X31090000Y43080000D03*
X27460000Y35070000D03*
X27460000Y36770000D03*
X30050000Y44830000D03*
X28350000Y44830000D03*
X31590000Y44820000D03*
X33290000Y44820000D03*
X28390000Y48910000D03*
X28390000Y47210000D03*
X34860000Y44750000D03*
X34860000Y43050000D03*
X42760000Y83450000D03*
X42760000Y81750000D03*
X9220000Y59760000D03*
X7520000Y59760000D03*
X27080000Y51300000D03*
X25380000Y51300000D03*
X36420000Y44770000D03*
X36420000Y43070000D03*
X19496000Y29154000D03*
X21196000Y29154000D03*
X17894000Y27630000D03*
X16194000Y27630000D03*
X16194000Y29154000D03*
X17894000Y29154000D03*
X40150000Y46800000D03*
X40150000Y45100000D03*
X28430000Y56740000D03*
X28430000Y58440000D03*
X28430000Y53500000D03*
X28430000Y55200000D03*
X52440000Y7850000D03*
X50740000Y7850000D03*
X12878000Y31134000D03*
X14578000Y31134000D03*
X4240000Y59760000D03*
X5940000Y59760000D03*
X19512000Y34646000D03*
X21212000Y34646000D03*
X30060000Y58430000D03*
X31760000Y58430000D03*
X12980000Y32752000D03*
X12980000Y34452000D03*
X57260000Y43620000D03*
X55560000Y43620000D03*
X31860000Y53010000D03*
X31860000Y51310000D03*
X54290000Y94750000D03*
X54290000Y93050000D03*
X6820000Y54310000D03*
X8520000Y54310000D03*
X3080000Y11550000D03*
X3080000Y9850000D03*
X35500000Y71670000D03*
X33800000Y71670000D03*
X5430000Y52740000D03*
X7130000Y52740000D03*
X55850000Y94760000D03*
X55850000Y93060000D03*
X30760000Y73310000D03*
X30760000Y75010000D03*
X58610000Y69140000D03*
X58610000Y70840000D03*
X52700000Y98610000D03*
X51000000Y98610000D03*
X33800000Y70110000D03*
X32100000Y70110000D03*
X8670000Y52730000D03*
X8670000Y51030000D03*
X12260000Y45420000D03*
X13960000Y45420000D03*
X32250000Y71690000D03*
X30550000Y71690000D03*
D21*
X27766000Y40132000D03*
X32766000Y40132000D03*
X37766000Y40132000D03*
D29*
X17272000Y105664000D03*
X19812000Y105664000D03*
X17272000Y103124000D03*
X19812000Y103124000D03*
X17272000Y100584000D03*
X19812000Y100584000D03*
X17272000Y98044000D03*
X19812000Y98044000D03*
X17272000Y95504000D03*
X19812000Y95504000D03*
D27*
X8890000Y12006800D03*
X8890000Y14419800D03*
X8890000Y3447000D03*
D21*
X3890000Y64262000D03*
X8890000Y64262000D03*
X13890000Y64262000D03*
X27766000Y64262000D03*
X32766000Y64262000D03*
X37766000Y64262000D03*
X27766000Y88392000D03*
X32766000Y88392000D03*
X37766000Y88392000D03*
X51896000Y64262000D03*
X56896000Y64262000D03*
X61896000Y64262000D03*
D27*
X10718800Y104394000D03*
X13131800Y104394000D03*
X2159000Y104394000D03*
D30*
X5842000Y100710000D03*
X5842000Y97410000D03*
D31*
X52930000Y96770000D03*
X50730000Y96770000D03*
X61670000Y95860000D03*
X61670000Y98060000D03*
D27*
X56896000Y12006800D03*
X56896000Y14419800D03*
X56896000Y3447000D03*
D28*
X55880000Y102040000D03*
X55880000Y100340000D03*
X40080000Y48640000D03*
X38380000Y48640000D03*
X24190000Y31020000D03*
X24190000Y32720000D03*
X30760000Y77960000D03*
X30760000Y79660000D03*
X39560000Y56180000D03*
X39560000Y57880000D03*
D32*
X8050000Y89800000D03*
X6150000Y89800000D03*
D28*
X6210000Y87580000D03*
X7910000Y87580000D03*
X17940000Y48560000D03*
X17940000Y50260000D03*
D33*
X13122000Y99568000D03*
X8722000Y99568000D03*
D28*
X19470000Y25870000D03*
X19470000Y27570000D03*
D32*
X28570000Y51320000D03*
X30470000Y51320000D03*
D28*
X38570000Y45110000D03*
X38570000Y46810000D03*
X14620000Y29150000D03*
X12920000Y29150000D03*
X16210000Y34646000D03*
X17910000Y34646000D03*
X6360000Y21070000D03*
X6360000Y22770000D03*
X11370000Y21010000D03*
X11370000Y22710000D03*
X14550000Y32742000D03*
X14550000Y34442000D03*
D34*
X7690000Y56340000D03*
X7690000Y58240000D03*
D28*
X36170000Y73270000D03*
X36170000Y74970000D03*
D32*
X52060000Y36430000D03*
X53960000Y36430000D03*
D34*
X2980000Y13510000D03*
X2980000Y15410000D03*
X60340000Y70990000D03*
X60340000Y69090000D03*
M02*
