G04 #@! TF.GenerationSoftware,KiCad,Pcbnew,(5.1.4-0-10_14)*
G04 #@! TF.CreationDate,2019-11-19T17:15:00-08:00*
G04 #@! TF.ProjectId,DS8,4453382e-6b69-4636-9164-5f7063625858,rev?*
G04 #@! TF.SameCoordinates,Original*
G04 #@! TF.FileFunction,Copper,L2,Bot*
G04 #@! TF.FilePolarity,Positive*
%FSLAX46Y46*%
G04 Gerber Fmt 4.6, Leading zero omitted, Abs format (unit mm)*
G04 Created by KiCad (PCBNEW (5.1.4-0-10_14)) date 2019-11-19 17:15:00*
%MOMM*%
%LPD*%
G04 APERTURE LIST*
%ADD10C,1.651000*%
%ADD11C,2.286000*%
%ADD12C,1.930400*%
%ADD13O,1.700000X1.700000*%
%ADD14C,0.800000*%
%ADD15C,0.300000*%
%ADD16C,0.250000*%
G04 APERTURE END LIST*
D10*
X48930000Y29830000D03*
X43430000Y27500000D03*
X19780000Y89870000D03*
X7620000Y94742000D03*
X5080000Y94742000D03*
X2540000Y94742000D03*
D11*
X3890000Y40132000D03*
X8890000Y40132000D03*
X13890000Y40132000D03*
D10*
X6350000Y25654000D03*
X8890000Y25654000D03*
X11430000Y25654000D03*
D12*
X56896000Y27482800D03*
X56896000Y29895800D03*
X56896000Y18923000D03*
D11*
X51896000Y40132000D03*
X56896000Y40132000D03*
X61896000Y40132000D03*
X51896000Y88392000D03*
X56896000Y88392000D03*
X61896000Y88392000D03*
X27766000Y40132000D03*
X32766000Y40132000D03*
X37766000Y40132000D03*
D13*
X17272000Y105664000D03*
X19812000Y105664000D03*
X17272000Y103124000D03*
X19812000Y103124000D03*
X17272000Y100584000D03*
X19812000Y100584000D03*
X17272000Y98044000D03*
X19812000Y98044000D03*
X17272000Y95504000D03*
X19812000Y95504000D03*
D12*
X8890000Y12006800D03*
X8890000Y14419800D03*
X8890000Y3447000D03*
D11*
X3890000Y64262000D03*
X8890000Y64262000D03*
X13890000Y64262000D03*
X27766000Y64262000D03*
X32766000Y64262000D03*
X37766000Y64262000D03*
X27766000Y88392000D03*
X32766000Y88392000D03*
X37766000Y88392000D03*
X51896000Y64262000D03*
X56896000Y64262000D03*
X61896000Y64262000D03*
D12*
X10718800Y104394000D03*
X13131800Y104394000D03*
X2159000Y104394000D03*
X56896000Y12006800D03*
X56896000Y14419800D03*
X56896000Y3447000D03*
D14*
X36168000Y34798000D03*
X30310000Y53710000D03*
X38910000Y53180000D03*
X40310000Y49850000D03*
X55580000Y36390000D03*
X57100000Y102040000D03*
X59740000Y92790000D03*
X54700000Y95850000D03*
X36940000Y71790000D03*
X33450000Y76990000D03*
X18430000Y32190000D03*
X33390000Y50100000D03*
X25470000Y30920000D03*
X18540000Y36790000D03*
X12260000Y46620000D03*
X6210000Y86140000D03*
X32610000Y46590000D03*
X25200000Y48330000D03*
X33620000Y74970000D03*
X16190000Y26320000D03*
X23250000Y25709998D03*
X18240000Y25960000D03*
X22300000Y29120000D03*
X11690000Y89790000D03*
X29230000Y79590000D03*
X54430000Y100440000D03*
X24160000Y34230000D03*
X32110000Y68890000D03*
X38520000Y49690000D03*
X39700000Y59130000D03*
X22830000Y53610000D03*
X21240000Y62089988D03*
X15030000Y59470000D03*
X11520000Y31210000D03*
X5460000Y54260000D03*
X21930000Y51700000D03*
X27080000Y53500000D03*
X34650000Y55960000D03*
X30190000Y42210000D03*
X31570000Y47180000D03*
X49370000Y45580000D03*
X45020000Y45660000D03*
X45020000Y60000000D03*
X43650000Y67890000D03*
X45020000Y61580000D03*
X37650000Y42970000D03*
X27507660Y48632340D03*
X24000000Y57990000D03*
X23850000Y38300000D03*
X24990000Y56270000D03*
X25280000Y49870000D03*
D15*
X57100000Y98250000D02*
X54700000Y95850000D01*
X57100000Y102040000D02*
X57100000Y98250000D01*
X56680000Y95850000D02*
X59740000Y92790000D01*
X54700000Y95850000D02*
X56680000Y95850000D01*
X59740000Y90548000D02*
X61896000Y88392000D01*
X59740000Y92790000D02*
X59740000Y90548000D01*
X54700000Y95850000D02*
X50000000Y95850000D01*
X42542000Y88392000D02*
X37766000Y88392000D01*
X50000000Y95850000D02*
X42542000Y88392000D01*
X61896000Y88392000D02*
X61896000Y64262000D01*
X33450000Y76990000D02*
X34560000Y76990000D01*
X36940000Y74610000D02*
X36940000Y71790000D01*
X34560000Y76990000D02*
X36940000Y74610000D01*
X38380000Y53710000D02*
X38910000Y53180000D01*
X30310000Y53710000D02*
X38380000Y53710000D01*
X30310000Y53180000D02*
X30310000Y53710000D01*
X33390000Y50100000D02*
X30310000Y53180000D01*
X40310000Y49850000D02*
X40310000Y49070000D01*
X40310000Y49070000D02*
X40080000Y48840000D01*
X34650000Y48840000D02*
X33390000Y50100000D01*
X40080000Y48840000D02*
X34650000Y48840000D01*
X24200000Y32190000D02*
X25470000Y30920000D01*
X18430000Y32190000D02*
X24200000Y32190000D01*
X18540000Y32300000D02*
X18430000Y32190000D01*
X18540000Y36790000D02*
X18540000Y32300000D01*
X13890000Y44990000D02*
X12260000Y46620000D01*
X13890000Y40132000D02*
X13890000Y44990000D01*
X12260000Y46620000D02*
X8840000Y46620000D01*
X8840000Y46620000D02*
X3380000Y52080000D01*
X3380000Y58752000D02*
X8890000Y64262000D01*
X3380000Y52080000D02*
X3380000Y58752000D01*
X8890000Y83460000D02*
X6210000Y86140000D01*
X8890000Y64262000D02*
X8890000Y83460000D01*
X58154000Y36390000D02*
X61896000Y40132000D01*
X55580000Y36390000D02*
X58154000Y36390000D01*
X60630000Y18153800D02*
X57861199Y15384999D01*
X57861199Y15384999D02*
X56896000Y14419800D01*
X60630000Y26161800D02*
X60630000Y18153800D01*
X56896000Y29895800D02*
X60630000Y26161800D01*
X41136000Y29830000D02*
X36168000Y34798000D01*
X48930000Y29830000D02*
X41136000Y29830000D01*
X35410000Y35556000D02*
X35410000Y43790000D01*
X35410000Y43790000D02*
X32610000Y46590000D01*
X36168000Y34798000D02*
X35410000Y35556000D01*
X25560000Y48330000D02*
X25200000Y48330000D01*
X27330000Y50100000D02*
X25560000Y48330000D01*
X33390000Y50100000D02*
X27330000Y50100000D01*
D16*
X33620000Y65116000D02*
X32766000Y64262000D01*
X33620000Y74970000D02*
X33620000Y65116000D01*
X16190000Y26320000D02*
X17629999Y24880001D01*
X22850001Y25309999D02*
X23250000Y25709998D01*
X22420003Y24880001D02*
X22850001Y25309999D01*
X17629999Y24880001D02*
X22420003Y24880001D01*
X18240000Y25960000D02*
X21400000Y29120000D01*
X21400000Y29120000D02*
X22300000Y29120000D01*
X21130000Y79590000D02*
X29230000Y79590000D01*
X21130000Y79590000D02*
X21130000Y74660000D01*
X21130000Y74660000D02*
X22830000Y72960000D01*
X22830000Y35980000D02*
X24160000Y34650000D01*
X24160000Y34650000D02*
X24160000Y34230000D01*
X22830000Y55940000D02*
X22830000Y35980000D01*
X22830000Y57180000D02*
X22830000Y57000000D01*
X22830000Y57180000D02*
X22830000Y55940000D01*
X22830000Y62890000D02*
X22830000Y57180000D01*
X22830000Y72960000D02*
X22830000Y62890000D01*
X11690000Y89790000D02*
X15205000Y86275000D01*
X16605000Y86275000D02*
X15205000Y86275000D01*
X54260000Y100610000D02*
X43100000Y100610000D01*
X54430000Y100440000D02*
X54260000Y100610000D01*
X20655000Y86275000D02*
X16605000Y86275000D01*
X41050000Y98560000D02*
X32940000Y98560000D01*
X43100000Y100610000D02*
X41050000Y98560000D01*
X32940000Y98560000D02*
X20655000Y86275000D01*
X15280000Y85440000D02*
X21130000Y79590000D01*
X15205000Y86275000D02*
X15280000Y86200000D01*
X15280000Y86200000D02*
X15280000Y85440000D01*
X22830000Y55940000D02*
X22830000Y53610000D01*
X29230000Y71770000D02*
X32110000Y68890000D01*
X29230000Y79590000D02*
X29230000Y71770000D01*
X40750000Y58160000D02*
X39740000Y59170000D01*
X39740000Y59170000D02*
X39700000Y59130000D01*
X38520000Y51270000D02*
X40750000Y53500000D01*
X40750000Y53500000D02*
X40750000Y58160000D01*
X38520000Y49690000D02*
X38520000Y51270000D01*
X37004315Y61260000D02*
X39134315Y59130000D01*
X24460000Y61260000D02*
X37004315Y61260000D01*
X39134315Y59130000D02*
X39700000Y59130000D01*
X22830000Y62890000D02*
X24460000Y61260000D01*
X21240000Y62089988D02*
X17649988Y62089988D01*
X15429999Y59869999D02*
X15030000Y59470000D01*
X17649988Y62089988D02*
X15429999Y59869999D01*
X11520000Y31210000D02*
X11270000Y31460000D01*
X21930000Y44800000D02*
X21930000Y51700000D01*
X21950000Y44780000D02*
X21930000Y44800000D01*
X21950000Y42205685D02*
X21950000Y44780000D01*
X11520000Y31210000D02*
X11520000Y31775685D01*
X18922157Y39177843D02*
X21950000Y42205685D01*
X11520000Y31775685D02*
X18922157Y39177843D01*
X19290000Y39545686D02*
X18922157Y39177843D01*
X19370000Y54260000D02*
X21930000Y51700000D01*
X5460000Y54260000D02*
X19370000Y54260000D01*
X29260000Y55960000D02*
X34650000Y55960000D01*
X27080000Y53500000D02*
X27080000Y53780000D01*
X27080000Y53780000D02*
X29260000Y55960000D01*
X30190000Y42210000D02*
X30190000Y45800000D01*
X30190000Y45800000D02*
X31570000Y47180000D01*
X49370000Y45580000D02*
X45100000Y45580000D01*
X45100000Y45580000D02*
X45020000Y45660000D01*
X43650000Y64140000D02*
X43650000Y67890000D01*
X45020000Y60000000D02*
X45020000Y61580000D01*
X45020000Y62770000D02*
X43650000Y64140000D01*
X45020000Y61580000D02*
X45020000Y62770000D01*
X37650000Y42970000D02*
X31670000Y48950000D01*
X31670000Y48950000D02*
X27825320Y48950000D01*
X27825320Y48950000D02*
X27507660Y48632340D01*
X24000000Y57990000D02*
X24000000Y38450000D01*
X24000000Y38450000D02*
X23850000Y38300000D01*
X24990000Y56270000D02*
X24990000Y50160000D01*
X24990000Y50160000D02*
X25280000Y49870000D01*
M02*
