M48
; DRILL file {KiCad (5.1.4-0-10_14)} date Monday, November 18, 2019 at 03:59:15 PM
; FORMAT={2:4/ absolute / inch / suppress leading zeros}
; #@! TF.CreationDate,2019-11-18T15:59:15-08:00
; #@! TF.GenerationSoftware,Kicad,Pcbnew,(5.1.4-0-10_14)
FMAT,2
INCH,TZ
T1C0.0157
T2C0.0350
T3C0.0394
T4C0.0450
T5C0.0472
%
G90
G05
T1
X2150Y21362
X2445Y33913
X4535Y12287
X4602Y35350
X4827Y18354
X5917Y23413
X6374Y10362
X7181Y10220
X7256Y12673
X7299Y14484
X8362Y24445
X8634Y20354
X8780Y11465
X8988Y21106
X9154Y10122
X9390Y15079
X9449Y22831
X9512Y13476
X9839Y22154
X9921Y19028
X9953Y19634
X10028Y12173
X10661Y21063
X10830Y19147
X11508Y31335
X11886Y16618
X11933Y21146
X12429Y18575
X12642Y27122
X12839Y18343
X13146Y19724
X13169Y30311
X13236Y29516
X13642Y22031
X14239Y13700
X14543Y28264
X14823Y16917
X15165Y19563
X15319Y20937
X15630Y23280
X15870Y19626
X17185Y26728
X17724Y24244
X17724Y23622
X17724Y17976
X19437Y17945
X21429Y39543
X21535Y37736
X21882Y14327
X22480Y40173
X23520Y36531
T2
X2500Y10100
X3500Y10100
X4500Y10100
X5170Y41100
X22400Y11770
X17098Y10827
X22400Y5677
X7787Y35382
X19264Y11744
X3500Y5677
X1000Y37300
X2000Y37300
X3000Y37300
T3
X6800Y41600
X6800Y40600
X6800Y39600
X6800Y38600
X6800Y37600
X7800Y41600
X7800Y40600
X7800Y39600
X7800Y38600
X7800Y37600
T4
X22400Y10820
X22400Y7450
X850Y41100
X4220Y41100
X22400Y4727
X22400Y1357
X3500Y4727
X3500Y1357
T5
X10931Y34800
X12900Y34800
X14869Y34800
X20431Y34800
X22400Y34800
X24369Y34800
X1531Y25300
X3500Y25300
X5469Y25300
X20431Y25300
X22400Y25300
X24369Y25300
X1531Y15800
X3500Y15800
X5469Y15800
X10931Y15800
X12900Y15800
X14869Y15800
X10931Y25300
X12900Y25300
X14869Y25300
X20431Y15800
X22400Y15800
X24369Y15800
T0
M30
